{"glyphs":{"0":{"ha":760,"x_min":121,"x_max":668,"o":"m 554 743 l 568 735 l 590 708 q 629 639 626 660 q 632 627 629 636 q 636 611 635 618 q 647 576 638 604 q 658 519 656 549 q 660 467 661 489 q 660 440 660 444 q 663 426 661 436 q 664 406 664 415 q 665 337 668 374 q 663 274 663 300 q 662 235 664 247 q 660 219 660 222 q 658 210 660 215 q 654 197 656 204 q 638 145 646 157 q 628 122 631 133 q 604 73 626 111 q 543 4 582 35 q 364 -49 461 -62 q 284 -19 324 -42 q 233 16 244 3 q 211 42 222 29 q 201 56 200 54 q 199 64 203 58 q 194 71 194 69 q 192 76 194 72 q 189 81 189 81 q 185 88 189 82 q 181 96 182 94 q 175 105 179 97 q 169 113 171 113 q 154 148 156 139 q 149 172 153 157 q 144 190 144 186 q 142 200 144 194 q 139 210 140 206 q 137 215 138 215 q 135 222 136 215 q 131 231 135 228 q 124 283 126 233 q 121 334 121 333 q 121 392 121 335 q 122 464 121 449 q 125 500 124 479 q 196 700 133 613 q 371 811 264 797 q 425 810 396 814 q 456 804 454 807 q 465 799 458 801 q 474 795 472 796 q 483 790 475 794 q 498 780 492 785 q 510 772 504 775 q 522 763 515 768 q 537 754 529 758 q 549 747 544 750 q 554 743 554 743 m 486 654 q 375 696 429 708 q 365 694 371 694 q 347 689 358 694 q 336 681 336 683 q 321 667 336 679 q 260 578 289 642 l 256 572 q 247 554 254 574 q 239 529 239 535 q 235 491 233 503 q 235 456 238 479 q 233 401 233 432 q 233 365 233 369 q 232 351 232 360 q 231 330 232 342 q 233 307 231 318 q 235 293 235 296 q 238 288 236 290 q 240 271 239 285 q 242 254 242 257 q 246 233 243 251 q 256 194 249 215 q 292 124 274 146 q 311 101 311 103 q 315 95 311 100 q 323 90 319 90 q 333 85 326 90 q 450 79 390 43 q 456 80 454 82 q 463 83 457 78 q 469 85 468 88 q 489 104 471 83 q 522 161 526 158 q 526 171 522 161 q 553 277 549 219 q 558 370 558 335 q 558 410 558 406 q 558 419 558 415 q 559 431 558 431 q 560 447 560 432 q 558 461 560 461 q 554 485 556 461 q 539 562 550 533 q 528 592 528 590 q 524 603 529 593 q 520 615 519 614 q 515 624 521 615 q 500 643 510 633 q 490 651 490 653 q 486 654 490 650 z "},"1":{"ha":760,"x_min":121,"x_max":694,"o":"m 350 279 l 351 288 q 351 278 351 285 q 351 269 351 272 l 350 279 m 181 -26 q 133 -3 149 -24 q 124 6 128 6 q 121 20 121 6 q 123 43 121 35 q 138 63 125 51 q 169 82 154 81 q 251 83 183 83 q 319 82 318 83 q 335 81 319 81 q 351 83 350 81 q 353 90 353 86 q 352 93 353 93 q 353 100 351 93 q 352 109 354 107 q 350 169 350 111 q 351 227 350 226 q 353 236 353 228 q 353 246 353 244 q 353 272 353 247 q 351 298 353 296 q 350 449 350 300 q 351 598 350 597 q 353 601 353 599 q 354 629 356 613 q 328 653 351 657 q 298 640 319 650 q 270 630 276 631 q 258 626 264 629 q 250 624 251 624 q 224 615 249 624 q 178 609 190 604 q 157 622 165 614 q 145 638 149 631 q 140 646 142 644 q 140 673 133 651 q 167 706 147 694 q 202 724 188 718 q 225 733 217 729 q 249 744 233 738 q 274 755 264 750 q 293 764 285 760 q 338 783 304 768 q 381 801 371 797 q 435 797 414 813 q 459 771 457 781 q 461 760 461 761 l 461 758 q 460 747 460 760 q 459 724 460 735 q 460 699 458 713 q 460 638 463 667 q 458 593 457 608 q 459 572 460 578 q 460 553 458 565 q 460 510 461 540 q 458 431 456 444 q 460 413 460 418 q 463 402 461 407 q 464 361 464 397 q 464 313 464 325 q 463 285 464 286 q 460 268 457 272 q 464 208 464 264 q 463 147 464 153 q 458 108 458 136 q 460 78 458 81 q 477 78 461 76 q 503 80 493 79 q 514 82 513 81 q 575 85 514 86 q 645 79 636 83 q 667 64 654 75 q 679 6 694 36 q 649 -24 667 -18 q 605 -26 643 -25 q 536 -26 567 -28 q 499 -27 506 -24 q 431 -31 493 -31 q 369 -29 368 -31 q 359 -27 369 -28 q 331 -24 349 -26 q 293 -24 314 -21 l 239 -28 l 208 -31 l 190 -29 q 181 -26 197 -28 z "},"2":{"ha":760,"x_min":108,"x_max":657,"o":"m 322 807 q 326 808 322 807 q 331 810 331 810 q 338 811 331 810 q 346 815 346 813 q 375 818 346 818 q 476 801 433 817 l 503 783 q 520 775 507 782 q 538 765 533 768 q 546 760 543 763 q 554 754 549 758 q 561 750 560 750 q 563 750 563 750 q 572 742 564 750 q 651 608 632 685 q 656 574 657 585 q 656 559 656 564 q 654 535 656 554 q 651 506 653 517 q 649 490 650 496 q 645 474 647 483 q 642 457 643 464 q 634 433 642 450 q 626 414 626 415 q 624 411 625 413 q 621 401 624 410 q 600 371 618 393 q 523 304 564 325 q 461 276 482 283 q 433 265 440 268 q 421 260 426 263 q 410 256 415 258 q 397 253 404 254 q 376 246 389 251 q 347 235 363 240 q 321 220 331 229 q 307 208 311 211 q 242 131 263 178 q 235 118 238 122 q 226 95 226 106 q 232 82 226 85 q 265 79 238 79 q 323 76 303 78 q 351 74 343 74 q 369 76 360 75 q 385 77 379 76 q 436 79 392 78 q 485 81 481 81 q 506 85 503 83 q 556 86 511 88 q 622 74 622 85 q 630 65 622 72 q 641 51 638 57 q 647 42 644 44 q 649 28 649 39 q 619 -18 649 3 q 603 -26 611 -25 q 485 -28 594 -28 q 370 -27 376 -28 q 353 -25 364 -26 q 337 -22 343 -24 q 319 -22 331 -21 q 294 -24 308 -24 q 278 -26 279 -25 q 271 -28 276 -26 q 234 -28 265 -29 q 196 -26 203 -28 q 174 -25 189 -25 q 157 -24 160 -25 q 117 26 124 -12 q 114 95 108 67 q 119 124 119 124 l 121 124 l 125 133 l 126 139 q 129 144 128 139 q 133 152 131 149 q 136 160 136 156 q 138 170 136 165 q 140 176 140 175 q 141 181 139 176 q 143 189 143 185 q 147 200 143 193 q 229 296 178 258 q 238 299 235 299 q 244 303 240 300 q 247 308 249 306 q 299 335 246 311 q 377 367 353 358 q 406 375 401 375 q 417 377 411 375 q 424 379 422 379 q 429 381 425 379 q 444 385 433 382 q 467 396 467 392 l 485 413 q 490 417 485 413 q 496 425 496 422 q 504 438 496 428 q 540 503 529 463 q 543 510 542 510 q 546 516 544 511 q 547 526 547 521 q 547 533 547 532 q 544 553 546 533 q 521 626 543 597 q 457 686 489 667 q 455 688 454 688 q 450 693 456 689 q 398 711 424 710 q 365 711 372 713 q 344 706 357 710 q 317 693 317 694 q 313 690 317 692 q 300 682 310 688 q 229 603 257 657 q 213 578 219 583 q 204 572 207 574 q 164 560 182 553 q 122 597 133 571 q 135 668 110 624 q 173 722 161 713 q 183 732 185 732 q 203 753 183 732 l 204 756 l 219 767 l 225 769 q 240 776 229 771 q 251 782 250 782 q 258 785 251 782 q 266 788 264 788 q 270 789 268 788 q 272 790 272 790 q 275 790 272 789 q 279 792 278 792 q 283 792 281 792 q 290 794 286 793 q 304 799 294 794 q 322 807 314 804 z "},"3":{"ha":760,"x_min":125,"x_max":667,"o":"m 476 471 l 481 474 q 483 477 481 475 q 486 480 486 479 q 490 484 486 481 q 493 488 493 488 q 499 494 493 489 q 502 501 504 500 q 507 508 500 501 q 514 638 560 571 q 486 669 500 661 q 444 690 458 686 q 426 696 431 694 q 415 699 422 697 q 401 701 407 700 q 357 703 394 703 q 290 678 303 688 q 268 663 278 669 q 247 647 258 657 q 232 636 235 638 q 224 628 222 629 l 207 615 q 140 636 169 597 q 129 664 129 650 q 138 695 129 678 q 173 732 147 713 q 199 750 199 751 q 206 753 199 749 q 215 757 213 757 q 220 759 217 757 q 225 762 224 761 q 233 765 226 763 q 245 769 240 768 q 256 772 250 771 q 267 776 261 774 q 283 783 274 778 q 297 790 292 788 q 307 794 303 792 q 312 796 311 796 q 314 797 313 796 l 326 801 q 342 806 342 806 q 419 810 376 815 q 477 799 463 804 q 504 790 492 794 q 543 768 517 786 q 639 646 614 722 q 648 576 650 606 q 644 541 646 546 q 643 535 642 536 q 635 511 640 533 q 583 433 622 471 q 572 419 578 428 q 555 399 565 410 q 544 382 544 389 q 552 369 544 375 q 563 358 560 363 q 577 342 565 354 q 602 307 589 331 q 616 281 615 283 q 625 264 617 279 q 646 221 643 233 q 654 191 649 208 q 661 164 660 174 q 664 155 663 154 q 665 154 665 156 q 666 150 665 153 q 666 117 667 147 q 661 79 665 86 q 652 58 657 72 q 646 38 647 43 q 641 21 644 33 q 626 -10 638 8 q 614 -31 614 -29 q 601 -50 614 -33 q 565 -87 589 -67 q 528 -116 542 -108 q 510 -128 515 -124 q 446 -155 485 -144 q 388 -165 407 -165 q 365 -166 369 -165 q 353 -168 360 -167 q 343 -171 347 -169 q 311 -171 339 -172 q 219 -153 251 -168 q 215 -151 217 -151 q 213 -149 213 -150 q 199 -142 213 -149 q 179 -131 185 -135 q 161 -122 174 -128 q 143 -108 149 -115 q 136 -100 138 -100 q 130 -88 135 -100 q 130 -65 125 -76 q 136 -51 135 -54 q 140 -47 138 -49 q 142 -46 142 -46 q 147 -40 142 -46 q 154 -35 153 -35 q 163 -31 163 -35 q 167 -27 163 -29 q 174 -25 172 -25 q 178 -24 175 -25 l 181 -22 q 181 -21 179 -22 q 203 -24 190 -21 q 207 -26 208 -26 l 236 -40 q 247 -44 243 -44 q 263 -47 251 -44 q 303 -56 288 -54 q 324 -59 319 -57 q 361 -61 329 -61 l 375 -61 q 391 -56 390 -57 q 397 -55 392 -56 q 402 -53 401 -54 q 410 -49 403 -51 q 419 -45 418 -47 q 425 -40 419 -43 q 492 1 464 -25 q 543 79 533 44 q 548 83 544 82 q 551 94 551 83 q 551 104 551 104 q 551 114 550 104 q 530 218 561 165 q 450 297 499 271 q 435 307 439 303 q 328 325 408 325 q 292 326 299 324 q 274 328 285 328 q 251 340 264 329 q 231 392 225 364 q 235 403 233 404 q 242 410 236 403 q 247 419 247 417 q 258 429 247 421 q 315 440 269 438 q 371 443 360 442 q 388 445 382 444 q 396 447 393 446 l 399 446 l 425 449 q 433 451 429 450 q 439 452 438 453 q 455 458 440 451 q 472 466 469 464 q 476 469 474 468 q 476 471 478 469 z "},"4":{"ha":760,"x_min":136,"x_max":668,"o":"m 554 349 q 553 350 554 350 q 553 342 553 350 l 553 344 l 550 346 q 553 337 549 342 q 562 313 557 332 q 571 292 567 293 q 597 289 575 290 q 638 281 628 288 q 654 267 649 275 q 660 261 660 260 l 665 246 q 650 207 668 222 q 636 195 644 203 q 610 185 628 188 q 576 164 582 182 q 575 84 575 160 q 574 0 575 8 q 543 -42 569 -26 q 479 -29 510 -61 q 463 44 453 -1 q 463 57 465 56 q 461 109 461 58 q 460 165 461 160 q 438 183 454 181 q 321 185 432 185 q 196 185 210 185 q 144 217 163 186 q 136 253 136 231 q 139 283 136 275 q 161 328 142 290 q 188 384 181 365 q 197 403 196 403 q 200 404 199 403 q 203 415 203 410 q 214 450 203 421 q 237 538 232 506 q 243 578 242 569 q 248 625 246 597 q 251 653 250 653 q 253 660 253 653 q 254 667 254 667 q 255 673 254 667 q 257 687 256 679 q 257 722 258 694 q 256 752 256 750 q 255 769 256 754 q 254 792 254 783 q 250 813 254 800 q 244 846 242 839 q 247 853 247 853 q 247 857 246 854 q 278 883 257 876 q 285 885 283 885 q 297 884 288 885 q 318 874 307 883 q 351 785 339 854 q 355 767 353 778 q 357 724 357 757 q 354 676 357 692 q 354 582 351 661 l 354 554 q 349 522 350 531 q 345 502 347 513 q 342 488 343 492 q 338 471 342 483 q 328 435 335 458 q 311 383 322 411 q 292 335 300 354 q 282 317 285 317 q 277 308 279 317 q 278 298 275 300 q 288 296 282 296 q 294 297 293 296 q 337 298 296 299 q 381 297 378 297 q 401 294 383 296 q 422 292 419 293 q 443 290 425 292 q 467 294 461 289 q 467 340 472 299 q 466 413 463 382 q 469 488 469 443 q 467 542 468 532 q 467 556 467 553 q 465 563 467 558 q 463 574 464 567 q 462 583 463 582 q 461 635 461 583 q 466 697 461 686 q 483 719 471 708 q 504 733 494 731 q 515 733 514 735 q 522 731 517 733 q 572 658 571 719 q 574 638 572 639 q 575 571 575 636 q 574 502 575 506 q 571 481 572 499 q 567 456 569 463 q 563 436 565 449 q 560 401 561 424 q 558 374 560 379 q 554 349 556 350 z "},"5":{"ha":760,"x_min":124,"x_max":681,"o":"m 218 785 q 222 785 218 785 q 226 786 226 785 q 479 788 226 788 l 488 786 l 490 785 l 494 786 q 524 788 494 788 q 561 788 553 788 q 581 786 581 788 q 590 783 582 785 q 598 781 597 782 q 604 778 599 781 q 631 729 631 763 q 616 694 631 710 q 583 678 601 679 q 560 675 565 676 q 504 674 556 674 q 449 675 453 674 q 438 676 444 676 q 428 675 432 676 q 351 674 425 674 q 264 672 276 674 q 241 660 244 671 q 238 617 238 649 q 236 582 238 586 q 235 574 235 578 q 234 565 235 571 q 233 545 233 558 q 234 527 233 532 q 235 519 235 522 q 237 511 236 515 q 238 494 238 507 q 243 478 239 481 q 276 484 250 472 q 316 500 301 496 q 333 504 331 504 q 341 506 340 507 q 345 506 342 506 q 351 506 349 506 q 365 507 354 507 q 377 508 376 507 q 381 508 378 508 q 387 510 383 508 q 399 511 390 511 q 408 513 407 511 q 433 513 410 514 q 492 501 457 513 q 531 486 528 490 q 542 476 533 482 q 556 465 550 471 q 569 456 563 460 q 581 446 575 451 q 588 440 586 440 q 593 436 589 440 q 600 431 597 432 q 608 424 603 431 q 625 403 613 418 q 668 307 656 365 q 678 239 681 249 q 675 213 676 229 q 669 181 674 197 q 661 147 665 165 q 653 118 657 128 q 646 101 649 108 q 639 86 643 93 q 626 64 635 79 q 567 -3 606 26 q 549 -22 560 -8 q 526 -47 539 -35 q 502 -70 513 -60 q 449 -99 492 -81 q 399 -119 407 -118 q 385 -124 392 -119 q 367 -132 379 -128 q 325 -145 335 -143 q 296 -152 315 -147 q 274 -158 276 -157 q 266 -159 271 -158 q 253 -160 261 -160 q 235 -162 244 -160 q 192 -169 196 -168 q 186 -171 189 -171 q 163 -166 169 -171 q 156 -160 156 -161 q 149 -153 156 -160 q 131 -128 147 -153 l 128 -114 q 138 -85 128 -100 q 160 -65 149 -71 q 201 -55 172 -60 q 248 -46 229 -50 q 267 -43 267 -42 q 274 -43 267 -44 q 285 -42 282 -42 q 292 -41 289 -42 q 304 -38 296 -40 q 319 -33 313 -36 q 331 -28 326 -31 q 335 -26 335 -26 q 342 -24 335 -26 q 349 -20 349 -22 q 361 -12 349 -18 q 483 60 435 15 l 489 64 l 488 61 q 501 72 493 64 q 508 82 510 81 q 513 90 507 83 q 563 196 553 133 q 564 202 563 201 q 564 235 565 203 q 472 386 560 340 q 432 399 451 397 q 410 402 413 401 q 397 403 407 403 q 381 402 388 404 q 368 397 374 400 q 341 388 363 394 q 310 374 319 381 q 290 362 300 367 q 267 347 279 357 q 252 338 254 338 q 246 335 250 338 q 235 328 242 332 q 214 315 228 324 q 172 302 186 297 q 145 319 157 307 q 130 383 133 332 q 128 469 126 435 q 129 513 129 503 q 125 540 128 531 l 124 607 q 124 682 124 622 q 128 742 124 742 l 136 757 l 146 765 q 150 768 146 765 l 160 776 q 183 782 156 782 q 210 783 211 782 q 218 785 210 785 z "},"6":{"ha":760,"x_min":122,"x_max":665,"o":"m 287 767 q 287 767 287 767 q 287 769 288 768 q 290 773 286 769 q 293 780 293 776 q 306 799 293 783 q 324 820 318 814 q 331 827 331 826 q 333 830 331 828 q 336 833 336 832 q 341 837 336 833 q 347 842 346 840 q 353 847 347 843 q 361 854 360 851 q 385 870 363 857 q 434 894 407 883 q 467 906 461 906 q 479 908 474 906 q 486 910 485 910 q 503 913 490 910 q 515 918 515 917 q 515 919 514 919 q 568 928 536 926 q 613 924 600 931 q 641 897 626 917 q 646 860 656 878 q 594 817 626 821 q 474 786 517 808 q 458 781 463 781 q 442 774 453 781 q 426 765 431 767 q 397 749 421 763 q 369 732 374 735 q 330 686 343 711 q 314 656 317 661 q 310 644 311 651 q 294 615 308 638 q 269 557 279 592 q 256 521 258 522 q 254 513 254 519 q 264 500 253 497 l 288 515 l 286 517 q 288 517 285 515 q 389 550 347 550 q 481 542 446 551 q 589 475 543 524 q 616 443 610 454 q 626 428 622 432 q 633 416 629 424 q 642 397 636 408 q 649 379 649 385 q 652 362 650 374 q 656 335 654 350 q 660 306 657 319 q 663 265 663 293 q 665 236 664 238 q 665 206 665 235 q 651 140 665 178 q 607 58 625 74 q 594 47 603 56 q 581 36 586 39 q 565 22 576 33 q 547 4 553 10 q 537 -5 538 -4 q 531 -9 536 -6 q 524 -15 525 -12 q 501 -28 524 -18 q 275 -11 388 -81 q 249 6 256 0 q 228 24 243 11 q 191 69 214 36 q 165 115 168 103 q 156 140 161 128 q 150 152 150 151 q 144 170 150 153 q 137 198 139 188 q 133 220 135 208 q 131 232 131 232 q 132 249 132 232 q 133 274 132 267 q 131 297 133 282 q 126 323 128 313 q 124 333 125 333 q 122 369 122 333 q 151 567 124 485 q 183 650 179 649 q 191 658 188 651 q 194 664 194 664 l 206 681 q 208 683 207 681 q 210 686 208 685 q 217 694 211 688 q 223 701 222 700 q 228 707 224 701 q 233 713 232 713 q 236 716 235 714 q 240 721 238 718 q 246 726 243 724 q 255 733 253 733 q 261 740 257 733 q 267 746 265 746 q 270 748 268 746 q 277 751 272 750 q 284 758 282 753 q 286 764 286 763 q 287 767 286 765 m 519 379 q 394 436 469 444 q 342 415 368 432 q 308 388 317 399 q 292 368 299 376 q 257 285 267 339 q 255 274 256 276 q 254 271 254 272 q 253 269 254 269 q 251 256 253 268 q 251 200 247 219 q 264 165 254 181 q 276 144 274 150 q 281 139 279 139 q 288 133 283 139 q 428 68 347 50 q 497 107 465 76 q 508 115 506 115 q 513 119 510 114 q 518 125 517 125 q 522 128 519 125 q 527 133 525 132 q 538 151 529 133 q 547 171 546 168 q 549 178 547 174 q 549 183 550 182 l 550 199 q 553 212 550 199 q 556 248 556 225 q 556 279 557 271 q 553 306 556 288 q 519 379 549 340 z "},"7":{"ha":760,"x_min":147,"x_max":694,"o":"m 186 782 q 231 788 196 788 q 269 786 267 788 q 281 785 272 785 q 290 783 289 785 q 314 782 290 782 q 341 783 338 782 q 351 785 344 785 q 358 786 358 785 q 493 788 358 788 q 628 787 628 788 q 637 785 629 786 q 647 783 644 783 q 651 781 649 782 q 656 779 654 781 q 660 778 658 778 l 672 769 q 681 762 674 769 q 692 744 689 754 q 692 725 694 733 q 675 688 690 717 q 658 652 660 658 q 651 639 656 646 q 646 630 647 632 q 638 618 644 628 q 628 601 632 608 q 618 583 625 594 q 606 563 611 572 q 596 547 601 553 q 581 526 590 542 q 562 493 571 511 q 550 469 553 475 q 535 432 538 447 q 525 394 533 417 q 498 323 504 347 q 488 293 492 299 q 476 247 481 281 q 471 210 472 214 q 469 203 469 206 q 469 203 469 201 l 463 176 q 459 142 457 156 q 460 117 461 129 q 458 90 460 106 q 456 53 457 74 q 453 9 454 32 q 452 -24 453 -14 q 450 -66 451 -33 q 446 -113 449 -99 q 433 -140 443 -128 q 415 -156 422 -151 q 374 -155 394 -165 q 345 -129 353 -144 q 339 -94 338 -114 q 340 -31 343 -37 q 339 -2 338 -25 q 341 28 340 21 q 342 38 342 35 q 342 47 343 40 q 342 63 342 54 q 345 105 343 72 q 349 140 347 138 q 352 151 351 142 q 353 161 353 160 q 355 168 354 163 q 356 175 356 174 q 358 180 357 176 q 360 190 358 183 q 363 202 363 197 q 365 215 364 207 q 366 226 365 224 q 367 236 367 229 q 370 255 368 243 q 372 270 372 267 q 373 278 372 274 q 374 284 374 282 q 375 294 374 286 q 376 304 376 301 q 383 338 375 307 q 513 631 417 457 q 522 671 532 665 q 493 678 519 674 q 453 678 467 682 q 374 675 439 675 q 293 674 308 675 q 271 667 278 674 q 263 652 264 660 q 262 609 263 644 q 260 563 261 574 q 249 542 258 553 q 192 525 228 517 q 178 530 183 526 q 170 533 172 533 q 161 544 168 533 q 153 557 154 556 q 148 645 147 558 q 150 740 149 732 q 186 782 156 768 z "},"8":{"ha":760,"x_min":108,"x_max":693,"o":"m 400 932 q 407 931 407 932 q 414 929 407 929 q 422 930 421 929 q 429 931 422 931 q 531 894 485 925 q 538 889 535 892 q 547 882 542 886 q 558 873 551 878 q 569 863 565 868 q 578 851 572 858 q 592 831 585 843 q 606 809 600 819 q 617 788 611 799 q 628 766 624 778 q 635 750 633 754 q 643 719 638 746 q 646 665 649 692 q 643 632 643 639 q 624 569 643 608 q 584 508 606 531 q 568 476 563 486 q 582 463 571 474 q 675 210 693 363 q 669 178 672 186 q 663 163 665 169 q 657 149 660 157 q 651 133 654 142 q 644 117 649 125 q 633 99 639 108 q 614 76 626 89 q 594 50 601 63 q 575 25 586 38 q 564 11 564 13 q 541 -6 564 10 q 494 -28 518 -21 q 463 -37 471 -36 q 451 -39 456 -37 q 443 -42 447 -40 q 398 -47 431 -47 q 342 -42 365 -46 q 319 -37 319 -39 q 303 -29 319 -35 q 273 -13 286 -24 q 246 7 260 -3 q 203 42 214 28 q 180 67 193 56 q 161 85 167 78 q 154 94 156 93 q 149 101 153 96 q 144 106 146 107 q 135 124 143 106 q 113 197 115 169 q 112 226 111 225 q 113 240 113 226 q 110 260 113 254 q 115 297 108 265 q 200 458 132 390 q 220 475 217 475 q 226 481 224 475 q 221 496 229 486 q 209 511 213 506 q 199 525 206 517 q 173 570 181 546 q 162 606 165 594 q 156 633 158 617 q 149 668 153 650 q 146 697 146 686 q 144 708 146 708 q 147 734 143 708 q 162 781 151 760 q 183 818 172 803 q 194 833 193 833 q 201 838 197 832 q 206 843 206 843 q 208 845 207 843 q 214 852 210 847 q 217 858 218 857 q 224 865 217 860 q 400 932 296 933 m 489 781 q 351 811 429 836 q 331 806 338 807 q 308 793 325 806 q 285 774 292 781 q 269 749 278 768 q 260 721 260 731 q 257 700 260 711 q 306 572 243 631 q 400 538 347 533 q 490 579 453 542 q 519 615 508 596 q 530 639 529 633 q 533 656 531 644 q 535 687 535 667 q 528 721 535 707 q 524 736 522 735 q 519 751 525 744 q 509 763 514 757 q 501 771 504 769 q 489 781 497 772 m 476 399 q 463 406 465 406 q 462 409 461 407 q 438 419 463 411 q 311 406 371 440 q 303 399 307 403 q 292 390 299 396 q 282 378 286 385 q 276 370 278 372 q 269 363 274 368 q 257 350 264 357 q 249 340 249 343 q 238 314 249 338 q 225 261 226 290 q 223 226 224 232 q 224 211 222 221 q 226 198 225 201 q 227 191 226 194 q 229 181 228 188 q 242 158 233 167 q 260 138 250 150 q 346 74 292 92 q 369 66 357 71 q 394 64 382 61 q 424 69 407 67 q 460 81 440 72 q 519 128 494 99 q 524 131 524 132 q 525 132 524 131 q 532 138 529 133 q 536 140 535 142 q 544 154 540 140 q 553 178 551 172 l 550 175 q 564 257 568 218 q 563 274 563 265 q 538 338 560 301 q 476 399 515 375 z "},"9":{"ha":760,"x_min":111,"x_max":660,"o":"m 207 736 l 226 750 q 230 752 228 750 q 247 761 232 754 q 263 770 261 768 q 268 775 264 772 q 274 778 272 778 q 276 781 275 779 q 280 783 278 782 q 285 785 282 783 q 290 788 289 788 q 298 791 292 789 q 306 794 304 793 q 317 799 307 796 q 329 804 328 801 q 380 811 342 815 q 451 799 418 807 q 509 773 485 790 q 533 753 533 756 q 544 744 533 751 q 563 726 556 738 q 582 700 571 714 q 602 663 593 686 q 615 633 611 639 q 625 614 618 628 q 635 594 632 600 q 646 554 639 589 q 658 478 660 492 q 657 433 654 450 l 658 433 l 660 406 q 658 351 660 365 q 654 314 657 338 q 638 224 650 267 q 624 181 626 182 q 617 167 622 179 q 610 150 613 156 q 605 139 607 144 q 593 118 603 133 q 578 88 583 103 q 569 67 572 72 q 567 56 567 61 q 549 31 567 51 q 528 6 531 10 q 515 -9 525 1 q 503 -19 504 -19 q 489 -28 503 -18 q 461 -47 475 -39 q 438 -65 447 -56 q 426 -74 428 -74 q 412 -86 425 -75 q 388 -102 399 -97 q 371 -110 378 -107 q 351 -121 364 -114 q 294 -144 322 -139 q 261 -150 267 -149 q 253 -152 256 -151 q 239 -156 250 -153 q 221 -161 228 -160 q 210 -165 214 -162 q 169 -162 188 -175 q 135 -113 133 -137 q 140 -87 136 -89 q 149 -79 143 -86 q 157 -72 156 -72 q 164 -68 158 -72 q 170 -65 169 -64 q 176 -63 171 -65 q 183 -61 182 -61 q 196 -58 185 -61 q 208 -55 207 -56 q 216 -53 208 -54 q 224 -50 224 -51 q 226 -49 224 -49 q 260 -39 228 -49 q 317 -16 293 -29 q 342 -4 340 -3 q 349 -1 343 -6 q 357 3 354 3 q 380 19 360 3 q 410 47 400 36 q 422 57 421 57 l 444 76 l 461 93 q 469 101 463 94 q 478 114 475 107 l 483 126 q 488 140 489 140 q 490 144 488 140 q 492 150 492 149 q 496 158 493 151 q 498 167 499 165 q 508 193 497 169 q 518 256 538 260 q 488 242 515 254 q 381 211 418 206 q 356 215 378 213 q 318 226 335 218 q 290 236 301 233 q 235 254 250 243 q 212 272 221 265 q 194 290 203 279 q 180 306 185 300 q 163 330 175 311 q 151 349 151 349 q 149 357 151 350 q 144 369 146 364 q 137 386 143 374 q 127 408 131 399 q 121 421 124 418 q 111 486 111 432 q 174 703 111 619 q 192 724 189 724 l 207 736 m 444 677 q 443 677 444 677 q 441 679 443 678 q 439 682 439 681 q 428 688 439 683 q 406 694 418 693 q 389 696 394 694 q 373 696 383 697 q 351 694 363 694 q 321 688 340 694 q 275 650 288 675 q 265 639 272 647 q 246 607 258 631 q 232 574 233 583 q 231 560 231 565 q 228 543 231 556 q 240 422 215 479 q 244 413 243 415 q 251 401 244 411 q 259 385 257 390 q 263 376 261 379 q 264 373 264 374 q 270 364 264 372 q 278 356 276 356 q 283 353 281 356 q 290 349 286 350 q 300 343 293 347 q 310 339 307 339 q 315 338 308 342 q 365 325 336 324 q 435 343 407 326 q 439 346 439 346 l 440 346 q 461 361 461 353 q 471 372 461 363 q 525 553 542 444 q 519 577 522 568 q 517 587 517 586 q 517 590 518 588 q 515 598 517 593 q 511 607 513 603 q 503 619 506 618 q 499 622 500 621 q 494 627 499 622 q 481 644 490 632 q 458 667 472 657 q 444 677 444 676 z "},"a":{"ha":760,"x_min":92,"x_max":754,"o":"m 169 290 l 194 311 q 215 324 194 314 q 295 353 263 347 q 335 359 328 358 q 347 361 342 360 q 360 363 360 363 q 383 365 358 357 l 385 365 q 413 370 399 368 q 430 372 426 372 q 451 375 433 372 q 471 378 468 378 l 478 378 l 493 381 l 497 383 q 499 389 499 386 l 497 390 q 497 410 499 408 q 494 415 494 413 q 482 453 494 435 q 418 497 457 488 q 403 503 407 500 q 391 504 399 506 q 360 503 383 503 q 317 493 338 503 q 309 461 304 489 q 296 406 314 433 q 235 369 274 372 l 201 375 q 168 394 186 378 q 146 494 126 436 q 192 553 157 524 q 198 557 197 557 q 201 560 199 557 q 209 566 204 563 q 213 572 214 569 q 253 593 213 575 q 330 613 294 611 q 365 614 365 615 q 393 612 365 613 q 423 610 421 611 q 438 608 425 608 q 514 581 475 607 q 558 544 553 554 q 567 533 563 533 q 586 503 571 533 q 606 443 601 472 q 608 405 610 414 q 606 384 606 396 q 608 372 607 372 q 609 253 610 371 q 610 128 608 136 q 614 110 613 119 q 628 90 617 93 q 658 101 640 86 q 724 113 694 131 q 754 63 754 94 q 743 29 754 47 q 681 -22 719 -7 q 624 -32 643 -37 q 597 -26 606 -26 q 573 -18 589 -26 q 544 2 557 -10 q 524 13 531 14 q 508 8 518 13 q 490 0 499 4 q 472 -7 481 -4 q 451 -16 463 -10 q 403 -31 440 -22 q 183 -8 272 -61 q 151 15 154 8 q 144 26 149 21 q 131 46 140 32 q 118 63 121 60 q 108 82 115 65 q 99 117 101 99 q 94 135 96 135 q 95 173 92 136 q 115 235 99 210 q 133 259 132 260 q 140 264 135 258 q 145 269 144 269 q 149 272 146 269 q 161 281 153 275 q 169 290 169 288 m 488 126 q 497 138 497 126 q 499 161 497 149 q 496 192 499 167 l 497 204 l 497 197 q 500 230 500 199 q 494 265 500 261 q 483 265 488 268 q 469 262 479 263 q 456 260 460 261 q 446 259 451 260 q 422 256 440 258 q 397 253 404 254 q 378 251 389 253 q 360 248 367 249 q 351 247 354 247 l 349 247 q 347 248 350 249 q 334 247 343 247 q 317 243 325 246 q 304 238 308 240 q 290 232 300 235 q 218 176 240 217 q 208 140 206 157 q 215 118 211 124 q 224 99 222 99 q 235 92 226 99 q 276 72 256 76 q 303 72 294 69 q 467 117 381 68 q 475 120 472 121 q 482 123 478 119 q 488 126 486 126 z "},"b":{"ha":760,"x_min":33,"x_max":697,"o":"m 103 679 q 43 722 58 683 q 56 770 33 749 q 101 792 78 792 q 190 792 190 794 q 199 788 190 790 q 212 783 207 785 q 217 781 217 781 q 229 769 218 785 q 244 706 253 742 q 239 642 236 663 q 242 615 242 621 q 244 605 243 608 q 246 590 244 601 q 251 575 247 579 q 289 590 254 571 q 340 608 324 608 q 361 613 357 608 q 393 617 365 617 q 479 606 456 617 q 492 603 483 604 q 539 583 500 603 q 608 525 578 563 q 624 509 613 521 q 642 481 635 497 q 658 451 650 465 q 685 372 669 432 l 686 340 q 688 302 686 308 q 690 291 689 296 q 693 274 690 286 q 690 207 697 249 q 675 150 682 165 q 668 132 668 135 q 649 94 668 124 q 594 29 614 39 q 576 16 590 28 q 547 -3 563 4 q 526 -15 531 -10 q 436 -43 506 -37 q 404 -44 410 -44 q 388 -44 399 -44 q 372 -40 376 -43 q 347 -33 368 -36 q 274 0 311 -29 q 263 7 269 3 q 247 17 256 11 q 234 24 238 24 q 222 8 231 24 q 178 -21 208 -19 q 139 -5 156 -22 q 121 24 122 13 q 120 35 119 35 q 123 45 121 36 q 127 56 125 54 q 130 63 129 58 q 132 69 131 68 q 137 97 138 79 q 135 115 136 115 q 135 122 135 115 q 134 132 136 128 q 132 189 132 136 l 132 243 q 135 265 135 249 q 135 285 135 282 l 132 288 q 132 332 132 285 l 133 357 l 135 358 q 137 403 136 365 q 135 443 138 440 q 132 546 132 446 l 135 561 q 136 572 135 565 q 135 593 138 579 q 133 608 133 607 q 132 630 132 608 q 131 658 132 651 q 103 679 126 676 m 561 388 q 494 474 535 447 q 450 498 475 488 q 399 504 425 508 q 366 500 372 500 q 344 492 360 500 q 320 477 328 483 q 303 465 313 471 q 271 414 275 446 q 267 404 269 411 q 249 282 246 351 q 249 256 249 261 q 253 226 250 251 q 321 101 261 150 q 344 86 333 92 q 356 78 354 81 q 360 75 357 76 q 369 71 364 74 q 376 68 375 68 q 383 65 376 68 q 423 63 401 56 q 446 70 444 69 q 451 72 447 71 q 458 75 456 74 q 460 77 460 76 q 478 85 460 78 q 519 115 497 93 q 572 203 561 160 q 581 276 582 247 q 580 310 581 306 q 581 313 579 314 q 576 357 581 349 q 569 372 572 365 q 566 377 567 378 q 561 388 565 376 z "},"c":{"ha":760,"x_min":106,"x_max":664,"o":"m 258 578 q 369 615 317 613 q 424 614 421 617 q 441 608 428 611 q 456 606 454 606 q 463 604 457 606 q 475 603 469 603 q 515 590 492 603 q 549 572 539 578 q 582 546 560 567 q 632 433 632 501 q 635 414 632 426 q 633 370 640 388 q 624 347 625 353 q 607 328 622 342 q 572 310 592 315 q 547 304 551 306 q 479 331 519 292 q 456 390 453 356 q 457 394 456 394 q 461 407 458 394 q 471 428 464 419 q 479 438 478 438 q 485 442 481 438 q 491 446 489 446 q 499 451 493 446 q 504 460 504 457 q 493 474 501 469 q 476 485 485 479 q 454 494 468 490 q 433 499 440 499 q 406 502 425 500 q 362 497 388 504 q 319 480 336 490 q 298 469 303 469 q 291 464 293 468 q 277 447 289 460 q 258 423 265 435 q 246 407 250 411 q 239 397 242 403 q 232 385 236 392 q 226 367 228 379 q 224 353 225 356 q 224 339 224 350 q 222 318 224 328 q 221 295 221 308 q 219 275 221 282 q 222 258 218 268 q 230 234 226 247 q 239 206 233 221 q 245 187 244 192 q 247 178 246 182 q 251 173 249 175 q 253 172 253 171 q 256 169 254 172 q 260 163 257 167 q 269 150 264 158 q 329 94 294 115 l 331 92 q 351 81 343 82 q 369 77 360 79 q 388 73 379 75 q 401 69 397 71 q 437 68 411 65 q 474 76 463 71 q 485 83 485 82 q 486 83 486 83 q 489 85 486 83 q 492 86 492 86 q 497 89 493 86 q 501 93 501 92 q 508 99 501 94 q 516 106 514 103 q 529 122 518 110 q 539 135 540 133 q 542 145 538 138 q 553 170 546 153 q 575 201 561 188 q 606 215 589 214 q 625 214 624 217 q 636 205 626 211 q 653 184 646 199 q 661 164 661 169 q 662 135 664 149 q 645 95 660 122 q 624 61 631 68 q 609 42 618 54 q 585 19 600 31 q 569 8 569 8 q 563 6 568 8 q 549 -1 557 3 q 531 -11 540 -6 q 484 -28 506 -25 q 455 -34 463 -32 q 441 -37 447 -36 q 431 -39 435 -37 q 419 -40 426 -40 q 403 -42 413 -40 q 297 -18 360 -50 q 199 54 233 14 q 187 69 193 63 q 178 80 181 76 q 175 85 176 83 q 174 89 174 88 q 171 96 175 90 q 167 104 167 101 q 160 116 167 107 q 149 133 153 125 q 141 145 144 142 q 126 185 138 149 q 115 228 114 221 q 115 240 117 235 l 110 264 q 108 326 106 292 q 113 363 111 360 q 117 372 115 367 q 117 378 118 378 q 128 421 115 379 q 203 536 146 479 q 219 549 218 550 q 230 556 221 549 q 238 565 239 564 q 258 578 238 567 z "},"d":{"ha":760,"x_min":81,"x_max":738,"o":"m 421 789 q 511 793 432 793 q 600 789 590 793 q 642 725 639 774 q 641 699 643 704 q 639 683 639 693 q 640 670 639 672 q 642 595 642 668 q 640 519 642 522 q 637 484 636 504 q 639 463 638 464 q 641 458 640 461 q 642 317 642 454 q 639 172 642 179 q 637 140 633 153 q 641 126 640 128 q 642 111 642 124 q 675 82 642 85 q 695 77 692 79 q 702 76 699 75 q 717 65 706 76 q 736 36 728 53 q 688 -31 738 -18 q 649 -32 683 -32 q 608 -31 614 -32 q 585 -30 603 -29 q 558 -23 568 -31 q 540 -5 549 -15 q 524 5 531 6 q 489 -12 518 4 q 421 -37 460 -29 q 372 -44 382 -46 q 360 -42 363 -42 q 353 -40 358 -42 q 334 -39 349 -39 q 311 -36 319 -39 q 295 -31 303 -33 q 278 -25 288 -29 q 258 -15 269 -21 q 240 -6 247 -10 q 222 3 233 -3 q 203 12 210 8 q 194 15 197 15 q 167 39 190 15 q 106 132 128 79 q 83 210 85 185 q 82 237 81 236 q 83 250 83 238 q 85 277 83 263 q 86 313 88 292 q 86 344 85 333 q 88 357 88 354 l 88 360 q 86 360 86 358 q 89 371 86 361 q 107 428 94 403 q 118 453 119 453 q 119 458 117 453 q 163 524 136 493 q 197 557 190 554 q 205 563 204 560 q 244 588 206 565 q 357 617 292 615 q 361 615 361 617 q 369 614 361 614 q 378 613 376 614 q 384 612 379 613 q 394 610 389 611 q 409 609 400 610 q 425 608 418 608 q 433 607 432 607 q 476 593 440 611 q 517 575 513 575 q 524 576 522 575 q 528 600 525 578 q 533 632 532 622 q 534 646 533 642 q 535 660 535 650 q 532 676 536 669 q 499 683 528 683 q 464 681 471 683 q 400 697 426 671 q 384 752 371 725 q 421 789 397 779 m 464 464 q 351 503 414 510 q 308 491 325 500 q 283 480 290 482 q 261 466 276 478 q 240 446 246 454 q 231 431 235 438 q 226 417 226 424 q 217 396 225 411 q 206 369 208 381 q 200 350 203 357 q 194 313 196 338 q 190 286 192 288 q 189 268 189 285 q 192 231 189 233 q 203 200 196 228 q 243 128 214 157 q 335 72 290 81 q 347 69 344 71 q 355 67 350 67 q 360 66 360 67 q 372 65 360 65 q 414 72 397 64 q 434 81 431 79 q 441 84 438 82 q 447 86 444 86 q 471 107 450 86 q 492 133 492 128 q 495 141 493 138 q 497 146 497 144 q 499 152 497 147 q 501 161 501 157 q 508 178 501 165 q 526 281 524 215 q 464 464 529 407 z "},"e":{"ha":760,"x_min":88,"x_max":704,"o":"m 436 613 q 472 608 436 618 q 636 511 572 583 q 672 460 664 481 q 683 432 679 440 q 694 397 688 424 q 701 357 701 371 q 701 304 704 321 q 683 274 697 288 q 658 257 669 260 q 528 254 646 254 q 383 258 407 254 q 335 263 360 261 q 305 266 311 265 q 278 265 299 267 q 246 261 258 263 q 211 256 217 260 q 210 206 199 247 q 237 150 221 165 q 254 135 253 135 q 265 124 256 135 q 294 99 275 114 q 446 72 353 50 q 540 117 497 86 q 593 153 582 147 q 653 139 626 171 q 667 90 675 114 q 619 35 660 65 q 601 22 606 25 q 590 16 596 19 q 580 13 583 13 q 554 -1 576 13 q 488 -31 515 -25 q 456 -38 461 -36 q 440 -42 451 -40 q 422 -45 428 -43 q 397 -47 417 -47 q 369 -44 378 -47 q 354 -43 361 -42 q 249 -8 313 -44 q 224 8 231 3 q 215 15 217 14 q 213 17 213 17 l 210 19 q 196 31 208 19 q 181 45 183 42 q 172 54 178 49 q 99 196 124 108 q 88 264 89 231 q 88 299 88 297 q 90 306 89 300 l 89 314 l 90 343 l 93 353 l 94 354 q 98 367 96 357 q 101 378 100 376 q 105 389 103 381 q 110 402 107 397 q 115 415 113 407 q 119 424 118 422 q 125 435 121 425 q 131 445 129 444 q 133 448 132 446 q 139 456 135 450 q 147 468 143 463 q 155 478 151 474 q 160 485 158 482 q 165 494 163 489 q 168 499 168 499 q 171 502 168 499 q 174 507 174 506 q 180 516 174 510 q 185 522 186 522 l 199 538 l 211 547 q 219 557 222 557 l 256 579 q 299 597 278 590 q 319 603 319 604 q 326 603 319 601 q 349 606 333 604 q 372 608 364 607 q 408 610 379 610 q 436 613 436 611 m 379 368 l 465 367 q 468 367 468 367 q 515 368 468 368 q 567 371 561 368 q 540 444 596 382 q 538 449 536 449 q 534 456 540 450 q 528 463 528 463 q 522 468 528 463 q 493 485 506 483 q 464 493 481 488 q 286 463 374 524 q 251 431 265 449 q 238 415 238 414 q 229 406 232 417 q 223 386 226 396 q 228 372 219 376 q 243 368 236 368 q 251 366 250 368 q 265 365 251 364 q 282 367 279 365 l 281 367 l 363 368 l 379 368 m 325 367 q 325 368 325 367 l 325 367 z "},"f":{"ha":760,"x_min":103,"x_max":704,"o":"m 472 813 q 478 811 478 813 q 485 809 478 810 q 497 808 493 808 q 512 805 500 807 q 533 800 524 803 q 560 796 543 797 q 611 779 590 790 q 638 766 632 768 q 647 762 643 764 q 654 758 650 760 q 666 750 658 756 q 675 746 674 744 q 690 729 676 747 q 703 711 703 711 q 704 667 704 711 l 704 622 q 667 575 682 583 q 617 564 643 560 q 549 613 569 569 q 542 630 540 629 q 544 638 544 631 q 544 647 543 646 q 545 652 544 647 q 547 658 546 657 q 549 667 547 658 q 555 680 550 675 q 560 689 560 685 q 520 701 560 701 q 476 700 481 701 q 451 697 472 699 q 416 688 431 696 q 396 678 401 679 q 382 665 390 676 q 369 640 374 653 q 364 614 364 626 q 367 601 364 601 q 369 603 369 601 q 368 610 369 604 q 388 597 376 601 l 418 597 q 467 592 457 596 q 490 576 478 589 q 507 543 503 564 q 492 504 511 522 q 462 485 474 486 q 419 483 450 483 q 379 480 388 483 q 365 463 371 476 l 364 433 q 363 401 364 404 q 361 390 363 399 q 361 374 360 382 q 363 364 363 365 q 364 232 364 361 q 368 96 364 103 q 378 86 372 89 q 406 83 385 83 q 428 80 426 82 q 446 78 429 78 l 453 79 q 476 71 465 79 q 486 61 486 63 q 490 54 486 60 q 498 12 506 32 q 476 -19 490 -8 q 453 -31 463 -29 q 411 -32 444 -32 q 365 -32 378 -32 q 328 -30 342 -32 q 303 -26 315 -28 q 288 -24 290 -25 q 271 -26 285 -24 q 244 -28 257 -28 q 226 -31 232 -29 q 189 -33 221 -32 q 144 -24 157 -33 q 122 47 103 8 q 128 60 125 51 q 200 82 136 82 q 236 85 228 82 q 247 99 244 89 q 250 134 250 108 q 250 165 250 160 q 251 175 250 171 q 252 181 251 182 q 253 184 253 181 q 253 192 253 188 q 251 199 253 196 q 250 317 250 201 q 247 468 251 460 q 210 483 239 483 q 171 486 181 483 q 136 510 150 490 q 125 542 122 529 q 130 556 128 554 q 135 565 132 558 q 142 573 139 571 q 150 579 144 575 q 193 590 164 592 q 250 600 246 588 q 252 615 254 613 q 251 619 250 618 q 254 640 251 619 q 288 728 261 694 q 351 783 315 761 q 472 813 397 813 z "},"g":{"ha":760,"x_min":72,"x_max":764,"o":"m 154 253 q 150 283 164 253 q 129 421 117 351 q 131 439 132 436 q 133 449 131 442 q 210 565 153 519 q 372 617 281 622 q 419 608 396 615 q 444 599 442 601 q 460 588 446 596 q 490 565 475 579 q 510 550 506 550 q 524 559 515 550 q 536 570 533 568 q 539 573 539 572 q 547 578 539 574 q 556 586 554 583 l 581 600 l 581 601 q 606 610 585 604 q 630 615 626 615 q 636 613 633 614 q 661 611 639 613 q 738 572 710 608 q 758 519 758 547 q 725 449 758 474 q 674 424 693 424 q 610 457 638 425 q 594 467 600 467 q 583 431 576 467 q 578 314 596 365 q 573 297 576 308 q 555 261 569 285 q 524 222 540 238 q 503 204 508 207 q 474 186 485 196 q 457 172 464 176 q 446 164 450 168 q 474 151 436 154 q 488 149 483 150 q 503 148 493 149 q 514 146 513 147 q 521 144 519 142 q 536 143 522 146 q 644 114 604 132 q 684 93 683 96 q 693 84 685 90 q 712 68 701 78 q 725 56 722 58 q 751 19 742 44 q 761 -13 761 -6 q 762 -25 761 -21 q 763 -47 763 -29 q 764 -69 764 -64 q 758 -97 764 -75 q 734 -141 751 -119 q 713 -165 717 -162 q 702 -172 710 -167 q 685 -181 694 -176 q 672 -190 676 -186 q 653 -199 668 -193 q 635 -208 639 -206 q 626 -212 632 -210 q 616 -216 621 -214 q 608 -219 611 -218 q 586 -226 604 -221 q 465 -240 522 -244 q 440 -240 458 -239 q 368 -241 382 -243 q 322 -239 354 -239 l 290 -239 q 176 -199 214 -221 q 126 -162 139 -178 q 108 -141 113 -147 q 101 -131 104 -135 q 99 -126 99 -126 q 99 -122 100 -125 q 92 -111 97 -115 q 76 -58 81 -100 q 88 13 72 -15 q 105 42 103 42 q 113 49 107 42 q 128 67 118 57 q 138 92 144 85 q 135 96 136 92 q 132 115 135 100 q 129 136 129 129 q 131 201 124 181 q 154 253 150 253 m 431 474 q 279 472 353 536 q 238 385 238 436 q 281 294 238 335 l 286 289 q 292 281 281 289 q 308 269 304 274 q 336 260 313 264 q 418 275 392 249 q 422 278 419 276 q 428 283 425 281 q 435 290 431 286 q 440 296 439 293 q 447 304 442 299 q 461 325 464 324 q 465 340 458 326 q 469 417 482 375 q 459 440 464 433 q 456 448 454 447 q 456 451 457 449 q 447 463 453 457 q 440 467 442 468 q 438 467 439 467 q 431 474 438 468 m 281 163 q 247 167 254 174 q 245 149 239 160 q 267 138 251 138 q 294 144 282 139 q 310 142 297 142 q 328 147 324 143 q 325 154 333 150 q 307 159 317 158 q 291 162 297 160 q 282 165 285 164 l 281 164 l 281 163 m 464 37 q 457 37 464 37 q 444 38 450 38 q 431 41 439 39 q 417 41 424 43 q 406 39 411 39 q 394 38 401 39 q 369 37 388 38 q 338 33 350 36 q 303 31 314 31 q 257 22 272 29 q 232 9 242 14 q 215 -2 222 4 q 202 -15 208 -8 q 196 -25 196 -21 q 197 -25 196 -26 l 197 -28 q 196 -63 183 -44 q 226 -94 208 -82 q 267 -114 244 -107 q 290 -122 290 -121 q 299 -126 290 -124 q 308 -127 307 -128 q 310 -126 310 -126 q 400 -137 346 -137 q 455 -137 454 -136 q 469 -137 456 -137 q 485 -135 483 -137 q 490 -133 486 -133 q 528 -127 493 -133 q 583 -112 564 -121 q 603 -104 603 -103 q 611 -102 604 -106 q 619 -99 618 -99 q 623 -97 619 -99 q 629 -92 626 -94 q 631 -90 632 -90 q 637 -83 631 -89 q 644 -71 643 -76 q 643 -69 646 -68 l 643 -68 q 646 -29 656 -50 q 579 17 629 3 q 567 21 575 18 q 544 26 558 24 q 529 31 531 29 q 509 36 528 33 q 484 38 490 39 q 464 37 478 36 z "},"h":{"ha":760,"x_min":53,"x_max":768,"o":"m 421 603 l 440 607 q 452 609 451 607 q 479 608 453 611 q 617 529 567 597 q 640 481 635 504 q 646 452 646 458 q 647 441 646 446 q 647 411 647 436 q 649 385 647 386 q 651 295 651 383 q 650 201 651 207 q 649 190 649 196 q 651 147 650 185 q 653 104 651 110 q 690 81 656 83 q 722 67 706 79 q 735 -7 768 29 q 707 -26 721 -24 q 680 -29 693 -29 q 660 -30 667 -29 q 648 -30 654 -31 q 616 -29 642 -29 q 585 -31 590 -29 q 551 -32 579 -32 q 479 -29 490 -33 q 440 6 449 -19 q 465 72 425 46 q 498 82 476 81 q 528 89 519 83 q 537 105 536 94 q 538 194 538 115 q 539 345 538 331 q 540 367 540 360 q 541 376 540 375 q 542 390 542 376 q 541 410 542 404 q 539 424 540 415 q 526 458 538 447 l 526 457 l 526 456 q 463 496 510 488 q 360 474 418 503 q 342 465 344 465 q 331 460 340 465 q 313 447 321 456 q 300 432 304 438 q 283 413 296 426 q 258 363 258 385 q 256 338 257 342 q 253 311 254 333 q 253 276 251 289 q 253 225 254 264 q 252 178 251 186 q 253 157 253 171 q 256 133 254 143 q 257 115 257 124 q 258 103 257 106 q 260 92 258 100 q 278 78 260 81 q 316 63 308 72 q 329 49 324 54 q 338 8 350 26 q 316 -13 325 -11 q 298 -15 307 -15 q 278 -18 289 -15 q 261 -22 268 -21 q 239 -25 254 -22 q 211 -28 224 -28 q 194 -31 199 -29 q 149 -32 190 -32 q 97 -28 107 -32 q 76 -17 88 -25 q 65 -5 65 -8 q 61 8 64 -1 q 63 43 56 24 q 107 76 74 72 q 117 78 114 76 q 124 80 119 79 q 129 83 129 81 q 136 92 129 85 q 143 126 143 100 q 144 156 143 153 q 146 167 146 160 q 144 176 146 175 q 143 313 143 176 q 143 499 143 450 q 144 617 143 603 l 146 618 q 142 660 150 649 q 132 677 135 672 q 124 682 129 682 q 109 684 118 682 q 90 689 100 686 q 63 707 81 692 q 53 731 54 717 l 53 733 q 55 733 54 732 q 56 742 56 733 q 55 752 56 751 q 58 760 54 753 q 133 793 82 796 q 145 793 140 793 q 149 792 150 793 q 162 789 149 790 q 179 789 175 788 q 192 790 183 790 q 200 792 200 790 l 219 788 q 240 771 228 783 q 254 748 253 758 q 256 689 256 738 q 256 634 257 640 q 253 616 254 628 q 249 588 251 604 q 249 558 247 572 q 254 542 251 544 q 270 547 257 540 q 291 556 283 553 q 304 563 299 560 q 321 572 310 567 q 333 578 332 578 q 334 578 333 579 q 335 578 335 578 q 336 579 335 579 l 339 581 q 340 581 339 581 q 342 581 342 581 q 344 582 343 582 q 357 587 344 582 q 388 595 369 592 q 410 600 407 599 q 416 601 414 601 q 418 602 418 601 q 421 603 418 603 z "},"i":{"ha":760,"x_min":153,"x_max":649,"o":"m 347 783 q 451 775 404 811 q 492 697 492 744 q 478 648 492 669 q 455 619 465 626 q 433 607 444 613 q 419 599 421 601 q 421 596 417 597 q 435 588 428 593 q 449 576 442 583 q 461 558 457 569 q 465 491 465 546 q 463 426 465 436 q 461 395 460 415 q 464 372 463 375 q 466 239 465 368 q 467 103 467 110 q 476 89 468 96 q 485 82 483 82 q 490 81 488 82 q 503 78 492 79 q 520 76 515 76 q 538 74 525 75 q 551 74 550 74 q 563 72 551 74 q 585 67 575 69 q 606 67 594 65 q 646 43 643 69 q 648 39 647 40 q 647 38 649 38 q 646 36 646 38 q 644 33 646 35 q 642 31 642 32 q 642 29 643 29 q 636 28 636 29 q 635 26 636 26 q 631 26 633 26 q 628 11 628 25 q 583 -19 628 -12 q 566 -23 578 -21 q 551 -25 554 -25 q 538 -26 549 -25 q 517 -28 528 -28 q 503 -31 507 -29 q 451 -32 500 -32 l 401 -32 q 382 -28 393 -29 q 365 -27 371 -28 q 334 -27 358 -26 q 303 -28 310 -28 q 286 -29 297 -29 q 269 -31 275 -29 q 242 -32 264 -32 q 216 -31 221 -32 q 201 -28 211 -29 q 185 -24 192 -28 q 153 25 153 -8 q 158 47 153 39 q 165 60 163 54 q 178 72 167 65 q 192 78 190 78 q 263 82 196 82 q 337 85 329 82 q 348 95 344 89 q 352 124 351 101 q 353 147 353 146 q 356 167 360 156 q 351 274 351 178 q 353 370 351 369 q 355 376 354 371 q 357 390 356 382 q 356 415 358 399 q 353 432 354 432 q 351 449 351 432 q 343 476 351 467 q 314 485 335 485 q 286 488 293 486 q 268 488 279 490 q 226 486 257 486 q 186 490 196 486 q 171 501 176 494 q 165 507 165 507 q 161 513 165 507 q 154 542 154 524 q 172 582 154 567 q 176 588 176 586 q 192 594 176 590 l 221 596 l 249 593 q 292 591 256 588 q 342 595 328 594 q 356 599 356 596 q 343 610 356 603 q 317 634 331 618 q 300 665 303 650 q 295 682 297 679 q 293 696 293 685 q 292 708 293 707 l 292 707 l 290 707 q 294 728 289 719 l 294 725 q 300 736 297 731 q 317 763 307 754 q 326 772 326 772 q 330 774 326 772 q 334 776 333 776 q 337 778 335 776 q 340 780 339 779 q 347 783 340 781 z "},"j":{"ha":760,"x_min":92,"x_max":578,"o":"m 435 793 l 449 800 q 472 803 449 803 q 515 793 494 803 q 574 710 569 764 q 550 633 578 664 q 531 617 540 622 q 516 610 521 613 q 504 603 511 607 q 502 593 497 599 q 515 581 507 588 q 524 574 524 575 q 527 569 524 574 q 533 562 531 565 q 538 555 536 558 q 542 549 540 551 q 543 483 543 546 q 542 419 543 421 q 539 403 540 417 q 536 384 538 390 q 534 368 535 378 q 531 350 533 358 q 529 317 529 342 q 527 282 529 293 q 525 265 525 271 q 524 251 525 260 q 528 222 522 238 q 535 190 533 206 q 537 167 536 174 q 539 147 538 161 q 542 125 540 132 q 542 61 543 118 q 539 -5 542 4 q 536 -31 536 -14 q 493 -158 538 -93 q 482 -174 486 -171 q 475 -179 478 -176 q 463 -189 472 -182 q 441 -208 453 -196 q 418 -225 429 -219 q 403 -234 407 -231 q 378 -244 399 -237 q 313 -251 343 -254 q 276 -246 283 -249 q 268 -243 269 -243 q 267 -242 267 -243 q 256 -236 267 -242 q 203 -205 219 -221 q 172 -178 186 -189 q 135 -144 144 -158 q 122 -125 126 -131 q 113 -108 118 -119 q 103 -86 108 -97 q 96 -67 97 -75 q 94 -40 94 -58 q 93 -19 94 -21 q 94 -3 92 -18 q 147 76 106 49 q 153 79 151 81 q 159 81 154 78 q 167 84 164 83 q 175 86 171 85 q 204 88 179 88 q 231 86 229 88 q 238 84 232 85 q 251 79 243 83 q 262 76 260 75 q 278 63 264 76 q 300 11 300 39 q 269 -64 301 -31 q 238 -81 242 -78 q 249 -115 225 -90 q 321 -143 276 -142 q 335 -142 333 -143 q 351 -138 336 -142 q 383 -119 365 -135 q 401 -99 401 -103 q 405 -90 401 -96 q 409 -79 408 -83 q 415 -61 410 -75 q 428 35 428 -28 q 431 102 429 99 q 432 153 432 106 l 433 222 l 435 253 q 433 265 435 263 q 431 276 432 268 q 430 285 431 285 q 429 357 429 285 l 431 449 q 431 457 431 449 q 433 476 432 465 q 430 487 433 486 q 415 488 426 488 q 401 486 404 488 q 334 485 399 485 q 267 485 269 485 q 250 489 264 486 q 226 501 236 492 q 217 511 217 511 q 215 515 218 511 q 211 528 213 519 q 208 543 210 536 q 210 558 207 550 q 214 567 214 565 l 224 579 l 238 592 q 248 597 238 596 q 332 598 258 597 q 410 601 406 599 q 413 607 415 603 q 396 628 411 611 q 365 703 360 663 q 407 781 371 754 l 408 782 q 415 785 408 781 q 423 788 422 789 q 426 789 424 788 q 435 793 435 793 z "},"k":{"ha":760,"x_min":83,"x_max":736,"o":"m 447 60 l 457 67 q 461 68 458 67 q 466 70 464 69 q 469 72 468 71 q 473 74 469 72 q 476 76 476 75 q 480 76 476 76 q 483 83 483 76 q 476 103 483 90 q 464 126 468 117 q 451 148 460 135 q 440 167 443 161 q 433 178 438 172 q 418 202 428 185 q 403 228 408 219 q 395 242 399 236 q 390 249 392 247 q 386 250 389 250 q 358 226 379 250 q 331 198 338 203 q 322 188 325 193 q 313 179 318 183 q 306 170 308 175 q 299 160 303 165 q 290 124 290 149 q 299 92 290 100 q 328 82 307 83 q 365 68 350 81 q 389 17 394 46 q 374 -10 386 1 q 344 -29 357 -26 q 328 -31 331 -32 q 317 -28 326 -29 q 292 -26 308 -28 q 259 -26 275 -25 q 237 -28 243 -28 q 229 -31 231 -29 q 185 -32 228 -32 q 121 -24 128 -32 q 111 -17 121 -24 q 99 -3 101 -11 q 92 14 97 4 q 90 35 88 24 q 94 47 93 47 q 99 53 96 47 q 106 62 103 58 q 110 67 110 65 l 124 75 l 153 79 q 158 83 158 82 q 163 85 158 83 q 176 122 176 88 q 176 172 176 156 q 178 203 176 200 q 179 213 179 206 l 178 221 q 176 293 175 219 l 178 300 l 181 325 q 181 350 183 346 q 178 363 179 354 q 178 371 178 371 q 178 457 168 376 l 182 493 q 183 525 183 496 q 185 574 183 554 q 185 609 188 593 q 181 635 182 625 q 180 646 181 644 q 179 654 179 647 q 168 669 179 661 q 147 676 157 678 q 108 688 124 672 q 83 728 83 710 q 95 764 83 747 q 122 785 107 781 q 162 789 138 789 q 194 790 186 789 q 247 787 233 793 q 261 779 261 781 q 268 771 261 778 q 286 738 285 756 q 287 693 288 719 q 285 666 286 667 q 284 655 285 665 q 282 631 283 644 q 278 599 281 618 q 285 520 285 547 q 290 481 286 493 l 290 421 q 289 357 290 361 q 290 342 288 349 q 298 335 293 335 q 308 340 303 335 q 317 345 314 344 q 322 350 319 346 q 343 375 324 354 q 378 411 371 407 q 388 419 379 410 q 399 433 396 428 l 396 432 q 417 456 401 439 q 434 474 433 474 q 433 472 435 474 l 435 472 q 446 495 453 485 q 436 503 439 506 q 435 506 436 504 q 417 539 419 515 q 422 557 421 558 q 438 576 435 576 l 442 579 q 443 580 442 579 q 451 584 444 581 q 459 588 458 588 q 464 590 460 589 q 481 590 468 590 q 513 592 493 590 q 624 593 579 599 q 669 587 668 588 q 673 585 669 586 q 676 584 676 585 q 688 581 676 583 q 708 565 699 578 q 718 538 718 551 q 709 510 718 524 q 688 491 700 496 q 642 485 675 486 q 603 481 610 485 q 572 457 599 479 l 571 457 q 563 449 569 456 q 555 438 557 442 q 542 421 553 433 q 517 394 531 408 q 488 363 504 379 q 472 337 472 346 q 481 313 472 328 q 494 291 490 299 q 513 259 499 283 q 531 230 528 235 q 543 208 533 225 q 558 181 553 192 q 568 163 564 169 q 588 130 572 157 q 610 95 603 103 q 626 85 618 88 q 660 81 635 82 q 685 80 685 81 q 690 76 685 79 q 732 39 719 67 q 735 34 733 35 q 736 22 736 33 q 707 -22 736 -4 q 619 -19 692 -32 l 522 -19 q 469 -23 478 -26 q 460 -19 460 -19 q 453 -15 460 -19 q 446 -11 447 -11 q 438 -1 444 -11 q 435 46 422 21 q 437 49 436 50 q 442 54 438 49 q 447 60 447 60 z "},"l":{"ha":760,"x_min":114,"x_max":683,"o":"m 348 108 q 350 122 348 108 q 352 142 351 135 q 353 150 353 149 q 357 167 353 151 l 357 203 q 350 251 350 246 q 349 259 350 256 q 347 275 349 263 q 345 294 346 288 q 344 310 344 300 q 342 322 343 319 q 340 420 340 324 q 340 542 340 517 q 340 572 340 567 q 340 581 340 576 q 340 588 340 585 q 340 592 340 590 q 342 596 340 594 q 343 618 342 613 q 344 637 347 628 q 341 647 342 646 q 339 653 340 649 q 306 675 333 675 q 295 676 300 675 q 283 678 290 678 q 269 680 275 679 q 251 682 264 681 q 229 685 239 683 q 201 685 219 686 q 172 686 182 683 q 153 697 161 689 q 154 771 114 733 l 157 774 q 165 777 158 772 q 172 781 171 782 q 181 783 174 781 q 208 781 189 785 q 235 778 228 776 q 248 780 242 779 q 265 782 254 781 q 290 784 276 783 q 305 785 303 785 q 328 786 307 786 q 349 788 349 786 q 379 789 350 789 q 450 750 432 789 q 454 685 454 738 q 455 633 454 633 q 455 620 456 632 q 453 605 454 608 q 447 571 451 601 q 451 528 450 544 q 453 510 451 513 q 454 393 454 507 q 453 276 454 279 q 450 232 447 253 q 451 144 453 181 q 450 99 449 108 q 492 78 453 76 q 510 79 508 79 q 510 81 511 79 l 518 82 q 633 76 617 82 q 660 53 649 69 q 650 -14 683 18 q 615 -32 638 -26 l 408 -32 q 199 -31 201 -32 q 183 -28 196 -29 q 142 1 156 -22 q 144 53 125 31 q 177 78 164 75 q 230 82 190 82 q 273 81 269 82 q 288 78 276 79 q 306 78 299 78 q 337 78 329 75 q 348 108 344 82 z "},"m":{"ha":760,"x_min":8,"x_max":742,"o":"m 432 568 q 560 614 493 624 q 578 609 578 611 q 585 605 578 607 q 592 601 592 603 q 599 597 593 600 q 612 588 604 594 q 632 574 619 582 q 652 556 644 565 q 661 547 660 547 q 672 526 663 547 q 685 479 682 506 q 688 386 688 453 q 685 310 688 319 q 683 265 679 278 q 688 188 688 251 q 685 113 688 125 q 690 75 676 78 q 719 65 711 71 q 734 45 726 60 q 742 17 742 31 q 728 -10 742 4 q 693 -26 715 -24 q 667 -31 671 -29 q 617 -32 663 -32 q 558 -28 572 -32 q 529 -10 543 -25 q 512 4 515 6 q 500 -4 508 3 q 467 -25 483 -21 q 450 -31 451 -29 q 402 -32 449 -32 q 355 -31 356 -32 q 341 -28 354 -29 q 310 -22 328 -28 q 283 0 293 -15 q 269 15 272 15 q 263 6 267 14 q 214 -29 244 -24 q 205 -31 208 -29 q 147 -32 201 -32 q 61 -28 72 -32 q 24 28 22 -8 q 69 82 25 61 q 83 90 72 82 q 84 88 83 90 q 87 86 85 86 q 90 89 89 86 q 92 98 94 96 q 90 107 89 100 q 90 175 90 114 q 92 236 90 236 q 93 242 93 236 q 94 258 93 247 q 95 282 96 269 q 94 294 94 294 q 93 301 93 294 q 92 309 93 308 q 90 381 90 310 q 86 472 90 463 q 63 488 82 481 q 32 511 43 494 q 33 575 8 546 q 38 578 38 579 q 44 583 39 578 q 52 588 50 588 q 59 590 54 588 q 84 592 64 592 q 122 594 104 593 q 152 593 139 596 q 167 590 165 590 q 180 583 169 589 q 194 576 190 576 q 209 583 199 576 q 223 590 219 589 q 241 597 226 590 q 269 606 256 604 q 283 609 282 608 q 285 611 285 610 q 292 613 285 613 q 303 613 299 613 q 403 569 358 613 q 417 560 413 560 q 432 568 422 560 m 581 138 q 581 140 581 138 q 581 182 581 143 q 582 231 581 221 q 580 252 583 242 q 576 269 576 263 q 575 276 576 275 q 574 364 574 276 q 569 469 574 451 q 549 495 565 488 q 506 478 533 503 l 503 476 q 501 478 503 478 q 495 472 500 478 q 485 458 490 465 q 465 420 467 438 q 461 390 464 403 q 449 321 451 363 q 446 274 447 279 q 444 256 444 269 q 445 240 443 242 q 447 170 447 238 q 452 94 447 103 q 471 78 457 86 q 497 57 485 71 q 514 46 510 43 q 527 58 518 49 q 546 74 536 68 q 556 79 556 81 q 561 78 557 78 q 569 81 565 79 q 575 85 574 82 q 577 91 576 88 q 578 95 578 94 q 580 103 579 96 q 581 121 581 110 q 581 138 582 132 m 338 96 q 339 103 338 96 q 339 112 339 111 q 338 128 339 113 q 334 145 336 143 q 333 267 332 147 q 332 450 335 386 q 321 483 332 467 q 276 488 304 507 q 258 471 272 485 q 239 449 244 457 q 216 396 224 428 q 207 360 208 364 q 202 339 206 356 q 197 313 199 322 q 194 297 194 304 q 192 281 193 289 q 192 261 190 274 q 194 240 193 249 q 195 219 194 232 q 197 193 196 207 q 199 171 197 179 q 201 156 200 163 q 202 147 201 149 q 203 128 203 146 q 206 103 204 110 q 225 81 207 89 q 256 60 243 72 q 270 47 268 47 q 272 46 272 47 q 272 44 271 44 q 293 65 272 44 l 294 65 q 305 72 303 72 q 309 73 307 72 q 320 74 311 74 q 333 78 329 75 q 338 96 338 81 z "},"n":{"ha":760,"x_min":40,"x_max":743,"o":"m 149 179 q 149 179 149 179 q 149 219 149 179 q 149 258 149 258 l 151 269 l 149 276 q 147 375 149 276 l 147 378 l 149 435 q 150 436 150 433 q 150 463 154 449 l 149 465 q 116 490 142 486 q 75 508 90 493 q 58 545 57 529 q 60 562 58 561 q 67 573 63 563 q 74 583 72 583 q 83 589 76 583 q 100 596 90 594 q 112 598 110 597 q 127 599 114 599 q 140 600 140 600 l 140 601 l 168 600 q 224 593 213 599 q 254 539 256 578 q 258 526 254 526 q 270 535 261 526 q 283 547 279 544 q 286 551 286 550 q 294 556 286 551 q 299 563 301 561 q 549 593 435 649 q 579 574 571 582 q 600 556 588 567 q 625 521 613 546 q 638 487 638 496 q 640 472 639 478 q 643 401 650 440 q 633 352 636 363 q 631 341 629 342 q 632 340 632 340 q 634 331 632 339 q 639 307 636 324 q 643 284 642 290 q 644 274 644 278 q 646 262 644 269 q 648 245 647 254 q 650 232 649 236 q 651 166 651 228 q 656 97 651 104 q 681 82 661 83 q 721 67 708 79 q 736 11 743 44 q 706 -24 731 -15 q 687 -26 703 -25 q 670 -28 671 -28 q 656 -29 669 -29 q 640 -31 643 -29 q 610 -32 636 -32 l 582 -32 q 554 -32 569 -28 l 529 -32 q 474 -27 483 -32 q 453 -11 464 -22 q 443 50 422 18 q 496 79 463 81 q 507 79 506 79 l 506 81 l 508 82 q 532 93 526 82 q 538 148 538 104 q 538 211 538 192 q 540 284 538 282 q 544 304 542 286 q 549 335 546 322 q 552 351 551 347 q 549 377 553 356 q 544 406 544 399 q 540 424 543 414 q 537 437 538 433 q 534 444 536 440 q 528 457 532 449 q 516 474 524 465 q 506 486 508 482 q 438 506 489 513 q 402 494 415 503 q 376 478 389 485 q 360 468 363 472 l 361 468 q 360 467 365 469 l 340 454 l 342 456 q 326 446 335 453 q 304 429 318 439 q 263 382 271 407 q 262 329 263 379 q 259 270 261 279 q 259 252 257 261 q 261 197 261 243 q 260 147 261 151 q 259 133 260 142 q 258 124 258 125 q 256 115 257 124 q 254 92 256 107 q 257 76 253 78 q 276 76 261 74 q 300 78 292 78 q 310 80 308 78 q 326 72 311 82 q 349 44 342 61 q 343 -1 361 19 q 315 -25 325 -22 q 288 -28 306 -28 q 267 -30 271 -28 q 191 -32 263 -32 q 106 -30 119 -32 q 76 -11 92 -28 q 79 64 40 26 q 113 81 94 79 q 134 86 131 83 q 138 89 138 89 q 139 86 139 89 q 142 83 139 83 q 150 92 149 83 q 151 101 151 101 q 152 141 154 103 q 149 179 150 179 z "},"o":{"ha":760,"x_min":88,"x_max":704,"o":"m 219 563 l 239 578 q 276 594 239 581 q 338 610 313 607 q 367 613 364 613 q 408 613 379 614 q 440 609 438 611 q 450 606 442 607 q 462 603 458 604 q 467 603 465 603 q 468 603 468 603 q 470 604 468 604 q 491 600 472 604 q 547 576 510 596 q 586 551 583 557 q 601 539 589 544 q 629 513 613 533 q 681 425 678 454 q 683 413 681 422 q 688 390 686 403 q 693 368 690 378 q 697 281 704 322 q 694 235 693 258 q 694 199 696 213 q 691 179 692 186 q 685 158 690 172 q 681 144 681 144 q 665 113 681 143 q 622 54 649 78 l 621 54 q 610 44 618 53 q 601 35 601 36 q 586 19 601 29 q 567 4 571 8 q 431 -44 514 -33 q 288 -31 360 -54 q 258 -19 261 -22 q 250 -12 256 -15 q 244 -7 244 -8 q 233 -1 243 -6 q 215 9 222 4 q 208 13 208 14 q 192 24 207 13 l 175 40 l 175 42 q 167 52 174 44 q 160 60 160 60 q 157 66 160 61 q 153 74 154 71 q 146 83 151 76 q 136 96 140 89 q 126 111 132 103 q 119 126 121 119 q 110 146 117 132 q 103 169 104 160 q 99 190 101 179 q 97 203 97 200 q 95 211 96 207 q 94 218 94 215 q 94 228 94 221 q 93 247 93 235 q 91 274 93 258 q 89 296 89 289 q 88 306 89 303 q 89 326 88 310 q 100 388 94 388 q 103 400 101 388 q 108 418 106 413 q 110 428 110 424 q 115 440 111 432 q 118 452 118 449 q 127 472 118 456 q 151 508 136 489 q 171 528 167 528 q 183 538 175 529 q 192 545 192 546 q 206 553 193 544 q 219 563 219 563 m 203 357 l 197 290 q 225 164 197 211 q 232 152 229 157 q 239 142 235 147 q 247 132 243 136 q 256 122 250 128 q 261 115 263 115 q 268 104 254 115 q 331 67 306 75 q 406 63 369 54 q 410 63 407 63 q 415 64 413 64 q 418 65 417 64 l 433 71 l 472 85 q 524 117 506 99 q 542 135 542 136 l 544 135 l 560 151 l 563 156 q 571 165 569 163 q 573 168 572 167 q 574 171 574 169 q 576 172 575 172 q 576 173 576 172 q 582 180 576 174 q 590 199 588 186 q 593 225 592 211 q 594 259 594 257 q 593 286 593 261 q 585 359 593 340 q 576 383 578 378 q 573 391 574 389 q 573 394 572 393 q 571 401 574 394 q 567 414 568 408 q 550 437 565 419 q 529 458 535 454 q 516 467 524 463 q 502 474 508 472 q 491 479 496 476 q 481 484 486 482 q 463 492 476 486 q 431 500 450 499 q 353 500 364 506 q 328 490 343 494 q 270 462 299 483 q 233 424 242 440 q 215 399 224 407 q 205 379 207 390 q 203 365 203 368 q 203 357 203 363 z "},"p":{"ha":760,"x_min":31,"x_max":703,"o":"m 311 -206 q 310 -206 311 -206 l 311 -206 m 304 -217 q 314 -215 304 -215 q 304 -217 313 -217 m 47 -204 l 46 -199 q 47 -204 49 -203 m 244 572 q 248 567 244 572 q 257 563 251 563 q 290 579 263 563 q 353 606 317 596 q 392 613 390 615 q 401 610 394 610 q 413 610 407 611 q 437 607 418 610 q 474 595 456 604 q 497 586 493 586 q 535 571 513 583 q 565 551 558 551 q 601 533 571 551 q 653 478 631 514 q 666 458 657 471 q 681 424 675 446 q 689 394 688 401 q 694 376 690 388 q 699 349 697 365 q 701 328 700 333 q 701 315 701 322 q 701 303 700 307 q 701 281 701 299 q 697 223 703 244 q 689 189 690 201 q 687 176 688 176 q 685 165 686 175 q 678 141 685 154 q 668 117 672 128 q 658 99 664 107 q 650 85 653 90 q 624 49 632 54 q 606 36 615 43 q 551 -3 564 3 q 524 -17 538 -8 q 494 -33 511 -25 q 409 -47 458 -50 q 356 -40 360 -44 q 343 -33 353 -36 q 325 -24 333 -29 q 308 -17 317 -19 q 289 -10 300 -14 q 258 -11 261 3 q 256 -44 257 -15 q 254 -79 256 -72 q 253 -103 253 -86 q 256 -124 254 -121 q 281 -132 258 -128 q 314 -136 303 -136 q 353 -156 340 -136 q 360 -190 367 -175 q 346 -207 353 -204 q 337 -210 339 -210 q 335 -211 335 -211 q 333 -211 335 -211 q 329 -210 331 -211 q 319 -210 328 -210 q 298 -211 310 -211 q 279 -215 286 -211 q 238 -223 261 -222 q 202 -225 215 -224 q 160 -227 189 -226 q 107 -229 131 -228 q 59 -216 74 -231 q 44 -185 44 -201 q 44 -168 44 -168 q 46 -161 43 -168 q 113 -124 64 -124 q 143 -97 139 -124 q 143 -42 143 -92 q 144 10 143 8 q 146 26 146 13 q 147 40 146 39 q 148 81 147 40 q 149 125 149 121 q 151 143 150 129 q 151 183 153 171 q 149 201 149 194 q 148 229 147 222 q 147 260 149 236 q 144 285 146 283 q 143 368 143 288 q 145 452 143 449 q 146 465 147 456 q 146 476 144 475 q 144 483 147 478 q 114 490 139 493 q 78 494 89 488 q 57 567 31 526 q 88 594 72 589 q 105 597 104 599 q 114 595 106 596 q 131 593 122 594 q 153 593 139 592 q 209 593 197 597 q 222 590 221 589 q 226 589 222 592 q 244 572 236 582 m 418 67 q 435 66 426 67 q 444 67 444 65 q 454 72 444 69 q 481 82 464 74 q 543 135 517 99 l 550 140 q 556 146 551 138 q 561 153 561 154 q 569 168 571 168 q 571 172 568 168 q 574 185 578 186 l 574 186 q 588 344 603 261 q 556 424 579 392 q 551 431 551 431 q 549 434 551 432 q 549 440 547 436 q 535 460 550 443 q 513 482 519 476 q 462 503 489 501 q 434 504 435 504 q 417 501 433 504 q 311 449 357 496 q 299 438 300 438 q 297 435 299 439 q 290 423 290 426 q 281 400 289 419 q 267 358 272 381 q 261 321 263 335 q 258 299 260 307 q 255 284 256 292 q 253 274 254 276 q 251 234 253 271 q 251 194 250 197 q 258 181 253 190 q 268 163 263 172 q 291 131 279 143 q 304 119 303 119 q 317 109 306 119 q 351 83 328 99 q 418 67 375 67 m 319 -208 q 315 -204 318 -207 q 307 -204 311 -201 q 294 -211 303 -207 q 319 -208 317 -208 z "},"q":{"ha":760,"x_min":79,"x_max":747,"o":"m 320 606 q 324 607 320 606 q 328 609 328 608 q 338 610 329 610 q 367 610 346 611 q 400 608 388 610 q 422 606 413 607 q 458 597 432 606 q 505 574 483 589 q 534 555 526 558 q 551 564 542 551 q 600 592 572 593 q 611 590 608 592 q 617 588 614 588 q 632 578 619 589 q 650 515 665 550 q 648 512 649 513 q 644 501 647 511 q 642 487 642 492 q 642 467 643 482 q 642 403 642 451 l 640 354 q 636 326 636 329 q 635 315 636 324 q 636 279 633 304 l 639 243 q 641 74 640 243 q 642 -102 642 -96 q 651 -117 643 -108 q 678 -125 660 -125 q 722 -140 707 -125 q 740 -186 747 -165 q 708 -232 729 -221 q 572 -238 694 -239 q 440 -236 450 -237 q 393 -203 408 -232 q 397 -156 379 -175 q 427 -131 414 -136 q 471 -126 440 -125 q 523 -121 515 -129 q 531 -95 531 -112 q 529 -75 531 -78 q 528 -40 528 -72 q 523 -6 528 -8 q 506 -8 518 -4 q 493 -12 494 -12 q 476 -20 492 -12 q 451 -31 460 -28 q 432 -35 442 -33 q 408 -39 422 -36 q 380 -40 394 -42 q 341 -38 365 -39 q 313 -37 317 -37 q 304 -35 310 -36 q 290 -33 299 -35 q 278 -31 282 -31 q 254 -22 274 -31 q 228 -9 235 -14 q 214 1 222 -4 q 133 86 176 24 q 119 113 119 107 q 113 133 118 119 q 106 148 107 147 q 94 177 104 149 q 81 240 83 206 q 80 275 79 274 q 81 283 81 276 q 83 294 82 289 q 83 313 83 300 q 81 327 82 326 q 81 339 79 328 q 119 468 88 404 q 218 572 151 532 q 240 583 235 582 q 255 588 246 585 q 265 592 264 592 q 283 597 267 592 q 301 602 300 603 q 306 603 301 601 q 312 604 311 604 q 320 606 313 604 m 367 501 q 315 496 332 511 q 308 493 314 496 q 297 486 301 490 q 276 472 293 482 q 249 449 260 461 q 232 432 239 438 q 224 421 225 426 q 213 397 222 415 q 201 363 204 378 q 195 338 197 349 q 193 294 193 328 q 201 217 192 246 q 210 184 210 189 q 213 170 210 179 q 219 156 217 161 q 225 147 222 151 q 233 136 228 142 q 242 125 239 131 q 257 110 246 119 q 273 99 268 100 q 288 91 278 97 q 300 83 297 85 q 308 77 303 82 q 329 68 313 72 q 347 66 346 64 q 372 67 347 68 q 424 80 397 67 q 459 101 451 93 q 469 108 467 108 q 476 112 471 107 q 483 117 481 117 q 494 128 485 117 q 506 144 503 140 q 516 165 510 147 q 524 195 522 182 q 526 210 526 208 q 528 222 526 211 q 529 257 529 247 l 529 285 q 528 319 529 314 q 528 336 528 325 q 519 380 526 363 q 511 399 511 397 q 506 408 511 400 q 500 418 501 417 q 495 425 499 419 q 490 431 492 431 q 485 435 489 431 q 469 455 482 439 q 429 484 456 471 q 387 499 403 497 q 367 501 371 500 z "},"r":{"ha":760,"x_min":75,"x_max":743,"o":"m 619 324 q 544 392 560 336 q 544 436 538 417 q 551 456 550 456 q 558 461 553 456 q 569 473 563 467 q 576 479 575 479 q 581 482 576 479 q 579 500 603 496 q 559 499 567 503 q 538 493 551 496 q 483 470 506 483 q 458 456 461 457 q 448 450 454 454 q 428 440 442 446 q 397 415 415 433 q 380 397 379 397 q 369 385 381 396 q 353 367 357 374 q 348 347 349 360 q 347 222 347 335 q 352 96 349 104 q 364 85 356 88 q 405 82 372 82 q 453 77 438 82 q 472 64 468 72 q 479 51 476 56 q 483 32 482 46 q 464 -17 488 1 q 456 -25 460 -21 q 385 -32 447 -32 q 321 -30 324 -32 q 310 -30 318 -28 q 238 -32 301 -32 q 159 -31 174 -32 q 132 -22 144 -29 q 119 -12 119 -14 q 115 -3 119 -10 q 109 26 106 11 q 114 44 113 42 q 119 51 115 46 q 126 61 122 57 q 131 66 131 65 q 135 69 131 67 q 140 73 140 72 q 147 76 139 74 q 153 79 154 78 q 154 81 153 81 q 185 81 156 81 q 222 87 214 82 q 231 99 229 92 q 233 163 233 107 l 235 238 l 235 244 q 233 349 233 246 q 235 453 233 453 q 237 469 236 454 q 236 486 238 483 q 160 490 231 500 q 119 494 132 486 q 93 521 106 503 q 108 582 75 550 q 151 598 125 597 q 178 597 176 599 q 188 595 181 596 q 197 594 194 594 q 228 593 214 590 q 245 595 246 594 q 253 596 244 596 q 261 597 261 596 q 288 598 264 601 q 326 581 313 594 q 343 559 340 568 q 347 542 346 550 q 350 532 349 535 q 374 535 354 522 q 404 557 393 549 q 431 572 431 574 q 439 573 432 569 q 448 578 446 576 q 449 581 450 579 q 469 590 447 582 q 503 602 492 597 q 531 610 515 607 q 654 590 600 621 q 735 482 718 554 q 735 460 736 472 q 738 444 735 449 q 734 412 743 433 q 720 381 725 390 q 703 362 715 372 q 681 342 692 351 q 661 331 671 333 q 646 325 651 328 q 619 324 636 321 z "},"s":{"ha":760,"x_min":135,"x_max":672,"o":"m 258 285 q 247 289 247 289 q 258 285 247 292 m 228 585 q 356 618 275 617 q 384 615 378 618 q 406 609 390 613 q 438 597 422 606 q 457 588 453 589 q 465 587 461 588 q 473 585 468 586 q 498 576 478 585 q 522 570 518 568 q 528 576 526 572 q 533 582 531 579 q 536 585 536 585 q 542 590 536 586 q 548 596 547 594 q 560 603 549 597 q 607 588 583 614 q 626 544 631 561 q 624 513 621 526 q 628 451 628 499 q 621 386 628 404 q 597 361 614 368 q 532 372 560 343 q 515 400 519 385 q 512 417 511 415 q 508 424 513 418 q 497 442 503 431 q 485 460 492 454 q 469 478 479 467 q 443 497 458 489 q 420 510 428 504 q 403 519 413 515 q 377 519 378 519 q 360 518 376 519 q 300 506 317 514 q 253 446 256 482 q 254 435 251 442 q 260 421 257 429 q 324 371 264 400 q 338 363 332 367 q 346 358 344 358 q 347 358 347 358 q 350 356 346 357 q 392 343 386 338 q 395 344 393 344 q 399 344 397 343 q 401 344 400 344 q 417 344 401 344 q 445 342 432 343 q 471 339 458 340 q 490 336 483 338 q 500 335 496 335 l 519 332 q 545 326 519 333 q 586 308 571 319 q 614 287 601 296 q 638 259 626 278 q 652 231 650 240 q 657 223 654 222 q 665 204 660 224 q 672 169 671 185 q 672 152 672 153 q 670 127 672 151 q 647 63 668 103 q 579 -10 626 22 q 533 -33 547 -32 q 510 -36 518 -35 q 499 -37 503 -37 q 467 -39 483 -40 q 439 -37 451 -37 q 393 -40 407 -42 q 374 -37 379 -37 q 363 -34 369 -36 q 349 -32 357 -32 q 319 -22 342 -32 q 282 -1 296 -11 q 253 10 258 14 q 246 -3 249 6 q 233 -24 243 -12 q 196 -43 218 -43 q 163 -36 174 -43 q 144 -15 153 -29 q 135 44 135 -1 q 138 90 136 90 q 139 104 139 90 q 137 121 139 118 q 135 161 135 124 q 138 210 135 199 q 157 238 142 221 q 203 252 179 261 q 235 230 226 243 q 251 203 244 217 q 314 118 275 153 q 319 113 319 114 q 329 103 318 108 q 349 92 340 99 q 372 81 358 86 q 388 73 385 75 q 399 69 390 71 q 413 64 407 67 q 430 60 418 61 q 449 59 442 58 q 459 60 457 60 q 466 63 461 61 q 471 65 471 64 q 478 67 471 65 q 485 70 485 68 q 499 77 486 72 q 529 99 513 82 q 546 186 579 144 q 514 215 532 207 q 476 227 496 222 q 451 235 457 232 q 435 242 446 238 q 413 250 424 246 q 384 257 403 254 q 359 261 365 260 q 344 264 353 263 q 336 265 336 265 q 322 269 336 265 q 300 274 307 272 q 280 280 293 276 q 253 289 267 283 q 235 295 240 294 q 205 313 231 296 q 163 358 179 329 q 154 374 160 365 q 144 401 149 382 q 140 440 140 421 q 144 483 140 460 q 170 535 149 507 q 196 564 192 564 q 206 568 200 564 q 214 574 211 572 q 217 575 217 575 q 219 577 217 575 q 224 581 221 579 q 228 585 228 585 z "},"t":{"ha":760,"x_min":117,"x_max":661,"o":"m 564 213 l 567 221 q 568 223 567 221 q 570 226 569 225 q 574 233 571 226 q 590 247 578 240 q 612 253 603 253 q 636 244 621 253 q 661 204 661 229 q 653 140 661 161 q 643 113 644 119 q 637 97 642 106 q 629 82 632 88 q 622 70 626 76 q 610 54 617 64 q 598 40 604 44 q 585 28 592 35 q 572 18 578 22 q 554 1 565 14 q 468 -40 528 -26 q 447 -42 454 -43 q 419 -40 440 -40 q 385 -35 399 -39 q 366 -31 372 -32 q 337 -19 360 -31 q 294 17 314 -7 q 269 50 274 40 q 254 79 264 60 q 239 201 239 111 q 240 294 239 292 q 242 307 242 297 l 242 331 l 242 360 q 241 370 242 364 q 240 377 240 376 q 238 417 239 378 q 238 460 238 456 q 224 480 235 476 q 190 483 214 483 q 145 495 158 483 q 118 532 132 507 q 154 592 117 575 q 190 597 164 596 q 223 600 215 597 q 235 612 231 603 q 239 676 239 621 q 241 748 238 743 q 246 756 244 753 q 249 763 249 763 q 253 767 250 763 q 259 774 257 772 q 261 777 261 776 q 267 782 261 778 q 272 788 272 786 q 286 794 272 790 q 312 791 300 797 q 324 783 324 785 q 332 774 325 782 q 347 733 344 761 q 351 704 350 704 q 351 669 351 704 q 356 612 353 619 q 375 597 360 604 l 399 597 q 443 594 426 597 q 490 590 481 589 l 532 596 l 540 596 q 564 591 553 596 q 574 586 575 586 q 582 578 572 583 q 601 547 594 569 q 591 510 607 525 q 567 494 575 496 q 549 492 560 492 q 507 496 524 492 q 484 501 490 500 q 474 502 478 501 q 467 503 471 503 q 454 502 463 503 q 435 498 446 501 q 391 492 425 494 q 351 486 357 490 q 347 460 343 479 q 351 378 351 442 q 351 310 351 314 q 349 290 350 307 q 350 268 349 272 q 351 244 351 264 q 350 217 351 225 q 350 199 349 208 q 353 171 351 190 q 365 117 354 133 q 375 97 375 100 q 384 84 375 94 q 403 68 393 74 q 444 64 422 58 q 470 72 467 69 q 479 78 474 75 q 483 83 485 82 l 493 92 q 496 95 493 93 q 503 102 499 97 q 506 108 507 107 q 519 124 506 108 q 542 162 533 140 q 552 185 550 183 q 556 194 554 188 q 559 201 558 200 q 561 208 560 203 q 564 213 563 213 z "},"u":{"ha":760,"x_min":39,"x_max":732,"o":"m 55 579 q 55 580 55 579 q 63 587 56 581 q 76 597 69 593 q 94 602 82 601 q 117 603 107 603 q 163 603 126 603 q 210 600 200 603 q 231 585 219 597 q 247 540 249 564 q 244 481 244 517 q 242 415 244 446 q 244 357 240 383 q 249 321 249 331 q 251 308 250 311 q 253 235 253 304 q 255 146 253 165 q 263 115 257 126 q 271 99 269 103 q 290 75 274 86 q 324 63 307 64 q 344 61 342 61 q 351 61 346 61 q 363 62 357 61 q 380 66 369 63 q 391 72 390 69 q 397 76 392 74 q 411 83 401 78 q 428 94 421 89 q 436 101 436 100 q 440 105 436 101 q 445 110 443 108 q 449 115 447 113 q 460 128 460 128 q 463 132 460 129 q 466 136 465 135 q 472 143 467 138 q 475 150 476 149 q 491 170 474 151 q 516 203 508 189 q 524 225 524 217 q 525 281 525 233 q 526 335 525 333 q 527 345 526 336 q 529 354 528 354 q 531 365 532 356 l 526 392 q 525 432 525 390 q 517 481 525 474 q 494 489 508 489 q 451 510 464 492 q 444 521 449 514 q 439 556 435 533 q 465 592 443 578 q 474 597 469 594 q 528 599 479 600 q 579 598 578 599 q 590 596 581 597 q 604 590 599 594 q 614 581 610 586 q 631 486 638 558 q 628 460 629 475 q 627 441 628 444 q 626 419 626 438 q 624 386 625 400 q 625 360 622 372 q 629 340 628 349 q 632 326 631 332 q 635 304 633 319 q 638 288 636 289 q 639 222 639 286 q 638 153 639 157 q 634 129 636 150 q 631 108 632 108 q 629 96 631 107 q 633 80 628 85 q 666 72 638 75 q 703 61 694 68 q 725 13 732 39 q 699 -17 719 -7 q 669 -29 679 -28 q 655 -31 658 -31 q 613 -33 651 -32 q 563 -26 575 -33 q 528 14 538 -14 q 524 25 525 22 q 492 13 518 31 q 433 -22 443 -19 q 401 -31 422 -24 q 354 -39 381 -39 q 321 -40 328 -39 q 275 -37 294 -43 q 188 18 221 -22 q 176 35 176 33 q 174 42 176 36 q 165 58 171 47 q 156 75 160 69 q 142 124 143 89 q 141 160 140 160 q 142 169 142 161 q 143 178 143 176 q 146 215 149 188 q 144 278 142 267 q 147 306 146 290 q 149 334 147 322 q 147 367 150 346 q 143 401 144 389 q 140 413 142 413 q 139 442 139 413 q 131 481 139 472 q 104 490 124 489 q 63 504 78 492 q 43 528 47 517 q 40 540 39 540 q 42 547 42 540 q 44 556 43 553 q 47 562 46 558 q 49 567 47 565 q 50 569 50 568 q 52 574 50 569 q 55 579 54 578 z "},"v":{"ha":760,"x_min":39,"x_max":769,"o":"m 153 597 q 166 597 153 597 q 179 599 179 597 q 243 599 179 600 q 319 593 328 599 q 347 551 347 568 q 336 511 347 525 q 299 492 317 492 q 275 489 282 492 q 269 474 268 486 q 274 455 271 461 q 281 440 276 449 q 290 426 286 432 q 295 417 293 421 q 300 409 297 414 q 304 404 303 404 q 318 374 306 404 q 334 335 331 343 q 342 317 338 326 q 351 296 346 307 q 360 273 356 285 q 369 252 365 261 q 375 236 372 243 q 381 222 378 229 q 385 209 385 215 q 389 193 386 203 q 396 171 392 183 q 413 157 404 140 q 416 168 415 163 q 420 184 417 174 q 426 202 424 194 q 428 213 428 210 q 430 219 429 217 q 433 228 431 222 q 433 236 435 235 q 444 271 432 238 q 461 316 457 304 q 468 334 465 328 q 476 356 471 340 q 485 379 482 372 q 491 395 488 386 q 496 409 494 404 q 501 424 497 414 q 513 451 506 435 q 499 486 524 481 q 473 499 482 490 q 464 507 464 507 q 460 513 464 507 q 456 521 457 519 q 453 531 456 522 q 450 544 450 539 q 451 554 450 549 q 451 560 451 560 q 514 599 467 599 q 583 597 581 600 q 602 593 586 594 q 630 590 618 592 q 665 590 642 588 q 697 593 688 593 q 713 591 707 593 q 719 590 719 589 q 727 585 719 590 q 735 579 735 579 q 743 572 736 579 q 740 508 769 543 q 689 488 718 482 q 645 490 650 494 q 630 456 640 486 q 614 413 619 425 q 607 396 608 400 q 596 372 606 392 q 583 342 586 351 q 580 330 581 332 q 578 322 579 328 q 574 310 576 315 q 569 294 572 304 q 559 265 567 285 q 547 233 551 244 q 541 219 543 222 q 536 208 539 215 q 528 192 533 201 q 518 169 524 182 q 504 146 513 157 q 493 110 494 131 q 472 38 490 89 q 443 -24 453 -12 q 392 -42 419 -49 q 385 -42 388 -40 q 369 -29 383 -43 q 347 6 356 -15 q 333 40 339 28 q 317 78 328 53 q 303 111 307 103 q 299 122 300 119 q 297 128 297 125 q 297 131 296 131 q 295 139 297 132 q 293 147 293 146 q 291 154 293 149 q 287 165 289 160 q 284 172 285 171 q 279 182 283 174 q 270 198 275 190 q 258 226 265 206 q 241 267 244 267 q 233 278 238 267 q 224 303 229 290 q 211 333 218 317 q 201 356 204 350 q 197 367 199 363 q 191 380 194 372 q 178 410 188 388 q 169 435 169 432 l 169 436 q 163 462 164 458 q 158 478 161 465 q 149 493 154 490 q 119 493 144 496 q 60 511 82 489 q 51 560 39 533 q 86 594 64 586 q 92 596 92 597 q 101 595 93 594 q 109 595 108 596 q 115 594 110 594 q 124 594 119 594 q 127 596 128 594 q 153 597 126 597 z "},"w":{"ha":760,"x_min":26,"x_max":767,"o":"m 576 599 q 593 599 576 599 q 619 599 611 599 q 635 600 628 600 q 673 599 642 600 q 708 599 704 599 q 743 579 731 594 q 756 528 767 549 q 750 517 753 524 q 739 502 747 510 q 722 491 731 494 q 713 489 714 488 q 710 490 713 490 q 697 489 707 489 q 681 482 686 489 q 674 457 676 475 q 669 432 672 439 q 666 419 667 425 q 663 406 665 413 q 660 383 661 399 q 659 362 658 368 q 658 351 660 356 q 656 340 657 346 q 654 326 656 335 q 651 310 653 317 q 648 291 650 303 q 642 257 646 279 q 635 228 639 235 q 628 208 632 221 q 624 179 625 196 q 624 157 624 163 q 622 143 624 151 q 619 126 621 135 q 616 106 618 117 q 610 74 614 96 q 605 41 607 53 q 600 18 603 29 q 579 -15 596 -4 q 524 -22 551 -32 q 488 -1 497 -12 q 474 26 479 11 q 467 44 469 40 q 462 61 465 49 q 455 81 458 74 q 450 97 451 88 q 445 115 449 106 q 438 139 442 125 q 428 169 435 153 q 418 203 422 186 q 406 238 410 233 q 401 245 403 242 q 397 250 400 249 q 374 199 389 256 q 369 183 372 193 q 363 160 365 174 q 358 137 361 146 q 353 116 356 128 q 347 94 351 104 q 340 72 343 83 q 331 46 336 60 q 325 29 325 32 q 299 -15 317 -1 q 258 -26 282 -28 q 204 -4 225 -22 q 192 26 193 14 q 188 50 190 38 q 184 69 185 63 q 180 94 183 75 q 176 125 176 114 q 174 161 175 160 q 170 172 172 163 q 165 192 168 182 l 165 189 q 164 188 164 186 q 163 196 164 190 q 161 205 163 201 q 158 224 160 208 q 153 249 156 240 q 151 265 151 258 q 148 281 150 272 q 144 300 146 290 q 142 315 143 310 q 137 343 140 321 q 132 373 133 365 q 128 397 131 381 q 124 420 125 413 q 121 442 122 428 l 117 464 q 117 471 118 464 q 115 480 115 478 q 113 486 115 482 q 93 491 111 490 q 65 497 75 492 q 50 507 56 501 q 41 519 44 513 q 32 531 38 525 q 32 553 26 536 q 76 597 44 589 q 110 599 82 599 q 140 598 138 599 q 149 597 143 597 q 156 597 156 597 q 165 595 157 596 q 183 592 172 594 q 201 592 193 590 q 219 594 210 593 q 228 596 228 596 q 235 597 228 596 q 243 599 242 597 q 262 599 246 603 q 286 589 278 594 q 308 522 328 558 q 282 493 299 501 q 257 486 265 485 q 229 489 238 492 q 232 432 217 485 q 238 408 236 418 q 242 396 240 399 q 246 383 244 393 q 248 368 247 374 q 249 359 249 363 q 251 348 250 356 q 258 308 253 340 q 269 272 264 275 q 279 275 275 269 q 292 308 283 281 q 303 349 300 336 q 309 369 307 361 q 314 385 311 376 q 317 397 317 393 q 319 406 318 401 q 325 426 321 410 q 335 456 329 443 q 394 497 351 497 q 450 463 433 497 q 460 433 460 443 q 463 417 461 422 q 465 404 464 413 q 469 390 467 396 q 477 370 472 385 q 485 349 482 356 q 490 333 488 343 q 495 311 492 322 q 501 292 499 300 q 506 283 504 285 q 511 274 507 282 q 519 267 515 267 q 531 279 531 267 q 535 286 533 279 q 537 293 536 293 q 541 312 538 293 q 546 335 544 331 q 549 349 547 339 q 553 367 550 358 q 556 385 556 376 q 556 397 556 393 q 557 407 557 401 q 558 420 557 413 q 558 428 558 428 q 560 446 557 428 q 550 482 565 474 q 539 488 547 485 q 494 524 506 497 q 492 535 490 533 q 493 542 493 536 q 494 555 493 549 q 494 560 496 561 q 497 566 493 560 q 510 583 500 572 q 531 596 521 593 q 576 599 540 599 z "},"x":{"ha":760,"x_min":51,"x_max":742,"o":"m 641 579 q 642 579 641 579 q 643 579 643 579 q 643 580 643 579 q 654 583 643 581 q 668 586 665 586 q 682 584 671 586 q 699 569 693 582 q 706 543 706 556 q 695 523 706 531 q 678 515 685 515 q 667 517 671 515 q 663 519 664 519 q 653 532 661 519 q 633 564 633 560 q 635 568 633 568 q 636 569 636 568 q 635 572 636 571 q 636 574 635 574 q 640 576 640 574 q 641 579 639 579 m 233 427 q 231 430 233 427 q 225 437 229 432 q 208 456 221 442 q 184 478 194 471 q 132 487 174 485 q 76 528 90 489 q 85 574 67 554 q 121 598 103 593 q 163 599 139 603 q 199 598 186 596 q 220 599 211 600 q 234 597 229 597 q 240 598 239 597 q 286 599 240 599 q 349 592 335 599 q 372 569 364 585 q 347 492 397 525 q 337 476 335 485 q 345 458 339 467 q 355 445 351 450 q 361 438 358 440 q 372 421 364 435 q 393 401 386 401 q 405 407 400 401 q 427 437 410 413 q 449 467 444 461 q 453 480 453 474 q 442 494 453 486 q 416 563 397 526 q 478 599 435 600 q 485 597 485 599 q 493 596 486 596 q 501 595 500 596 q 509 594 501 594 q 528 592 517 593 q 566 588 540 590 q 593 585 592 586 q 596 583 594 583 l 610 581 l 614 579 l 615 578 q 615 575 614 576 q 618 574 615 574 l 621 574 q 617 568 613 568 l 617 567 q 612 563 614 565 q 599 556 610 561 q 586 548 588 550 q 584 528 585 546 q 581 506 583 511 q 578 497 579 500 q 576 490 578 493 q 575 476 575 486 q 555 428 574 460 q 534 393 536 397 q 526 381 532 389 q 519 370 519 374 q 495 335 519 367 q 471 297 471 303 q 474 285 471 290 q 485 268 476 279 q 498 251 493 257 q 506 240 503 244 q 509 233 508 236 q 515 226 510 229 q 528 210 519 222 q 566 159 538 197 q 603 108 594 121 q 625 86 613 94 l 628 85 q 629 81 625 83 q 641 79 633 79 q 649 78 649 79 q 667 77 650 78 q 684 78 683 76 q 695 76 685 79 q 708 74 706 74 q 714 71 710 74 q 741 28 742 51 q 729 -7 740 6 q 674 -29 703 -35 q 662 -31 668 -29 q 569 -32 656 -32 q 469 -25 483 -32 q 456 -16 456 -18 q 451 -9 456 -14 q 447 -3 447 -4 q 442 6 447 -3 q 440 30 438 15 q 447 50 443 44 q 450 56 450 56 l 463 71 q 468 76 463 72 q 471 88 474 81 q 468 99 468 96 q 465 106 467 107 q 462 107 464 104 q 456 113 460 110 q 447 126 453 117 q 392 189 401 192 q 380 178 388 189 q 348 135 372 168 q 319 92 324 103 q 329 71 314 82 q 356 30 356 50 q 342 -6 356 10 q 315 -23 328 -21 q 281 -26 301 -25 q 249 -28 260 -26 q 215 -31 218 -31 q 171 -31 196 -33 l 149 -29 q 126 -31 131 -29 q 86 -26 106 -37 q 51 25 51 -6 q 86 75 51 58 q 126 82 97 82 q 165 88 156 82 q 180 102 174 94 q 210 142 186 110 q 235 174 233 174 q 241 178 238 174 q 246 184 244 183 q 250 188 247 185 q 253 192 253 192 q 258 197 254 192 q 263 204 263 203 q 265 208 263 206 q 268 214 267 211 q 273 222 269 217 q 275 228 276 228 q 293 256 274 229 q 315 288 313 282 q 305 319 321 299 q 289 343 289 340 q 286 351 289 346 q 282 358 283 356 q 276 367 281 361 q 267 377 271 372 q 261 386 264 382 q 255 397 258 390 q 244 413 251 403 q 233 427 238 422 z "},"y":{"ha":760,"x_min":49,"x_max":735,"o":"m 55 565 q 55 567 55 565 q 65 580 56 569 q 85 594 75 590 q 122 599 94 599 q 283 599 251 600 q 333 585 315 597 q 353 560 351 572 q 353 540 354 549 q 339 513 350 524 q 299 494 321 494 q 274 490 276 493 q 274 481 271 488 q 280 467 278 474 q 285 458 282 461 q 290 450 288 456 q 294 442 292 444 q 300 431 297 439 q 305 419 303 424 q 312 403 307 415 q 321 381 317 390 q 329 360 325 371 q 344 326 333 350 q 356 297 354 303 q 357 288 357 290 q 360 276 357 285 q 368 246 363 268 q 379 215 374 224 q 394 192 385 207 q 406 175 403 178 q 415 175 408 172 q 424 185 421 178 q 456 278 428 193 l 458 292 q 461 302 457 290 q 474 341 465 314 q 489 386 483 368 q 507 435 504 428 q 509 435 507 432 q 513 446 511 439 q 517 454 515 453 q 519 461 518 456 q 526 476 521 467 q 526 488 531 485 q 503 491 522 492 q 477 492 483 490 q 464 500 471 494 q 448 519 449 513 q 447 526 447 525 q 446 542 446 528 q 474 590 446 575 q 476 592 476 592 q 482 594 475 593 q 491 597 490 596 q 532 599 492 599 q 583 598 581 599 q 598 597 585 597 q 622 593 611 596 q 655 591 650 589 q 669 594 660 593 q 679 596 678 594 q 697 594 681 599 q 735 546 735 585 q 678 492 733 492 q 646 487 653 492 q 639 476 639 482 q 633 454 639 469 q 622 423 628 439 q 613 397 617 407 q 605 372 610 388 q 597 350 600 356 q 591 330 593 344 q 582 302 589 315 q 574 283 575 289 q 565 253 572 278 q 553 217 557 229 q 544 192 549 206 q 534 165 539 179 q 526 141 529 150 q 519 122 522 132 q 515 108 517 111 q 511 104 513 104 q 495 60 510 104 q 477 7 481 15 q 473 -11 474 -1 q 468 -33 472 -21 q 458 -58 464 -44 q 428 -128 440 -115 q 411 -151 417 -142 q 402 -165 406 -161 q 395 -177 399 -169 q 374 -201 392 -185 q 275 -250 329 -240 q 263 -251 265 -251 q 224 -251 240 -256 q 197 -244 208 -247 q 184 -239 186 -242 q 176 -233 182 -236 q 164 -226 169 -229 q 153 -221 158 -222 q 142 -215 149 -219 q 131 -210 136 -211 q 108 -189 125 -208 q 69 -124 76 -150 q 62 -56 57 -78 q 68 -35 67 -35 q 74 -26 69 -35 q 81 -12 78 -18 q 86 -3 83 -7 q 89 0 89 0 q 90 1 89 0 q 90 2 90 1 q 95 8 90 3 q 99 15 100 14 q 113 26 99 17 q 142 40 128 36 q 172 43 156 43 q 188 41 188 43 q 204 33 189 39 q 232 14 219 28 q 250 -75 267 -25 q 224 -113 242 -99 q 213 -135 206 -128 q 239 -144 224 -144 q 259 -142 254 -144 q 266 -140 264 -140 q 269 -137 268 -139 q 276 -133 271 -136 q 282 -128 282 -129 q 286 -122 282 -126 q 347 -28 322 -96 q 351 -24 350 -24 q 356 -15 353 -24 q 358 -2 358 -7 q 353 15 358 3 q 345 36 349 28 q 338 52 342 44 q 331 71 335 60 q 323 93 326 82 q 317 110 319 104 q 310 133 315 115 q 300 160 304 151 q 293 176 296 168 q 286 190 290 183 q 274 220 282 197 q 257 256 265 243 q 243 279 249 268 q 235 290 238 290 q 231 299 233 290 q 224 316 228 307 q 215 338 219 325 q 200 374 210 350 q 189 401 190 397 q 187 406 188 404 q 188 408 186 408 q 186 415 189 408 q 183 422 183 421 q 174 451 181 440 q 165 467 168 461 q 159 472 161 472 q 150 478 157 472 q 116 486 138 486 q 88 489 94 486 q 79 494 82 492 q 74 498 76 496 q 72 501 72 500 q 68 504 72 501 q 56 522 56 518 q 52 532 56 525 q 51 550 49 539 q 55 565 54 561 z "},"z":{"ha":760,"x_min":117,"x_max":658,"o":"m 224 176 l 329 301 q 335 310 329 303 q 341 319 342 317 q 400 388 340 321 q 468 464 460 454 q 474 480 476 474 q 429 486 471 486 q 386 487 388 486 q 369 489 385 488 q 340 493 353 490 q 257 489 300 503 q 246 458 240 483 q 247 407 249 450 q 240 354 246 364 q 204 320 228 326 q 163 328 181 314 q 154 336 158 331 q 149 341 150 342 q 147 342 149 340 q 135 365 135 356 l 136 365 l 136 375 l 136 386 q 138 401 139 385 q 137 420 138 418 q 135 431 136 422 q 134 440 135 439 q 133 490 133 440 q 135 553 133 540 q 152 579 138 565 q 181 597 167 593 q 196 598 194 600 q 208 596 197 596 q 218 595 218 596 q 233 594 218 594 q 263 592 249 593 q 290 591 276 590 q 311 592 304 592 q 318 593 318 592 q 377 595 324 596 q 437 595 431 594 q 450 597 443 596 q 459 598 457 597 q 465 599 461 599 q 526 599 469 599 q 585 598 583 599 q 596 599 586 597 q 637 582 618 601 q 657 536 656 563 q 649 497 658 510 q 632 474 640 485 q 610 447 624 463 q 583 418 596 432 q 567 401 571 404 q 555 392 563 399 q 535 375 547 385 q 513 349 524 365 q 499 328 501 332 q 494 319 497 325 q 478 300 492 314 q 441 258 465 286 q 407 224 417 231 q 392 208 397 218 q 383 194 388 199 q 372 182 378 189 q 363 170 367 175 q 351 158 358 165 q 340 146 344 151 q 318 121 335 140 q 304 85 290 89 q 313 82 306 85 l 339 81 q 365 81 364 81 q 379 80 367 81 q 417 76 392 79 q 453 75 442 74 q 497 81 476 79 q 520 83 518 82 q 528 87 522 83 q 541 93 535 90 q 548 103 547 96 q 550 113 549 110 q 550 133 551 117 q 546 156 547 156 q 545 178 544 156 q 549 211 546 201 q 565 234 551 221 q 589 249 579 247 q 600 250 599 251 q 608 247 601 249 q 618 244 615 246 q 628 239 621 243 q 653 193 651 225 q 653 138 654 161 q 652 99 651 114 q 653 74 653 83 q 653 40 653 64 q 643 -1 654 17 q 623 -23 632 -18 q 602 -28 614 -28 q 503 -29 590 -29 q 415 -28 417 -29 q 407 -27 414 -28 q 390 -24 400 -26 q 356 -24 379 -22 q 332 -26 333 -25 q 291 -27 331 -26 q 247 -28 251 -28 q 206 -29 243 -29 q 158 -25 168 -29 q 138 -11 147 -21 q 117 36 117 10 q 129 81 117 63 q 181 139 157 115 q 187 143 182 138 q 192 149 192 149 q 197 152 193 149 q 213 165 201 156 q 224 176 224 174 z "},"A":{"ha":760,"x_min":50,"x_max":749,"o":"m 356 815 q 365 817 354 815 q 378 819 376 818 q 397 821 381 821 q 451 793 431 821 q 469 750 461 782 q 483 703 478 718 q 488 681 488 688 q 490 672 489 675 q 495 656 492 668 q 500 641 499 644 q 506 619 501 638 q 514 586 510 601 q 520 564 518 571 q 524 552 522 557 q 526 541 525 547 q 533 518 528 535 q 543 481 538 501 q 561 417 556 433 q 567 389 567 400 q 569 369 567 378 q 574 356 572 361 q 579 344 575 351 q 586 323 583 336 q 600 274 589 310 q 611 227 611 238 q 616 208 611 217 q 626 179 621 199 q 633 155 631 160 q 640 128 635 150 q 664 86 649 92 q 666 83 665 85 q 681 79 667 81 l 694 79 q 719 67 711 76 q 726 57 728 58 q 731 49 725 56 q 739 39 738 43 q 731 -4 749 17 q 701 -28 714 -25 q 602 -32 689 -32 q 499 -31 515 -32 q 469 -15 483 -31 q 453 8 456 1 q 452 15 451 14 q 453 26 453 17 q 456 42 453 35 q 460 50 458 49 q 465 57 461 51 q 468 64 468 63 q 475 69 468 65 q 504 81 488 79 q 524 90 521 83 q 526 102 526 96 q 523 123 526 108 q 517 146 519 138 q 513 160 515 154 q 507 179 511 165 q 468 208 499 208 q 444 210 454 208 q 425 210 433 211 q 363 208 417 208 q 304 206 310 208 q 294 202 299 204 q 286 200 290 200 q 278 192 282 200 q 273 176 274 183 q 269 159 272 168 q 262 131 267 150 q 254 104 257 111 q 253 79 246 82 q 267 79 254 79 q 281 79 279 79 q 281 80 282 79 q 292 80 281 81 q 314 68 303 79 q 332 33 332 50 q 328 6 332 15 q 282 -32 315 -29 q 208 -32 269 -32 q 146 -31 147 -32 q 124 -28 144 -29 q 53 14 65 -21 q 50 28 50 18 q 54 45 50 38 q 58 53 58 53 q 63 59 58 54 q 67 67 67 64 q 78 74 68 69 q 103 82 89 79 q 133 93 126 83 q 144 119 140 103 q 151 142 149 135 q 158 170 153 150 q 167 207 163 190 q 175 238 171 224 q 181 253 179 253 q 185 260 183 254 q 187 267 186 267 q 190 274 188 268 q 196 290 192 281 q 203 312 200 299 q 212 340 207 325 q 217 365 217 356 q 219 380 218 375 q 220 390 219 385 q 222 399 221 394 q 222 404 222 404 q 222 408 221 404 q 224 415 224 411 q 223 419 224 419 q 229 446 222 419 q 244 503 236 472 q 260 558 257 557 q 265 569 263 560 q 269 580 267 578 q 273 594 272 582 q 275 613 274 607 q 275 620 276 619 q 279 641 274 621 q 286 667 285 661 q 292 690 288 672 q 302 728 297 707 q 308 749 307 749 q 311 754 310 749 q 311 760 313 760 q 319 785 308 763 q 354 817 331 807 l 356 815 m 417 509 q 416 514 417 509 q 412 531 415 518 q 404 560 408 543 q 376 560 390 606 q 361 502 372 543 q 348 457 350 461 q 343 443 346 453 q 338 427 340 433 q 335 410 335 421 q 329 378 335 400 q 322 335 318 343 q 332 324 326 326 q 374 322 338 322 q 410 321 410 322 q 426 318 411 319 q 447 317 440 317 q 455 319 453 318 q 461 321 457 319 q 463 361 475 325 q 460 370 463 364 q 457 379 458 376 q 453 389 456 382 q 449 403 451 396 q 446 417 447 410 q 442 425 444 424 q 431 459 438 429 q 422 494 424 489 q 417 509 419 500 m 488 208 l 488 207 q 493 204 493 204 l 488 208 z "},"B":{"ha":760,"x_min":42,"x_max":717,"o":"m 114 675 q 49 722 63 679 q 60 765 42 747 q 88 785 79 782 q 138 788 97 788 q 188 789 178 789 q 197 788 197 789 q 212 786 197 786 q 231 788 226 786 q 251 789 236 789 q 272 788 267 789 q 291 786 276 786 q 306 785 306 786 q 319 784 307 785 q 344 781 331 783 q 392 780 357 779 q 438 781 428 781 q 453 780 449 781 q 470 779 458 779 q 490 778 482 779 q 496 778 497 776 l 497 779 q 510 776 499 778 q 547 761 521 774 q 664 624 639 719 l 665 614 q 662 557 665 574 q 656 525 658 540 q 648 498 653 510 q 642 484 643 486 q 639 478 642 482 q 632 464 636 474 q 620 444 628 454 q 611 427 613 433 q 628 408 610 421 q 669 369 647 394 q 694 335 692 343 q 699 318 696 328 q 711 267 710 292 q 715 227 713 243 q 715 195 717 211 q 712 163 713 179 q 708 138 711 146 q 704 126 706 131 l 696 101 q 692 94 696 103 q 683 81 688 85 l 678 74 q 673 70 679 78 q 661 58 667 63 q 652 49 656 53 q 645 40 649 44 q 638 29 642 35 q 603 6 633 24 q 553 -16 572 -11 q 529 -22 535 -21 q 510 -24 524 -24 q 491 -25 497 -24 q 477 -26 485 -26 q 467 -29 469 -26 q 374 -32 465 -32 q 278 -31 282 -32 q 267 -29 274 -29 q 255 -28 261 -29 q 235 -28 249 -26 q 221 -31 222 -29 q 169 -32 219 -32 q 117 -31 118 -32 q 110 -29 117 -29 q 64 6 75 -24 q 68 58 51 38 q 69 62 69 61 q 74 66 69 63 q 78 70 78 69 q 85 74 79 71 q 90 78 92 76 q 107 81 89 79 q 142 104 136 83 q 142 141 142 106 q 144 176 143 176 q 144 181 144 176 q 143 185 144 185 l 143 210 l 143 233 l 144 235 q 145 259 146 240 q 144 282 144 278 q 143 302 143 286 q 144 324 143 318 q 145 349 144 329 q 148 379 146 368 q 149 405 150 390 q 147 420 147 419 q 145 427 146 421 q 144 435 144 433 q 143 540 143 438 q 140 657 143 649 q 114 675 135 674 m 446 672 q 435 674 436 674 q 403 675 435 674 q 284 675 297 678 q 266 667 271 672 q 260 661 261 663 q 258 654 258 660 q 257 624 257 649 q 255 594 257 600 q 254 576 253 589 q 254 554 256 564 q 253 531 253 544 q 251 481 253 517 q 260 465 257 465 q 267 468 263 464 q 323 461 274 461 q 374 460 372 461 q 397 458 376 460 q 418 458 417 457 q 426 460 419 460 q 435 463 433 461 q 446 467 438 465 q 515 497 486 474 q 524 501 521 501 q 531 506 526 501 q 536 511 535 511 q 543 518 543 511 q 546 519 543 519 q 554 531 549 519 q 561 547 560 542 q 549 613 567 581 q 542 621 544 621 q 535 628 540 621 q 446 672 504 667 m 424 356 q 418 356 424 356 q 388 354 413 357 q 315 351 363 351 q 265 348 267 351 q 264 343 264 344 q 265 341 264 342 q 263 338 265 340 q 258 329 260 335 q 257 290 257 324 q 255 251 257 256 q 253 219 253 247 q 255 187 253 192 q 256 158 257 182 q 257 103 256 133 q 281 82 265 85 q 285 81 283 82 q 321 79 286 79 l 354 81 q 372 82 356 82 q 408 82 389 82 q 453 81 438 82 q 477 80 468 79 q 499 82 486 81 q 517 86 511 83 q 540 97 522 89 q 556 106 557 104 q 561 113 554 107 q 566 119 568 118 q 575 131 564 119 q 611 221 614 168 q 608 247 610 240 l 608 250 q 606 260 608 256 l 603 261 q 582 293 594 276 q 522 335 561 322 l 500 346 q 478 349 493 347 q 459 352 464 351 q 445 353 454 353 q 424 356 436 354 z "},"C":{"ha":760,"x_min":90,"x_max":667,"o":"m 274 772 l 288 783 q 315 795 286 783 q 365 808 343 807 q 407 808 407 810 q 415 806 407 807 q 426 803 422 804 q 442 798 431 801 q 468 792 453 794 q 494 786 483 790 q 508 783 506 782 q 532 769 510 783 q 558 758 554 756 q 576 774 563 760 q 632 781 600 796 q 646 771 646 774 q 651 760 646 768 q 658 744 657 753 q 663 711 665 718 q 660 691 661 704 q 662 664 660 678 q 664 646 664 650 q 665 638 664 642 q 666 577 667 633 q 665 507 665 521 q 646 463 665 479 q 608 447 626 447 q 574 462 589 447 q 556 488 560 476 q 553 533 553 500 q 541 588 553 565 q 529 613 529 610 q 522 627 529 615 q 513 642 515 639 q 502 651 510 644 q 494 656 494 657 q 492 656 493 656 q 488 659 490 657 q 475 668 486 661 q 405 695 442 694 q 367 694 368 696 q 354 692 365 693 q 317 676 333 689 q 301 659 301 663 q 290 644 301 656 q 274 626 278 632 q 265 614 271 621 q 232 552 242 583 q 218 515 222 521 q 204 465 206 496 q 202 409 203 433 q 201 372 201 385 q 199 325 200 358 q 215 269 213 271 q 222 249 218 267 q 249 172 233 197 q 267 143 265 147 q 269 139 268 139 q 272 136 271 139 q 349 75 301 96 q 374 65 368 65 q 380 65 381 65 q 383 63 379 64 q 396 62 388 61 q 405 64 404 63 q 412 65 406 65 q 431 69 418 65 q 452 78 443 74 q 465 83 461 83 q 473 87 469 83 q 475 91 476 90 q 478 94 474 92 q 546 192 528 132 l 556 215 q 556 222 556 218 q 558 226 557 225 q 560 233 558 228 q 565 249 564 249 q 567 251 567 249 q 572 257 568 253 q 581 269 575 261 q 592 280 586 278 q 599 283 599 282 q 605 284 600 283 q 610 285 610 285 q 619 286 613 288 q 626 285 626 285 q 632 284 626 286 q 649 272 638 282 q 660 257 660 263 q 663 243 660 251 q 660 215 665 235 q 651 174 654 194 q 646 149 649 154 q 635 119 643 144 q 624 89 626 94 q 613 71 622 83 q 592 44 604 58 q 563 15 581 29 q 535 -3 544 0 q 515 -17 525 -7 q 435 -46 489 -39 q 422 -47 428 -47 q 410 -48 417 -46 q 379 -49 403 -50 q 315 -35 343 -46 q 282 -21 288 -25 q 275 -17 276 -17 q 214 29 258 -17 q 209 35 210 33 q 203 44 208 38 q 198 51 199 50 q 194 56 197 53 q 189 65 192 60 q 178 80 186 71 q 163 99 169 89 q 156 109 157 108 q 140 138 154 110 q 126 169 126 165 q 119 194 126 174 q 112 220 111 214 q 111 235 113 226 q 108 261 110 243 q 105 290 107 279 q 101 308 103 300 q 99 320 100 317 q 97 331 99 324 q 94 339 96 339 q 92 394 90 342 q 99 483 96 482 q 103 492 101 485 q 105 500 104 499 q 107 506 106 501 q 109 512 108 510 q 110 515 110 514 l 114 526 q 115 530 114 528 q 117 538 115 532 q 119 553 118 544 q 122 567 121 563 q 126 578 124 571 q 128 588 128 585 q 133 604 128 590 q 142 630 139 618 q 153 651 146 642 q 168 672 160 660 q 180 688 176 685 q 191 701 183 692 q 200 710 199 710 q 204 713 201 710 q 208 717 207 717 q 213 721 208 717 q 226 730 218 725 q 233 737 233 735 q 244 749 233 739 q 257 761 256 760 q 267 767 258 763 q 275 772 275 772 l 274 772 z "},"D":{"ha":760,"x_min":43,"x_max":715,"o":"m 183 789 q 200 789 193 789 q 213 789 211 789 q 216 787 210 788 q 228 786 222 786 q 235 788 235 786 q 308 789 236 789 q 459 781 422 789 q 499 769 496 772 q 513 762 501 767 q 528 756 525 757 q 535 753 532 754 q 538 753 538 753 q 538 753 538 753 q 539 753 538 754 q 598 716 572 740 q 624 691 624 692 q 632 681 624 690 q 642 667 640 672 q 649 653 643 663 q 659 633 656 643 q 669 613 663 624 q 679 598 676 603 q 685 590 682 593 q 703 539 694 579 q 712 490 711 499 q 713 474 713 481 q 715 463 714 467 q 715 457 715 460 q 715 451 715 454 q 715 447 715 447 q 715 438 714 447 q 713 408 715 429 q 710 360 710 386 q 710 326 711 333 q 708 293 708 319 q 699 220 708 244 q 689 194 690 196 q 686 183 688 193 q 669 142 685 174 q 613 63 644 93 q 572 28 582 33 q 555 17 563 22 q 508 -7 547 11 q 332 -32 446 -35 q 321 -31 321 -31 l 307 -29 q 286 -32 294 -29 l 199 -32 q 90 -29 101 -32 q 57 -3 67 -21 q 50 38 43 24 q 69 66 57 53 q 85 77 82 79 q 99 78 89 75 q 124 78 110 81 q 140 79 138 76 q 143 86 143 82 q 143 97 143 90 q 143 104 143 103 q 143 181 143 106 q 144 258 143 257 q 145 265 144 258 q 147 272 146 271 q 148 283 147 274 q 149 299 149 293 q 149 313 150 306 q 148 331 149 319 q 147 343 147 342 q 145 359 146 344 q 144 378 144 374 q 143 398 143 382 q 144 419 143 414 q 145 438 144 424 q 147 456 146 451 q 147 467 147 460 q 148 477 147 474 q 148 491 149 481 q 147 502 147 501 q 146 510 146 503 q 144 517 146 517 q 142 584 143 518 q 143 651 142 650 q 144 662 144 651 q 143 676 144 672 q 125 678 142 681 q 89 678 96 675 q 49 736 46 696 q 51 747 49 746 q 57 753 53 747 q 65 763 61 758 q 68 767 68 767 q 70 769 68 767 q 74 772 72 771 q 78 773 76 772 q 85 776 79 774 q 96 782 92 779 l 122 785 l 143 788 l 183 789 m 563 588 q 560 592 563 588 q 557 597 558 596 q 543 613 556 599 q 494 653 531 628 q 417 676 457 679 q 353 674 378 672 q 272 672 282 678 q 258 665 263 667 q 251 642 249 664 q 256 619 254 619 q 257 539 257 619 q 256 455 257 458 q 256 447 254 451 q 257 397 257 442 l 256 351 q 253 320 253 340 q 252 293 253 300 q 252 284 251 286 q 251 266 253 282 q 251 229 249 250 q 253 196 253 208 q 256 178 254 183 q 256 138 257 172 q 260 97 256 104 q 270 86 264 90 q 319 82 276 82 q 379 83 363 82 q 397 83 396 85 q 422 82 401 79 q 443 87 442 85 q 448 90 444 89 q 455 92 451 90 q 458 95 458 94 q 458 96 457 96 q 485 108 464 96 q 600 307 582 164 q 604 358 604 343 q 606 372 604 374 q 608 385 607 372 q 610 400 610 399 q 610 421 614 406 q 606 446 607 436 q 603 456 604 456 q 596 493 601 457 q 578 553 590 529 q 566 578 565 576 q 563 588 567 581 z "},"E":{"ha":760,"x_min":36,"x_max":726,"o":"m 440 554 l 460 568 q 472 572 461 568 q 497 570 483 575 q 516 560 510 565 q 524 554 522 556 q 537 535 533 550 q 540 474 540 521 q 539 419 540 426 q 538 402 535 404 q 540 350 540 400 q 539 296 540 300 q 535 277 538 292 q 522 251 533 263 q 467 244 494 224 q 437 298 440 264 q 429 339 433 332 q 408 350 424 350 q 388 349 392 350 q 335 348 385 349 q 278 344 285 347 q 267 333 271 340 q 263 278 263 326 q 259 214 263 229 q 256 188 256 199 q 258 163 257 176 q 259 142 258 149 q 260 119 260 135 q 261 94 260 103 q 265 83 263 86 q 278 80 268 81 q 297 78 288 79 q 317 76 306 76 q 335 74 328 75 q 347 73 342 74 q 361 71 351 72 q 404 74 374 69 q 447 81 443 79 q 466 82 451 82 q 519 82 481 82 q 565 83 557 82 q 579 92 572 85 q 592 111 585 96 q 600 127 599 126 q 602 138 601 128 q 603 154 603 149 q 603 160 604 160 q 611 201 603 161 q 625 250 619 240 q 679 279 647 283 q 693 276 692 278 q 701 269 694 274 q 713 256 707 264 q 721 242 718 247 q 722 210 726 226 q 717 179 718 193 q 716 161 717 165 q 715 147 715 157 q 713 127 715 138 q 705 90 710 117 q 688 36 700 64 q 610 -26 669 -10 q 478 -32 589 -32 q 360 -31 367 -32 q 348 -31 353 -29 q 226 -32 343 -32 q 106 -31 110 -32 q 100 -28 101 -29 q 90 -26 99 -28 q 69 -11 82 -25 q 69 61 36 26 q 90 77 86 79 q 100 76 93 75 q 113 78 107 78 q 122 80 119 78 q 126 82 124 82 q 136 88 129 82 q 146 99 143 93 q 149 138 149 104 l 150 194 l 150 192 q 151 217 154 214 q 149 288 149 219 q 149 372 149 357 q 150 413 149 408 l 150 410 q 152 435 153 421 q 150 451 151 450 q 149 546 149 451 q 146 661 149 654 q 115 677 139 675 q 80 690 90 679 q 61 708 69 700 q 53 733 53 715 q 64 765 53 751 q 76 776 75 778 q 81 778 76 775 q 94 785 86 782 q 102 789 101 788 q 112 791 103 790 q 178 791 121 792 q 236 790 235 790 q 246 789 238 789 q 255 790 254 789 q 406 792 256 792 q 572 790 557 792 q 665 739 631 786 q 683 690 681 718 q 690 643 685 663 q 698 616 696 624 q 702 602 700 608 q 704 575 704 596 q 663 528 693 536 q 606 553 632 519 q 592 585 596 565 q 588 610 589 604 q 588 617 588 617 q 588 623 589 617 q 588 635 588 629 q 583 651 588 640 q 575 664 578 663 q 572 665 572 665 q 565 669 572 664 q 551 676 557 675 q 510 677 544 676 q 470 680 475 678 q 458 680 465 682 q 367 677 450 678 q 278 674 285 676 q 267 664 271 671 q 263 619 263 657 q 261 576 263 582 q 259 557 260 571 q 259 536 258 543 q 260 526 260 529 q 262 515 261 522 q 263 506 263 508 q 263 490 263 504 q 285 463 264 467 q 343 462 290 463 q 403 463 396 461 q 426 499 425 468 q 431 542 426 531 q 440 554 436 554 z "},"F":{"ha":760,"x_min":53,"x_max":710,"o":"m 172 309 q 171 314 172 309 q 169 417 169 319 q 171 515 169 515 q 174 529 172 515 q 176 551 175 543 q 179 610 182 583 q 176 653 176 638 q 172 674 175 669 q 162 678 169 679 q 154 677 154 678 q 153 676 154 676 q 135 677 151 676 q 113 679 118 678 q 74 708 89 685 q 85 774 53 743 q 107 788 97 785 q 156 790 117 790 q 247 788 232 790 q 267 786 261 786 q 305 786 274 786 q 362 786 336 786 q 391 788 388 786 q 404 789 394 789 q 414 790 414 789 q 481 792 414 792 q 550 790 547 792 q 569 788 553 789 q 599 781 586 786 q 618 773 611 776 q 636 767 625 769 q 694 714 678 753 q 699 707 696 708 q 705 660 704 700 q 706 608 706 621 q 707 490 710 508 q 692 456 704 471 q 667 440 681 442 q 651 438 654 439 q 634 438 647 433 q 608 458 621 443 q 594 490 594 474 q 595 507 593 507 q 597 513 597 507 q 598 526 597 519 q 597 540 599 532 q 596 553 596 549 q 595 560 596 558 q 594 562 594 563 q 593 569 593 561 q 592 621 592 585 q 585 665 592 657 q 569 676 578 672 q 527 679 528 678 q 513 681 526 681 q 490 678 500 681 l 401 678 q 306 677 313 678 q 294 670 300 676 q 285 657 288 664 q 283 603 283 650 l 285 572 q 281 556 281 558 q 278 533 281 554 q 282 465 271 485 q 299 458 286 458 q 330 455 313 457 q 361 455 347 453 q 386 458 375 457 q 397 460 397 460 q 407 462 397 461 q 425 465 417 463 q 443 485 433 467 q 444 517 443 517 q 447 527 446 517 q 449 544 447 538 q 447 553 450 551 q 461 571 444 556 q 528 581 496 604 q 547 560 547 567 q 551 552 549 558 q 553 533 553 546 q 553 517 553 519 q 555 511 554 515 q 557 503 556 507 q 558 388 558 499 q 557 265 558 276 q 550 248 556 254 q 538 232 544 242 q 521 219 532 222 q 501 215 510 215 q 476 222 486 215 q 465 229 465 228 q 459 238 465 231 q 453 248 453 246 q 451 258 454 250 q 447 271 447 265 q 445 278 447 276 q 442 303 443 281 q 438 333 442 326 q 426 344 433 340 q 362 347 419 347 q 297 343 304 347 q 288 332 290 339 q 284 288 285 325 q 283 249 283 251 q 281 222 282 246 q 280 193 281 197 q 279 184 279 189 q 277 160 279 179 q 276 133 275 140 q 276 123 276 126 q 277 116 276 119 q 279 99 278 113 q 285 83 281 86 q 297 81 296 78 q 303 83 299 85 q 317 82 307 81 q 413 67 388 86 q 436 28 438 49 q 423 -8 435 8 q 399 -28 411 -24 q 323 -33 386 -32 q 258 -31 260 -33 q 245 -28 257 -29 q 224 -26 233 -28 q 200 -25 214 -24 q 172 -28 186 -26 q 153 -31 158 -29 q 131 -32 149 -32 q 75 6 93 -29 q 75 43 65 25 q 135 82 93 79 q 168 101 163 83 l 169 106 l 169 200 q 172 296 169 293 q 172 309 175 299 z "},"G":{"ha":760,"x_min":82,"x_max":750,"o":"m 569 757 l 581 764 q 589 767 582 764 q 607 768 596 769 q 628 757 618 767 q 654 567 657 732 q 656 529 654 546 q 611 450 663 468 q 592 447 603 447 q 563 465 581 447 q 546 510 546 483 q 458 675 544 621 q 428 690 435 690 q 414 694 418 692 q 388 699 410 697 q 314 672 339 703 q 297 658 311 669 q 264 624 282 647 q 240 586 246 600 q 229 563 233 572 q 222 545 225 553 q 217 535 219 538 q 213 527 215 533 q 204 505 211 521 q 195 453 197 489 q 192 407 193 418 q 192 368 192 396 l 192 340 q 199 301 199 306 q 202 291 200 297 q 207 272 204 285 q 231 179 221 199 q 255 143 240 160 q 271 126 269 126 q 296 103 272 126 q 403 65 343 56 q 467 99 433 71 q 469 98 468 100 q 476 102 471 96 q 483 108 482 108 q 485 111 483 108 q 488 115 488 114 q 494 123 489 117 q 498 131 499 129 q 506 144 497 132 q 530 199 524 175 q 539 226 536 224 q 542 235 542 229 q 544 243 543 242 q 547 256 544 244 q 549 267 550 267 q 549 274 549 267 q 544 283 549 282 q 532 286 539 285 q 488 286 506 292 q 433 313 460 279 q 436 375 408 343 q 441 380 440 381 q 449 385 442 379 q 466 393 457 390 q 475 397 475 396 q 585 399 475 399 q 705 397 694 399 q 733 378 715 394 q 750 350 750 363 q 737 313 750 326 q 719 296 724 299 q 711 290 715 293 q 692 285 707 288 q 660 256 661 282 q 658 132 658 246 l 658 18 q 644 -24 650 -15 q 563 -31 603 -75 q 549 -11 553 -19 q 542 1 546 -3 q 522 -6 539 4 q 490 -22 506 -17 q 455 -33 475 -26 q 419 -42 435 -40 q 390 -45 403 -43 q 360 -49 376 -47 q 310 -37 344 -50 q 182 57 235 -10 q 165 80 165 78 q 157 97 165 82 q 149 114 149 113 l 138 135 q 135 140 138 135 q 129 147 132 146 q 117 178 126 149 q 98 246 103 219 q 94 274 93 272 q 94 289 96 276 q 89 304 92 301 q 85 347 86 307 q 85 388 85 386 q 84 422 82 401 q 88 460 86 443 q 92 494 89 476 q 97 512 96 511 q 103 529 99 513 q 104 543 110 561 l 103 540 q 110 567 101 542 l 108 560 q 116 579 111 565 q 122 592 121 593 q 124 597 122 592 q 127 603 126 601 q 130 608 128 606 q 133 617 132 611 q 137 626 135 622 q 139 632 139 631 q 140 637 139 633 q 142 642 142 640 q 144 646 143 644 q 144 648 144 647 q 146 654 143 649 q 174 697 154 668 q 200 725 194 726 q 206 728 201 724 q 214 735 211 733 q 223 740 217 736 q 233 747 229 744 q 244 756 236 749 l 261 771 q 269 775 261 771 q 281 781 276 779 l 282 783 q 317 799 296 792 l 319 799 q 342 801 332 799 l 344 800 q 358 801 351 801 q 372 803 365 801 q 422 803 389 807 q 475 785 454 799 q 503 767 496 771 q 529 751 511 764 q 560 746 553 735 q 569 757 567 757 z "},"H":{"ha":760,"x_min":40,"x_max":751,"o":"m 110 784 q 120 784 110 784 q 131 785 131 783 q 140 786 132 786 q 149 788 149 786 q 227 788 149 789 q 317 784 306 788 q 340 767 328 781 q 356 736 353 754 q 325 686 360 707 q 293 681 315 681 q 264 679 271 681 q 251 664 254 678 q 247 615 247 650 q 248 567 246 579 q 251 540 250 554 q 254 515 253 518 q 256 491 256 513 q 260 464 257 469 q 278 449 267 449 q 290 447 290 449 q 352 443 290 444 q 421 441 414 442 q 440 440 428 440 q 471 441 453 439 q 500 444 489 443 q 511 447 511 446 q 515 447 511 447 q 523 450 519 447 q 521 458 526 453 q 528 474 525 463 l 529 549 q 531 627 529 624 q 531 636 533 631 q 529 642 529 642 q 529 647 529 642 q 489 676 529 674 q 452 694 469 678 q 435 732 435 711 q 452 770 435 753 q 483 788 469 788 q 531 789 496 789 q 575 789 565 789 q 590 789 585 789 q 599 788 599 789 q 624 786 621 783 q 656 789 626 789 q 697 786 686 789 q 735 757 722 779 q 726 697 751 722 q 686 681 711 681 q 642 664 649 681 q 639 643 639 658 q 643 618 639 628 l 642 443 q 637 411 639 433 q 631 372 635 389 q 630 338 628 356 q 633 315 632 319 q 634 303 633 310 q 635 285 635 296 q 637 263 636 274 q 638 225 638 253 q 642 186 638 199 l 640 156 q 661 83 635 92 q 684 81 663 83 q 722 65 706 79 q 740 36 738 50 q 728 -8 746 13 q 697 -31 710 -29 q 647 -32 683 -32 q 597 -30 599 -32 q 581 -28 596 -28 q 562 -30 567 -28 q 519 -32 557 -32 q 470 -26 482 -32 q 448 -8 458 -21 q 436 12 438 4 q 435 24 435 19 q 435 29 435 29 q 440 39 436 29 q 444 49 443 49 q 446 51 444 49 q 453 60 447 54 q 460 69 458 67 q 484 81 463 79 q 508 83 506 82 q 528 103 522 88 q 529 195 529 107 q 530 283 529 283 q 532 294 531 283 q 534 317 533 304 q 535 335 535 329 q 531 344 535 340 q 503 346 528 349 q 437 340 472 342 q 392 335 401 339 l 338 335 q 277 334 283 335 q 267 330 271 333 q 264 326 264 326 l 260 331 q 257 327 257 331 q 261 325 257 324 q 257 310 257 318 q 258 201 257 301 q 263 93 258 100 q 282 82 269 83 q 344 29 344 78 q 314 -12 344 -7 q 296 -17 308 -12 q 249 -26 276 -24 q 218 -31 221 -29 q 160 -32 215 -32 q 94 -30 104 -32 q 72 -19 85 -28 q 60 -7 60 -10 q 56 4 60 -4 q 55 36 47 21 q 67 57 63 51 q 112 75 85 75 q 144 77 139 75 q 151 93 149 79 q 153 122 154 107 q 151 151 151 136 q 149 172 150 167 q 148 188 149 178 q 146 201 147 199 l 143 222 q 143 375 142 222 l 143 381 q 146 401 146 379 l 143 419 q 143 421 143 418 q 143 435 143 424 q 144 587 142 586 q 145 594 146 588 q 144 602 144 601 q 143 630 143 603 q 135 665 143 657 q 106 676 126 674 q 75 687 85 678 q 64 699 65 696 q 60 705 63 701 q 56 708 57 708 q 54 710 56 707 q 53 753 40 735 q 77 778 65 771 q 90 785 89 786 q 110 784 90 785 z "},"I":{"ha":760,"x_min":103,"x_max":681,"o":"m 572 82 q 628 78 628 82 q 635 74 628 76 q 665 21 668 56 q 651 -11 663 -1 q 626 -24 639 -22 q 588 -22 614 -26 q 538 -22 561 -18 q 499 -28 514 -26 q 478 -31 483 -29 q 410 -32 474 -32 q 345 -31 346 -32 q 335 -28 344 -29 q 319 -27 326 -28 q 300 -25 313 -26 q 270 -19 288 -24 q 240 -17 253 -14 q 157 -21 183 -33 q 151 -18 151 -18 q 142 -11 151 -18 q 126 26 122 4 q 138 56 129 47 q 147 65 146 65 q 153 68 149 64 q 160 72 158 72 q 166 74 161 72 q 185 75 171 75 q 213 76 199 75 q 240 78 226 78 q 258 79 254 79 l 257 81 l 283 82 l 310 81 l 313 81 q 336 83 333 76 q 339 93 339 89 l 339 104 q 338 167 338 103 l 339 182 q 340 182 340 181 q 339 247 347 204 l 338 265 q 339 537 338 536 q 342 551 340 538 q 342 594 343 565 q 340 629 342 624 q 338 644 339 635 q 327 668 336 663 q 303 674 318 674 q 276 677 288 675 q 256 680 265 679 q 239 682 247 681 q 213 682 231 683 q 164 681 174 678 q 142 697 154 683 q 153 778 103 740 q 175 788 165 786 q 185 788 185 789 q 193 786 186 786 q 201 785 200 786 q 213 783 203 785 q 226 781 222 782 q 240 781 229 779 q 262 783 251 782 q 272 785 272 785 q 280 786 272 786 q 288 788 288 786 q 323 789 288 789 q 388 790 358 789 q 419 788 418 790 q 428 786 421 786 q 439 783 435 786 q 465 783 443 781 q 524 786 488 786 q 561 788 560 786 q 590 789 563 789 q 628 786 617 789 q 653 769 639 783 q 667 716 681 742 q 636 682 654 690 q 615 680 633 681 q 584 677 596 679 q 526 675 572 675 q 465 672 468 675 q 461 671 463 669 q 451 596 451 672 q 450 515 451 519 q 447 496 449 511 q 446 458 446 481 q 447 427 446 435 q 448 409 447 419 q 450 400 449 399 q 451 251 451 396 q 454 99 451 107 q 492 82 460 82 q 496 81 496 82 q 508 79 496 79 q 519 81 519 79 l 561 82 l 569 82 l 572 82 z "},"J":{"ha":760,"x_min":90,"x_max":742,"o":"m 261 753 q 322 790 278 788 q 344 789 342 790 q 351 788 347 788 q 356 789 356 788 q 413 790 357 790 q 472 789 469 790 q 488 787 474 788 q 505 788 503 786 q 572 790 507 790 q 637 789 636 790 q 643 788 638 788 q 656 788 649 788 q 665 789 664 788 q 678 789 665 790 q 736 751 719 788 q 739 739 740 743 q 739 729 738 735 q 724 697 742 713 q 695 678 706 681 q 656 676 685 676 q 619 678 628 676 q 578 675 589 685 q 576 667 574 671 q 577 663 578 664 q 576 657 576 663 q 575 538 575 651 q 573 420 575 425 q 569 390 571 415 q 564 349 567 365 q 565 308 561 332 q 568 272 568 285 q 569 245 568 260 q 569 218 571 231 q 568 201 568 206 q 567 178 568 196 q 565 143 565 161 q 563 118 565 125 q 561 104 561 111 q 547 71 561 97 q 410 -39 507 -11 q 315 -49 354 -54 q 267 -40 276 -43 q 258 -36 258 -36 l 258 -35 l 238 -26 q 221 -22 228 -22 q 188 0 214 -21 q 144 43 161 21 q 126 71 126 65 q 119 88 125 76 l 100 133 q 96 199 90 167 q 157 285 106 260 q 247 275 206 308 q 276 182 296 236 q 271 171 275 175 q 263 159 267 167 q 246 142 258 151 q 234 122 233 132 q 250 98 235 111 q 267 81 265 85 q 281 75 269 78 l 278 78 q 334 65 308 65 q 365 65 360 65 q 376 67 369 65 q 387 69 382 68 q 397 72 392 69 q 403 74 403 75 q 413 79 403 74 q 431 92 424 85 q 440 103 438 100 q 445 109 443 107 q 450 115 447 111 q 456 124 453 119 q 469 188 472 143 q 465 235 467 232 q 463 247 464 239 q 461 254 463 256 q 460 312 461 261 q 461 361 460 363 l 464 378 q 465 388 467 379 q 463 406 464 396 q 462 417 463 415 q 461 465 461 418 q 463 514 461 513 q 464 538 464 515 q 463 562 464 560 q 461 603 461 564 q 460 653 461 643 q 421 676 457 674 q 403 678 410 678 q 388 677 396 679 q 340 676 379 675 q 289 685 301 678 q 260 718 264 697 q 261 753 256 739 z "},"K":{"ha":760,"x_min":61,"x_max":747,"o":"m 142 783 q 149 784 142 783 q 178 783 156 785 q 217 780 200 781 q 243 777 233 779 q 261 774 253 775 q 284 772 269 774 q 299 772 299 769 q 301 774 300 774 q 303 774 303 774 q 326 778 303 775 q 361 769 349 782 q 374 740 374 756 q 363 719 374 725 q 360 718 360 718 q 340 718 357 714 q 306 736 324 722 q 263 740 281 756 q 190 707 228 714 q 178 701 182 706 q 147 690 168 694 q 111 693 125 685 q 93 708 97 701 q 88 715 89 715 q 86 724 88 715 q 92 754 82 740 q 118 778 107 775 q 129 781 129 781 q 142 783 129 782 m 449 754 l 454 764 q 464 774 454 769 q 474 781 474 779 q 481 784 474 782 q 490 788 489 786 q 553 789 492 789 q 620 787 615 789 q 658 785 625 785 q 699 783 690 786 q 721 771 708 781 q 743 729 747 750 q 727 697 739 708 q 706 680 715 685 q 673 675 696 675 q 641 673 650 675 q 629 672 632 671 q 613 662 626 672 q 593 639 600 651 q 583 622 586 626 q 578 614 581 618 q 558 588 576 610 q 533 558 539 565 q 523 545 528 550 q 515 537 518 540 q 508 530 513 533 q 499 522 504 526 q 486 509 494 517 q 472 489 478 501 q 462 472 465 476 q 454 463 458 468 q 444 451 450 457 q 439 438 439 444 q 442 426 439 432 q 451 410 444 421 q 460 393 458 399 q 465 380 461 388 q 473 360 468 372 q 494 329 478 349 q 513 305 510 310 q 519 297 515 300 q 526 288 522 293 q 534 274 529 282 q 544 259 539 267 q 551 247 549 251 q 558 235 554 242 q 570 217 563 228 q 580 201 578 206 q 593 178 582 196 q 610 149 610 154 q 617 128 610 144 q 628 106 625 113 q 637 88 631 100 q 647 72 643 75 q 656 68 650 68 q 674 71 661 68 q 727 63 711 79 q 743 31 743 47 q 731 1 743 14 q 704 -10 718 -11 q 683 -14 690 -10 q 653 -22 675 -18 q 624 -26 632 -25 q 611 -27 617 -26 q 597 -28 606 -28 q 587 -31 588 -29 q 542 -32 586 -32 q 485 -28 497 -32 q 463 -14 474 -25 q 449 3 451 -3 q 447 9 446 10 q 447 16 449 8 q 447 24 446 24 q 449 31 447 25 q 451 40 450 38 q 451 46 451 43 q 456 53 451 49 q 459 60 460 58 q 465 67 458 61 q 481 76 472 72 q 494 81 489 81 q 492 124 521 81 q 486 133 489 128 q 477 147 483 138 q 465 167 471 157 q 456 183 460 176 q 445 200 451 189 q 433 221 439 211 q 422 238 426 231 q 412 254 418 244 q 406 266 406 264 q 403 274 407 268 q 400 282 400 279 q 393 295 400 285 q 383 310 386 306 q 377 319 381 315 q 369 329 374 322 q 348 339 358 346 q 333 326 338 332 q 326 315 329 319 q 324 310 324 311 q 308 289 322 306 q 292 264 294 272 q 290 183 290 256 q 291 105 290 111 q 299 90 292 99 q 324 82 307 82 q 368 66 350 82 q 388 35 386 50 q 388 16 390 19 q 381 3 386 13 q 364 -17 376 -7 q 342 -31 351 -28 l 324 -31 l 297 -29 l 271 -31 l 197 -32 q 126 -29 139 -32 q 101 -14 114 -26 q 101 64 61 26 q 135 81 118 79 q 161 85 153 82 q 176 122 176 90 q 178 160 176 153 q 178 171 179 167 q 176 277 176 175 q 178 381 176 379 q 179 397 179 382 q 178 413 179 411 q 176 478 176 414 q 177 542 176 542 q 178 549 178 543 q 180 557 179 556 q 182 572 181 558 q 186 600 183 586 q 190 622 189 614 q 192 639 190 631 q 194 650 194 647 l 201 667 l 207 675 q 219 683 207 676 q 245 692 231 689 q 260 694 260 696 q 264 692 260 692 q 265 690 265 692 q 267 686 264 686 q 269 685 269 686 q 271 683 269 683 q 283 631 278 674 q 289 589 288 589 q 290 529 290 589 q 293 467 290 469 q 317 481 300 460 q 343 510 335 501 q 358 528 356 525 q 360 526 358 526 q 366 533 361 526 q 372 540 371 540 q 377 543 374 539 q 381 547 381 547 q 384 550 382 547 q 387 553 386 553 q 395 560 388 553 q 403 570 403 568 q 406 575 404 572 q 410 581 408 578 q 415 588 413 583 q 418 592 418 592 q 423 599 418 593 q 429 607 428 604 q 447 631 431 610 q 481 675 481 671 q 469 688 481 679 q 453 706 458 696 q 446 722 447 715 q 444 736 444 728 q 447 749 444 744 q 449 754 449 753 z "},"L":{"ha":760,"x_min":53,"x_max":731,"o":"m 703 5 q 701 -1 703 5 q 685 -19 700 -7 q 656 -31 671 -31 q 631 -31 640 -32 q 615 -31 622 -31 q 563 -32 608 -32 q 516 -29 518 -32 q 482 -32 514 -26 l 453 -31 q 453 -29 454 -31 q 432 -32 449 -28 l 331 -32 q 215 -30 218 -32 q 196 -28 211 -28 q 181 -28 181 -28 l 156 -31 l 133 -32 q 94 -22 111 -32 q 78 -10 78 -12 q 74 -2 78 -8 q 71 5 71 4 q 69 9 71 6 q 66 33 67 13 q 92 69 65 54 q 97 72 96 72 l 108 75 q 117 76 107 76 q 154 89 154 76 q 151 92 154 92 l 149 92 q 155 164 154 101 q 156 227 156 226 q 158 234 157 228 q 161 256 158 240 q 163 279 164 272 q 160 294 161 286 q 159 305 160 303 q 158 313 158 307 q 156 320 157 319 q 156 481 156 321 q 154 650 156 642 q 125 675 151 672 q 86 688 99 678 q 63 744 53 715 q 97 783 72 772 q 147 788 107 788 q 188 788 186 789 q 197 787 193 785 q 238 788 201 789 q 276 787 275 788 q 289 785 276 786 q 312 783 301 785 q 342 783 322 782 q 388 775 376 786 q 394 769 389 774 q 407 707 424 742 q 368 679 397 686 q 360 676 364 678 q 324 675 356 675 q 284 672 292 675 q 273 661 276 668 q 269 644 269 654 q 268 590 268 635 q 267 542 268 546 q 265 528 265 538 q 267 514 265 518 q 268 456 268 510 q 265 381 268 401 q 262 344 263 361 q 260 318 261 328 q 260 274 257 294 q 265 240 264 253 q 267 224 265 228 q 269 163 268 219 q 271 101 269 107 q 292 82 275 86 q 385 82 294 82 q 477 81 475 82 q 486 79 479 79 q 534 73 515 76 q 559 71 553 69 q 571 72 565 72 q 581 74 576 72 q 588 76 585 75 q 592 76 592 76 q 594 76 592 76 q 601 79 596 76 q 608 108 606 82 q 610 138 610 135 q 612 149 611 142 q 615 169 613 157 q 617 217 617 181 q 633 297 618 279 q 636 302 636 301 q 641 308 636 303 q 646 313 646 313 q 660 320 644 317 q 687 319 676 324 q 704 310 697 315 q 728 253 731 288 q 727 230 728 242 q 726 211 726 218 q 724 195 725 204 q 722 170 722 186 q 719 132 721 154 q 716 95 717 110 q 715 75 715 81 q 713 51 714 69 q 708 24 711 32 q 703 5 706 17 z "},"M":{"ha":760,"x_min":15,"x_max":786,"o":"m 75 676 q 24 724 36 685 q 37 766 15 747 q 67 786 58 785 q 150 788 76 788 q 224 788 224 789 q 232 784 225 786 q 241 781 239 782 q 247 778 243 779 q 256 772 250 778 q 263 767 263 767 q 272 758 264 767 q 279 742 279 749 q 281 725 279 735 q 285 708 283 715 q 292 687 286 701 q 301 670 299 672 q 309 649 303 668 q 328 591 315 631 q 347 528 340 551 q 359 492 354 506 q 366 462 364 478 q 372 439 368 446 q 377 428 375 432 q 381 422 379 424 q 385 415 382 419 q 395 408 392 406 q 401 409 399 410 q 406 414 404 408 q 410 422 408 419 l 418 438 q 419 443 418 439 q 422 451 421 447 q 422 455 422 454 q 424 463 422 456 q 425 470 425 469 q 429 485 425 471 q 432 499 433 500 q 445 545 435 513 q 461 592 456 578 q 510 744 508 744 q 515 749 513 743 q 519 757 518 756 q 523 761 521 758 q 526 764 525 764 q 531 769 526 764 q 543 775 536 774 q 581 776 557 781 q 619 776 603 772 q 649 781 635 779 q 665 783 663 782 q 680 784 668 783 q 692 785 692 785 q 705 785 693 786 q 718 785 717 785 q 730 783 719 786 q 753 763 740 779 q 744 692 781 725 q 715 676 732 681 q 685 654 690 671 q 683 545 683 651 q 683 436 683 439 q 683 429 682 433 q 683 364 683 425 q 683 297 683 303 q 684 210 683 292 q 683 124 685 129 q 680 106 681 118 q 678 88 679 94 q 679 78 678 82 q 700 74 681 74 q 724 74 719 75 q 731 73 729 72 q 744 63 733 74 q 738 -21 786 17 q 699 -32 725 -31 q 668 -31 674 -33 q 632 -32 653 -25 l 581 -32 q 501 -21 501 -32 q 493 -12 501 -21 q 481 5 485 -4 q 477 15 478 14 q 476 24 476 17 q 473 32 475 31 q 478 47 471 33 q 535 82 494 79 q 565 94 554 83 l 565 90 q 565 88 565 89 q 567 88 565 88 q 569 92 568 88 l 575 146 q 574 179 576 163 q 570 197 571 196 q 569 264 569 197 q 571 332 569 331 q 572 339 572 333 q 574 349 572 344 q 574 360 575 354 q 572 373 572 367 q 570 380 571 379 q 569 439 569 381 q 567 503 569 497 q 562 509 565 508 q 553 502 558 510 q 535 453 549 494 q 520 410 522 411 q 510 390 518 408 q 499 365 501 371 q 494 349 496 358 q 487 323 492 339 q 481 300 482 307 q 475 283 479 293 q 469 267 471 274 q 458 240 467 261 q 446 210 449 218 q 403 176 438 175 q 385 179 393 176 q 365 183 376 182 q 326 231 344 185 l 321 240 q 317 250 319 239 q 311 269 314 261 q 303 292 308 276 q 297 314 299 308 q 289 338 294 319 q 283 362 283 356 q 279 377 282 368 q 274 400 276 386 q 269 415 271 414 q 266 420 268 415 q 262 428 264 425 q 250 458 260 431 q 228 508 235 508 q 219 501 221 508 q 218 464 218 494 q 217 426 218 433 q 215 414 215 418 q 213 406 214 410 q 213 397 213 403 q 215 379 214 390 q 217 363 215 368 q 218 310 218 358 q 217 257 218 261 q 215 243 215 253 q 213 228 214 233 q 212 216 213 224 q 210 199 211 208 q 210 177 210 189 q 212 156 211 165 q 213 121 213 147 q 215 86 214 94 q 246 75 218 75 q 313 24 307 75 q 285 -22 315 -3 q 266 -30 276 -28 q 209 -32 256 -32 q 163 -30 163 -32 q 139 -28 163 -28 q 96 -31 113 -28 l 88 -31 q 86 -30 89 -31 q 74 -28 83 -29 q 41 -10 53 -25 q 30 6 29 4 q 29 13 31 7 q 28 28 28 18 q 31 42 29 38 q 34 51 33 47 q 40 60 35 54 q 48 69 46 65 q 58 76 50 72 q 75 81 65 79 q 99 94 94 85 q 104 132 104 104 q 105 160 104 160 q 107 174 106 161 q 110 201 108 186 q 110 229 113 217 q 108 261 108 242 q 106 283 107 281 q 104 326 104 286 q 106 367 104 365 q 107 376 107 368 q 106 387 107 385 q 104 456 104 389 q 106 523 104 522 q 107 541 107 524 q 106 560 107 558 q 104 606 104 563 q 103 654 104 649 q 75 676 99 671 m 569 543 q 569 545 569 543 q 567 544 569 547 q 566 536 564 540 q 569 535 568 532 q 569 543 569 539 z "},"N":{"ha":760,"x_min":40,"x_max":740,"o":"m 144 789 q 201 788 200 789 q 214 785 201 788 q 228 781 226 782 q 238 774 229 779 q 261 749 253 764 q 274 728 269 735 q 287 708 279 722 q 299 685 294 693 q 307 669 303 678 q 313 657 311 660 q 321 643 315 654 q 333 620 326 632 q 342 602 339 608 q 349 588 344 596 q 362 565 354 581 q 378 532 369 549 q 387 514 388 515 q 389 506 386 513 q 395 490 392 499 q 401 476 399 481 q 408 463 403 472 q 417 448 414 454 q 421 442 421 442 l 422 442 q 423 440 421 440 q 432 425 425 439 q 440 411 439 411 q 456 385 442 411 q 472 355 469 358 q 488 322 474 351 q 503 291 503 293 q 506 282 503 289 q 511 268 508 275 q 519 254 514 261 q 529 239 524 247 q 540 231 535 231 q 547 239 546 231 q 548 247 547 247 q 549 256 549 247 q 551 268 550 264 q 550 290 551 272 q 548 310 549 308 q 547 346 547 311 q 546 382 547 381 q 544 413 544 383 q 544 451 544 443 l 546 515 q 547 515 547 514 q 549 538 547 529 q 551 585 554 567 q 547 612 549 604 q 545 619 546 619 q 544 633 544 619 q 542 658 544 647 q 516 675 538 674 q 494 678 494 676 q 488 682 493 679 q 463 700 471 689 q 455 712 456 711 q 451 719 454 713 q 448 725 449 725 q 447 739 447 725 q 465 770 447 753 q 482 782 482 788 q 486 782 482 781 q 509 783 496 785 q 528 782 522 782 q 572 783 551 785 q 604 783 592 782 q 617 785 617 785 q 619 786 617 785 q 635 786 628 786 q 642 788 642 786 q 683 788 674 789 q 692 788 692 788 l 692 786 q 721 765 714 772 q 731 746 728 758 q 713 692 740 711 q 685 685 704 688 q 660 679 665 682 q 652 640 649 672 q 657 606 656 608 q 658 496 658 604 l 658 393 q 655 378 656 385 q 653 366 654 371 q 652 353 653 361 q 649 335 651 344 q 643 300 647 326 q 646 276 644 282 q 648 260 647 269 q 649 246 649 251 q 651 228 650 240 q 653 206 653 215 q 654 142 654 196 q 653 77 654 89 q 653 57 653 65 q 644 -7 658 13 q 614 -29 631 -26 q 540 -12 568 -40 q 517 21 525 3 q 502 49 508 39 q 491 71 496 60 q 472 106 486 82 q 455 138 458 131 q 447 155 451 146 q 442 167 442 164 q 438 177 443 169 q 428 199 433 185 q 422 215 424 213 q 417 223 419 218 q 412 231 414 228 q 406 240 410 233 q 398 251 401 246 q 383 276 394 256 q 367 306 372 297 q 361 322 363 315 q 355 338 360 328 q 347 356 350 349 q 340 374 344 364 q 326 417 331 396 q 319 442 322 438 q 313 451 315 447 q 296 478 301 472 q 288 487 290 483 q 285 492 286 490 q 282 497 283 493 q 278 503 281 500 q 268 517 275 506 q 251 526 253 539 l 247 446 q 248 417 247 425 q 249 403 249 410 q 251 388 250 396 q 253 374 253 381 q 255 364 254 368 q 256 234 256 360 q 258 99 256 108 q 296 81 263 83 q 303 79 301 81 q 310 76 304 78 q 316 73 315 74 q 322 68 317 72 q 344 38 340 57 q 337 -6 350 8 q 315 -25 324 -21 q 269 -26 304 -31 q 201 -22 214 -19 q 169 -27 189 -25 q 144 -31 149 -29 q 124 -32 139 -32 q 79 -12 97 -31 q 79 64 40 25 q 93 73 90 74 q 99 74 96 72 q 108 76 106 76 q 124 76 110 76 q 142 78 139 76 q 147 111 147 79 q 143 143 146 143 l 142 274 q 142 357 142 294 q 143 420 142 419 q 144 426 144 421 q 143 433 144 432 q 142 502 142 435 q 143 569 142 569 q 146 587 144 569 q 146 621 147 604 q 143 638 144 638 q 142 647 142 638 q 116 675 140 669 q 80 693 92 681 q 64 717 68 706 q 67 749 64 740 q 69 757 69 757 q 81 773 67 763 q 110 788 94 783 l 144 789 z "},"O":{"ha":760,"x_min":65,"x_max":725,"o":"m 190 729 q 444 813 299 833 q 497 799 468 810 q 526 787 525 789 q 532 781 526 785 q 541 774 538 776 q 550 767 544 771 q 581 735 569 753 q 606 706 592 718 q 628 683 621 693 q 653 654 636 672 q 677 622 669 636 q 687 605 685 607 q 699 576 689 603 q 713 522 708 549 q 718 490 717 496 q 719 477 719 483 q 719 463 718 471 q 719 430 719 456 q 720 398 719 404 q 722 385 721 392 q 724 370 724 378 q 724 338 725 363 q 722 310 722 313 q 720 297 721 307 q 717 271 719 286 q 713 250 715 256 q 709 241 710 244 q 706 232 708 238 q 700 206 700 218 q 690 165 700 194 q 667 116 679 136 q 650 90 654 96 q 641 76 646 83 q 628 59 636 69 q 618 49 619 49 q 612 46 617 50 q 604 40 607 42 q 590 28 601 38 q 571 13 579 18 q 551 -3 563 7 q 516 -25 535 -18 q 492 -34 497 -32 q 474 -39 488 -36 q 428 -49 436 -49 q 413 -49 419 -49 q 388 -49 407 -50 q 364 -47 368 -49 q 352 -43 360 -44 q 339 -40 344 -42 q 324 -37 333 -39 q 274 -22 292 -33 q 243 -3 256 -10 q 176 60 200 22 q 159 78 172 67 q 139 99 146 89 q 131 108 132 108 q 128 113 131 108 q 121 121 125 118 q 96 174 111 131 q 71 274 74 243 q 67 312 68 304 q 65 343 65 319 q 65 381 65 367 q 66 404 65 396 q 67 413 67 413 q 70 421 68 413 q 71 442 72 429 q 71 463 69 456 q 74 483 72 471 q 76 499 75 494 q 81 521 78 503 q 88 541 85 539 q 92 550 90 543 q 91 558 93 557 q 100 586 89 560 q 130 650 111 613 q 190 729 149 688 m 412 702 q 403 703 412 702 q 378 701 394 704 q 356 697 363 697 q 347 697 350 697 q 338 694 343 696 q 327 691 332 693 q 310 683 322 689 q 246 626 276 669 q 237 615 242 621 q 228 603 232 610 q 218 589 224 596 q 202 547 210 576 q 194 512 194 518 q 191 490 194 506 q 187 468 188 475 q 185 457 186 461 q 183 445 183 453 q 182 432 183 438 q 180 407 181 426 q 178 383 179 388 q 176 374 176 378 q 174 363 175 369 q 174 331 172 344 q 177 303 175 318 q 181 278 179 289 q 184 263 183 268 q 188 246 185 257 q 194 220 190 235 q 201 199 199 206 q 208 182 204 193 q 226 141 211 171 q 242 107 242 111 q 243 102 243 103 q 243 97 243 101 q 264 82 244 92 q 283 74 283 72 q 285 76 283 76 q 288 75 286 75 q 290 74 289 75 q 296 73 290 74 q 317 69 301 72 q 340 65 333 65 q 356 62 346 64 q 399 61 367 60 q 438 67 431 63 q 454 74 444 71 q 553 151 513 96 q 569 172 564 167 q 579 190 574 178 q 586 203 585 201 q 590 210 588 206 q 595 219 592 215 q 600 240 599 222 q 603 263 601 258 q 604 271 604 267 l 603 274 q 603 278 601 274 q 611 358 610 297 l 613 371 q 613 483 626 443 q 599 524 600 524 l 590 540 l 572 582 q 549 620 563 603 q 538 638 536 638 q 533 645 539 638 q 526 653 526 653 q 514 667 526 654 q 457 696 492 690 q 449 698 453 697 q 437 699 444 699 q 412 702 429 700 z "},"P":{"ha":760,"x_min":94,"x_max":724,"o":"m 238 -32 q 222 -29 228 -29 q 213 -28 217 -29 q 185 -28 208 -28 q 118 -8 138 -28 q 112 -3 113 -3 q 108 0 111 -3 q 104 42 94 22 q 128 70 114 61 q 158 81 142 79 q 190 94 185 83 q 196 119 196 104 q 196 139 196 135 q 197 147 196 146 q 197 150 197 147 l 196 157 l 196 211 q 196 272 196 256 q 196 286 196 288 q 199 346 201 319 q 196 371 197 372 l 196 464 q 196 531 196 476 q 197 589 196 586 q 198 601 200 593 q 196 614 196 608 q 196 640 194 625 q 175 674 197 668 q 162 676 172 675 q 143 678 151 676 q 121 692 135 679 q 108 708 107 706 q 106 719 110 711 q 102 728 103 728 q 102 740 101 728 q 119 770 103 753 q 153 788 136 788 q 171 788 171 789 q 183 786 171 786 q 197 788 196 786 q 213 789 197 789 q 234 789 228 789 q 252 789 240 789 q 342 788 264 789 q 420 787 419 788 q 428 786 421 786 q 435 785 435 786 q 441 784 436 785 q 454 783 446 783 q 465 782 463 782 q 517 776 490 785 q 554 767 543 768 q 577 761 565 765 q 590 758 589 757 q 610 747 592 758 q 671 690 649 724 q 680 674 678 681 q 684 664 682 668 q 690 647 686 660 q 699 625 694 635 q 706 609 704 615 q 708 601 707 603 q 713 589 710 600 q 688 453 724 521 q 677 436 682 440 q 665 421 672 432 q 640 400 657 410 q 611 377 624 390 q 587 358 599 364 q 572 348 575 351 q 553 339 569 344 q 508 328 536 333 q 472 325 481 324 q 432 329 463 326 q 389 337 401 332 q 375 342 376 342 l 371 344 q 369 347 369 344 q 367 349 369 349 q 366 352 365 349 q 364 356 367 356 q 369 371 361 356 q 374 389 376 386 q 362 392 371 392 q 351 392 353 393 q 346 381 349 390 q 335 356 338 356 q 326 350 332 356 q 307 340 321 344 q 294 311 290 336 q 297 293 296 303 q 298 277 297 283 q 299 260 299 271 q 301 242 300 249 q 302 226 301 236 q 306 201 303 217 q 309 147 308 186 q 310 103 310 108 q 318 91 311 97 q 328 83 325 85 q 356 82 331 82 q 394 81 382 82 q 422 67 407 79 q 444 26 446 49 q 428 -11 443 4 q 403 -29 414 -26 q 315 -32 393 -32 l 238 -32 m 331 421 l 336 419 l 349 421 q 378 422 346 421 q 412 423 411 422 q 415 424 413 424 q 422 424 417 424 q 442 426 428 425 q 510 438 506 433 q 515 441 514 442 q 515 441 515 440 q 521 444 515 442 q 578 483 561 458 q 595 510 594 507 q 597 518 596 514 q 599 526 599 522 q 601 536 600 529 q 601 544 603 543 q 600 561 600 546 q 543 654 600 615 q 533 660 533 660 q 531 662 532 660 q 515 669 531 664 q 443 676 490 681 l 399 675 q 349 676 351 675 q 335 678 347 678 q 317 678 322 679 q 303 658 304 676 q 305 619 303 639 q 308 594 307 599 q 309 551 308 590 q 308 508 310 513 q 306 495 307 504 q 305 483 306 486 q 304 476 304 481 q 302 455 304 471 q 301 434 300 439 q 315 425 303 429 q 331 421 326 421 z "},"Q":{"ha":760,"x_min":64,"x_max":747,"o":"m 154 685 l 174 704 q 182 710 175 704 q 197 722 189 717 q 208 729 206 728 q 212 731 210 731 q 215 733 214 732 q 219 735 217 735 q 224 738 221 735 q 235 744 228 740 q 246 751 243 747 q 261 769 254 765 q 268 772 268 772 q 270 774 268 772 q 273 776 272 775 q 276 778 274 776 q 279 781 278 779 q 282 783 281 782 q 291 788 283 783 q 306 795 299 792 q 314 799 313 799 q 322 802 315 800 q 329 806 328 804 q 399 817 342 821 q 460 810 457 813 q 469 806 464 807 q 482 801 474 804 q 495 799 490 797 q 530 785 500 800 q 574 758 560 769 q 597 739 589 746 q 628 706 606 732 q 657 664 651 681 l 663 656 q 665 651 663 656 q 671 642 668 646 q 706 551 699 588 q 714 511 714 515 q 722 324 733 426 q 722 309 722 317 q 719 281 722 301 q 715 254 715 261 q 710 231 714 247 q 699 203 706 215 q 691 185 693 190 q 688 176 689 179 q 684 166 686 172 q 678 151 682 160 q 673 137 675 143 q 669 126 671 131 q 665 115 667 121 q 643 79 664 108 q 600 31 622 50 q 574 4 578 11 q 573 -26 567 -7 q 588 -53 579 -44 l 582 -50 q 596 -65 588 -65 q 608 -62 604 -64 q 607 -60 611 -60 l 606 -58 q 632 -19 626 -47 q 647 21 638 8 q 699 42 672 50 q 746 -24 747 26 q 724 -99 744 -76 q 717 -106 721 -103 q 710 -114 714 -110 q 704 -122 707 -118 q 685 -143 701 -125 q 572 -176 638 -190 q 560 -172 563 -175 q 549 -165 558 -169 q 526 -147 539 -160 q 502 -124 513 -133 q 485 -106 492 -115 q 476 -93 479 -96 q 468 -76 472 -90 q 426 -49 458 -44 q 283 -28 356 -57 q 252 -12 256 -17 q 242 -3 249 -8 q 220 15 235 1 q 192 40 206 29 q 162 72 178 50 q 139 103 146 94 q 128 117 132 111 q 122 125 124 124 q 117 133 121 126 q 111 140 113 139 q 101 162 110 140 q 87 201 92 183 q 78 233 82 219 q 70 280 74 246 q 68 315 67 314 q 69 326 69 315 q 72 349 69 338 q 72 376 74 360 q 69 403 69 392 q 68 415 68 415 q 71 461 64 418 q 144 672 90 590 q 154 685 153 685 m 536 636 q 390 701 476 706 q 367 699 371 700 q 360 697 364 699 q 335 692 357 697 q 297 674 313 686 q 283 659 282 661 q 262 635 283 657 q 226 585 240 614 q 208 554 213 557 q 199 531 200 547 q 192 494 197 514 q 183 444 186 474 q 179 413 181 414 q 175 394 178 413 q 175 349 171 360 q 181 317 179 339 q 197 232 185 268 q 225 179 214 181 q 238 189 232 179 q 249 206 243 199 q 260 220 260 221 q 268 226 261 219 q 275 235 275 233 q 300 256 274 239 q 458 263 379 301 q 497 237 489 247 q 507 222 504 226 q 513 213 510 218 q 519 206 517 208 q 524 199 521 203 q 529 193 526 196 q 538 175 532 190 q 560 165 549 151 q 578 197 571 178 q 588 216 586 215 q 592 224 590 217 q 595 231 594 231 q 597 235 596 232 q 600 242 599 239 q 601 247 601 246 q 603 249 601 249 q 607 260 606 250 q 609 278 608 271 q 610 289 610 286 q 610 301 610 292 q 612 317 611 310 q 611 340 613 325 q 611 363 610 354 q 612 387 613 371 q 613 421 611 403 q 608 494 614 471 q 597 536 601 517 q 571 599 589 575 q 551 622 553 622 q 536 636 549 622 m 435 135 q 434 137 435 135 q 429 144 433 139 q 421 153 425 149 q 410 160 417 158 q 396 165 403 163 q 360 164 378 175 q 324 96 324 143 q 328 85 324 76 q 329 83 329 85 q 396 65 340 65 q 428 70 421 65 q 438 81 436 75 q 442 88 440 88 q 442 108 446 86 q 435 135 438 131 z "},"R":{"ha":760,"x_min":78,"x_max":772,"o":"m 225 790 q 226 790 225 790 q 251 790 228 790 q 277 789 275 790 q 342 788 279 788 q 408 789 406 788 q 472 789 414 793 q 534 781 529 785 q 548 774 539 776 q 558 769 557 771 q 579 762 576 760 q 600 754 582 764 q 690 650 664 715 q 705 580 706 611 q 699 538 704 549 q 693 508 694 528 q 668 456 692 489 q 622 406 644 422 q 597 385 600 390 q 608 361 594 381 q 653 247 650 303 q 652 242 653 242 q 652 228 651 242 q 651 199 653 215 q 651 172 649 183 q 654 146 653 160 q 656 131 656 132 q 658 115 657 131 q 667 90 660 99 q 696 82 675 82 q 761 43 746 81 q 747 -8 772 14 q 706 -27 726 -26 q 679 -30 685 -28 q 639 -33 674 -32 q 588 -29 604 -33 q 561 -11 572 -25 q 547 14 549 6 l 549 17 q 547 71 544 43 q 551 101 550 99 q 553 117 551 103 q 556 138 554 131 q 558 148 557 144 q 560 156 558 151 q 557 173 561 160 q 551 201 553 186 q 548 220 549 217 q 544 234 547 224 q 540 246 542 244 q 539 249 539 249 l 526 276 q 444 338 501 321 q 431 343 432 342 q 410 349 429 344 q 354 353 371 358 q 324 348 338 349 q 302 344 310 347 q 292 334 294 342 q 290 317 290 326 q 288 305 289 308 q 288 295 288 301 q 289 198 289 289 q 290 101 289 107 l 299 88 q 297 83 292 85 q 307 81 301 81 q 313 81 313 81 q 336 82 318 85 q 389 43 375 75 q 372 -17 403 13 q 349 -30 360 -28 q 312 -32 338 -32 q 283 -31 286 -32 q 268 -30 278 -28 q 198 -32 258 -32 q 125 -28 138 -32 q 104 -14 113 -24 q 93 0 96 -4 q 88 13 86 13 q 89 20 89 13 q 90 28 89 28 q 93 40 90 28 q 107 62 96 53 q 120 72 118 71 q 128 76 122 74 q 135 80 135 79 q 135 81 135 81 q 175 107 171 81 q 175 260 175 111 q 176 410 175 410 q 179 431 178 411 q 182 461 181 450 q 185 509 188 490 q 182 535 182 528 q 181 549 182 542 q 178 600 179 556 q 177 647 178 644 q 176 651 176 650 q 174 654 175 651 q 163 672 171 668 q 139 677 156 675 q 111 688 122 679 q 83 740 78 710 q 100 771 86 757 q 127 787 114 785 q 143 790 140 789 q 184 790 146 790 q 225 790 222 790 m 413 676 q 390 676 413 676 q 362 678 367 676 q 344 681 357 679 q 290 681 293 685 q 286 663 286 676 q 288 647 286 649 q 289 586 289 644 q 288 524 289 528 q 286 501 283 514 q 288 501 288 500 l 292 481 q 310 464 297 465 q 369 463 322 463 q 417 463 417 464 q 429 460 418 461 q 442 459 440 458 q 444 458 443 460 q 467 459 444 457 q 508 467 489 461 q 528 476 528 474 l 549 493 q 563 506 561 501 l 561 507 q 565 513 560 507 q 583 607 606 558 q 571 628 576 621 l 571 629 q 571 633 572 629 q 561 644 569 636 q 551 653 553 651 q 540 661 550 654 q 524 669 531 668 q 509 672 517 669 q 497 673 501 674 q 476 674 493 672 q 413 676 458 676 z "},"S":{"ha":760,"x_min":113,"x_max":722,"o":"m 385 809 q 386 809 385 809 q 395 810 386 810 q 406 811 404 810 q 434 810 408 813 q 481 799 460 807 q 522 783 503 792 q 545 773 540 774 q 553 774 550 772 q 559 781 556 776 q 563 784 563 785 q 569 788 564 783 q 578 794 575 792 q 582 799 581 796 q 599 803 583 803 q 639 787 622 803 q 658 755 656 771 q 658 735 660 739 q 653 689 656 732 q 652 638 651 646 q 654 622 653 631 q 656 604 656 613 q 657 586 657 596 l 657 576 q 658 552 658 576 q 656 515 658 528 q 639 492 653 503 q 560 499 594 454 q 551 514 551 510 q 549 526 551 518 q 549 544 547 535 q 546 565 551 554 q 535 589 536 588 q 532 596 533 590 q 524 615 531 601 q 411 697 488 692 q 388 701 393 699 q 376 701 383 704 q 346 696 368 699 q 276 665 301 690 q 248 628 251 640 q 244 601 244 615 q 300 526 244 558 q 326 513 321 514 q 331 510 331 511 q 349 501 331 508 q 369 495 368 494 q 378 493 371 496 q 395 487 386 490 q 417 478 404 483 q 435 472 431 474 q 448 467 439 471 q 513 442 457 463 q 669 347 626 400 q 678 334 674 342 q 684 326 682 326 q 702 297 686 326 q 719 235 718 268 q 715 151 722 190 q 679 74 708 113 q 667 57 675 68 q 638 25 660 46 q 568 -21 597 -12 q 551 -31 564 -22 q 503 -47 539 -40 q 466 -51 467 -53 q 456 -48 465 -49 q 434 -46 446 -47 q 412 -44 422 -44 q 396 -42 401 -43 q 384 -41 390 -42 q 358 -35 378 -40 q 335 -31 338 -31 q 313 -22 333 -32 q 267 5 293 -12 q 237 23 242 22 q 230 22 232 24 q 226 8 228 19 q 219 -10 224 -3 q 206 -26 215 -17 q 182 -40 189 -42 q 165 -39 175 -39 q 138 -26 151 -39 q 124 -11 125 -14 q 121 -1 124 -8 q 118 8 118 7 q 117 18 118 8 q 115 28 117 28 q 114 28 114 28 l 114 68 q 114 92 114 90 q 114 93 114 93 l 115 94 q 117 101 117 97 q 115 106 118 104 q 113 172 113 108 q 114 235 113 235 q 116 244 115 236 q 117 253 117 251 q 129 281 113 263 q 210 281 171 322 q 228 248 221 269 q 242 213 236 226 q 249 193 247 200 q 257 177 251 186 q 270 158 263 168 q 280 144 278 149 q 292 129 282 140 q 322 103 317 103 q 339 96 328 103 q 546 100 447 21 q 592 152 579 126 q 604 182 604 178 q 606 188 604 186 q 609 198 608 189 q 608 211 610 207 q 606 223 607 215 q 596 250 606 231 q 546 301 583 276 q 544 306 544 303 q 513 322 544 310 q 471 341 482 335 q 446 349 460 347 q 408 360 432 350 q 369 375 385 369 q 349 383 354 381 q 323 392 343 385 q 299 403 303 400 q 290 408 296 406 q 278 415 283 411 q 251 428 261 425 q 235 435 240 432 q 226 438 229 438 q 204 451 222 439 q 136 557 154 489 q 130 606 129 585 q 132 626 131 626 q 136 645 133 626 q 143 669 139 664 q 151 685 147 675 q 160 699 156 694 q 167 709 164 704 q 172 715 171 714 q 176 719 174 715 q 185 728 179 722 q 190 735 190 733 l 206 751 q 228 768 214 758 q 246 778 243 778 q 265 785 249 778 q 290 793 281 792 q 309 797 299 794 q 331 800 319 799 q 355 804 343 801 q 376 808 367 807 q 385 809 385 808 z "},"T":{"ha":760,"x_min":56,"x_max":731,"o":"m 97 778 l 101 781 q 104 781 101 781 q 109 783 107 782 q 116 784 111 783 q 121 785 121 785 q 130 786 121 786 q 139 788 139 786 q 194 789 138 789 q 298 787 297 789 q 308 784 299 785 q 322 782 318 783 q 351 782 336 779 q 375 785 367 785 q 384 788 383 786 q 491 789 385 789 q 598 788 597 789 q 617 785 599 786 q 639 786 636 783 q 659 788 642 789 q 687 785 676 788 q 710 769 697 782 q 726 744 724 756 q 729 710 729 733 q 728 684 729 688 q 726 673 726 681 q 724 658 725 665 q 725 639 724 650 q 727 626 726 628 q 728 620 728 624 q 729 556 729 617 q 728 490 729 494 q 726 481 726 486 q 726 475 726 475 q 726 460 731 471 q 700 426 718 438 q 635 438 661 401 q 622 456 625 449 q 618 463 619 463 q 615 560 615 471 q 612 658 615 650 q 601 671 608 667 q 535 675 593 675 q 469 672 478 675 q 456 660 460 668 q 451 603 451 653 q 450 551 451 554 q 449 537 449 547 q 450 525 449 526 q 451 469 451 524 q 450 410 451 414 q 447 392 449 406 q 443 362 446 379 q 440 322 440 344 q 438 292 439 299 q 438 261 436 286 q 438 216 439 236 q 440 179 438 196 q 444 139 443 163 q 447 110 446 115 q 448 93 447 106 q 458 78 449 81 q 512 73 481 69 q 549 77 543 76 q 563 77 556 78 q 572 78 571 76 q 589 69 575 81 q 601 -7 635 35 q 586 -22 592 -19 q 574 -28 581 -24 q 418 -33 556 -36 q 272 -31 271 -32 q 240 -26 265 -28 q 206 -19 214 -25 q 197 -14 197 -14 q 189 -8 196 -14 q 179 7 182 -1 q 190 59 168 38 q 226 81 211 81 q 242 81 242 82 q 258 78 243 79 q 275 77 274 76 q 286 78 276 78 q 296 81 296 79 q 306 82 296 82 q 332 93 326 82 q 338 118 338 104 q 339 132 338 132 q 343 154 344 132 q 340 182 342 179 q 339 186 339 185 q 338 190 339 188 q 338 199 338 193 q 339 283 338 281 q 340 289 340 286 l 339 296 q 336 353 333 293 q 339 413 339 413 l 342 442 q 342 473 342 443 q 339 499 342 503 l 338 533 q 336 654 338 647 q 313 675 332 672 q 260 675 308 675 q 187 672 194 675 q 174 662 179 669 q 169 590 169 654 q 168 524 169 526 q 166 508 167 521 q 167 494 165 496 q 169 471 174 490 q 151 436 165 451 q 118 419 138 419 q 106 421 118 419 q 76 435 94 422 q 57 465 58 447 q 56 563 56 482 q 57 644 56 643 q 59 663 58 646 q 63 699 60 679 q 66 731 65 718 q 69 745 67 743 q 74 753 71 747 q 85 767 76 760 q 95 776 93 775 q 97 778 97 778 z "},"U":{"ha":760,"x_min":49,"x_max":743,"o":"m 683 783 l 694 781 q 711 771 699 781 q 731 715 743 747 q 714 689 725 700 q 675 678 703 678 q 645 674 647 678 q 643 658 643 669 l 644 644 q 646 611 647 646 q 644 562 646 575 q 641 537 642 549 q 639 513 640 525 q 638 494 638 501 q 640 480 639 486 q 642 465 640 474 q 644 446 643 456 q 645 433 644 436 q 646 392 646 431 l 644 328 q 647 283 647 329 q 646 235 646 236 q 644 203 646 233 q 637 152 643 172 q 628 121 631 132 q 603 68 621 96 q 584 40 586 40 q 576 35 582 40 q 566 27 571 31 q 557 21 561 24 q 523 1 542 7 q 494 -12 504 -4 q 451 -37 474 -31 q 422 -47 428 -44 q 392 -49 417 -50 q 340 -44 367 -49 q 308 -33 314 -39 q 296 -28 303 -28 q 240 3 272 -25 q 142 197 151 78 q 142 213 140 213 q 143 238 143 213 q 144 272 143 264 q 145 294 144 281 q 148 321 146 308 q 148 348 150 333 q 145 381 146 363 q 144 403 144 399 q 142 418 143 408 q 140 428 142 428 q 139 497 139 429 q 140 564 139 564 q 142 571 142 564 q 144 594 142 578 q 145 622 147 610 q 141 651 143 635 q 135 672 139 668 q 108 679 131 676 q 63 710 81 685 q 55 724 56 718 q 53 729 54 729 q 57 754 49 736 l 57 760 q 83 783 72 778 l 85 783 l 88 782 q 93 784 90 783 q 109 785 96 785 q 122 788 122 786 q 148 789 122 789 q 179 789 174 789 q 199 789 185 789 q 260 788 213 789 q 317 784 307 788 q 336 768 326 781 q 350 726 353 746 q 330 687 346 697 q 291 675 314 676 q 262 667 268 674 q 250 644 256 660 l 250 632 q 249 615 250 619 q 247 593 247 611 q 247 558 247 575 q 247 529 246 540 q 249 511 249 518 q 251 503 250 504 q 253 439 253 503 q 251 371 253 375 q 249 336 244 353 q 253 267 253 319 q 272 143 251 185 q 279 127 278 131 q 283 119 281 124 q 287 112 285 115 q 291 106 289 108 q 294 102 293 104 q 297 100 296 100 q 309 91 297 100 q 319 86 321 82 q 321 87 319 88 q 329 81 322 86 q 349 72 336 76 q 390 65 372 65 q 422 65 408 64 q 451 72 435 65 q 483 89 479 85 q 489 93 488 93 q 513 122 499 93 q 528 162 526 151 q 535 197 531 172 q 538 234 539 222 q 538 252 538 246 q 536 258 538 258 q 535 266 535 258 q 533 275 535 274 q 532 413 532 276 q 534 556 533 554 q 535 565 535 557 q 537 575 536 574 q 538 585 538 576 q 536 594 538 593 q 535 602 535 594 q 534 610 535 610 q 532 653 533 611 q 519 671 525 668 q 499 675 513 674 q 443 704 461 679 q 444 760 422 736 q 483 787 465 785 q 582 789 501 789 q 663 788 663 789 q 669 787 663 788 q 679 785 676 786 q 683 783 682 783 z "},"V":{"ha":760,"x_min":26,"x_max":769,"o":"m 444 321 q 451 346 449 321 l 451 351 q 463 400 457 375 q 478 458 469 425 q 488 493 486 492 q 490 497 489 494 q 490 500 490 500 q 496 524 490 500 q 503 553 501 547 q 508 571 504 560 q 516 601 511 582 q 525 633 521 619 q 518 674 533 665 q 503 678 515 675 q 479 694 490 682 q 469 706 468 706 q 466 713 469 706 q 463 733 463 721 q 467 753 463 744 q 472 764 472 761 q 483 775 472 767 q 501 785 493 783 q 542 788 510 788 q 580 788 575 789 q 606 787 585 786 q 628 788 626 788 q 711 788 635 792 q 743 775 728 788 q 767 733 769 754 q 751 697 764 711 q 726 681 739 683 q 709 677 713 679 q 686 675 706 675 q 657 665 667 675 q 641 632 647 656 q 631 592 635 608 q 621 552 626 575 q 613 521 615 529 q 606 497 610 513 q 601 476 603 482 q 597 463 599 471 q 591 438 596 454 q 583 408 586 421 q 577 390 581 396 q 572 378 574 383 q 568 367 571 374 q 561 335 561 347 q 555 297 561 322 q 542 247 549 272 q 533 213 535 222 q 527 192 531 204 q 521 173 524 179 q 517 159 518 167 q 514 141 517 151 q 499 83 511 131 q 483 26 488 35 q 474 0 478 18 q 417 -54 458 -51 q 357 -50 372 -58 q 317 1 326 -33 q 311 21 314 10 q 306 42 308 32 q 300 64 304 51 q 289 114 290 100 q 282 153 285 146 q 276 170 279 160 q 272 180 274 181 q 259 222 269 179 q 249 265 249 264 l 250 264 l 251 263 q 247 281 250 268 q 244 294 244 293 q 243 302 244 296 q 242 311 242 308 q 241 315 242 314 q 240 322 240 317 q 234 341 239 328 q 228 361 229 354 q 223 376 226 368 q 215 405 219 383 q 208 433 210 426 q 205 446 206 440 q 202 460 204 451 q 199 473 200 468 q 196 483 199 478 q 192 493 193 488 q 188 501 190 499 q 182 517 185 504 q 176 542 179 529 q 170 565 172 554 q 163 595 168 575 q 158 617 157 615 q 158 626 160 618 q 156 635 156 633 q 153 650 157 638 q 143 669 149 663 q 110 680 138 676 q 74 685 83 683 q 49 699 65 688 q 35 747 26 715 q 36 755 35 750 q 48 768 38 760 q 58 774 58 776 q 65 776 64 776 q 67 776 67 776 q 70 777 68 776 q 76 779 72 778 q 86 781 79 781 q 96 783 93 782 q 108 784 99 783 q 119 785 118 785 q 129 786 119 786 q 141 788 139 786 q 149 789 143 789 q 170 790 156 789 q 195 790 185 790 q 243 788 206 789 q 291 785 281 788 q 315 767 301 782 q 318 704 343 733 q 274 681 300 682 q 258 676 260 679 q 257 666 257 672 q 263 644 257 660 q 270 628 268 629 q 277 606 272 626 q 287 568 282 586 q 294 543 292 550 q 297 534 296 536 q 299 523 297 532 q 305 499 300 514 q 310 477 310 483 q 316 453 311 471 q 324 423 321 436 q 335 385 328 410 q 342 347 342 360 q 347 321 342 335 l 356 299 q 372 244 357 301 q 391 178 386 186 q 401 176 396 171 q 418 225 407 182 q 444 321 443 321 z "},"W":{"ha":760,"x_min":7,"x_max":775,"o":"m 590 786 q 607 786 590 786 q 625 788 624 786 q 645 789 626 789 q 697 789 664 789 q 740 787 731 789 q 759 776 750 785 q 775 764 768 768 l 775 732 q 774 699 775 700 q 765 692 772 699 q 732 676 750 679 q 694 650 700 671 q 692 641 694 646 q 686 622 689 636 q 679 596 683 608 q 674 563 675 583 q 673 531 674 543 q 672 506 672 518 q 671 486 672 494 q 665 448 668 472 q 660 412 663 424 q 658 392 658 400 q 656 372 657 385 q 651 342 654 360 q 647 316 649 325 q 646 303 646 307 q 644 292 646 299 q 640 264 643 286 q 636 236 638 242 q 633 219 635 231 q 628 183 632 207 q 623 143 625 160 q 619 121 621 126 q 617 97 618 115 q 614 76 615 79 q 612 64 613 72 q 610 52 611 56 q 608 35 610 49 q 590 -10 606 7 q 563 -29 574 -26 q 476 -12 504 -42 q 458 18 461 3 q 452 40 454 33 q 449 53 450 46 q 442 80 447 61 q 435 111 438 99 q 428 137 432 124 q 421 164 424 150 q 415 198 414 196 q 415 206 417 200 q 413 223 414 213 q 406 243 411 233 q 394 253 397 256 q 385 238 390 251 q 378 216 379 224 q 377 203 378 208 q 376 191 376 199 q 365 145 375 183 q 351 90 356 107 q 344 68 346 72 q 339 58 342 64 q 333 44 336 51 q 329 22 331 36 q 324 -1 328 8 q 299 -24 319 -11 q 258 -31 279 -37 q 246 -31 254 -29 q 205 -15 224 -35 q 184 24 186 6 q 178 65 182 43 q 174 101 175 86 q 169 131 172 115 q 165 167 167 147 q 163 187 163 186 q 165 200 164 188 q 164 219 165 213 q 161 232 163 226 q 160 239 160 238 l 154 256 q 147 299 149 288 q 143 331 146 310 q 141 354 140 351 q 142 364 142 357 q 141 390 142 386 q 140 398 140 394 q 138 403 139 401 q 135 413 138 406 q 133 419 133 419 q 128 444 131 419 q 124 472 125 469 q 122 490 124 474 q 119 515 119 507 q 117 531 118 522 q 115 551 117 539 q 112 570 113 563 q 110 584 111 578 q 108 601 108 590 q 105 621 107 611 q 101 644 103 631 q 97 660 100 657 q 94 665 94 664 q 96 666 94 665 q 97 668 97 667 q 76 679 97 676 q 34 692 44 683 q 19 708 24 701 q 15 715 15 714 q 13 721 14 715 q 11 726 11 726 q 10 741 7 729 q 18 758 14 753 q 22 764 22 764 l 33 772 q 36 774 33 772 q 40 776 39 776 q 43 776 40 776 q 78 777 56 783 q 106 769 100 771 q 120 770 111 767 q 133 774 129 774 q 138 776 136 775 q 158 780 139 778 q 185 783 178 782 q 197 785 193 785 q 200 785 200 785 q 207 786 200 786 q 215 788 214 786 q 240 788 215 789 l 264 788 q 307 738 308 774 q 289 699 307 710 q 242 685 271 688 q 210 681 214 683 q 208 667 206 678 q 213 645 211 656 q 217 629 215 635 q 220 615 219 624 q 224 583 221 606 q 229 548 228 560 q 231 535 231 536 q 233 519 232 533 q 236 494 235 506 q 238 478 238 483 q 242 453 239 474 q 244 428 244 433 q 244 354 240 376 q 249 329 249 332 q 251 316 250 326 q 253 299 253 306 q 256 285 254 292 q 260 271 258 279 q 265 257 263 263 q 267 249 267 251 q 271 247 267 247 q 276 252 275 247 q 279 257 278 257 q 281 260 281 257 q 283 267 282 264 q 285 274 285 271 q 288 283 286 276 q 289 294 289 289 q 296 323 289 299 q 308 366 303 347 q 314 388 313 385 q 317 398 315 390 q 319 406 319 406 q 320 415 318 407 q 322 424 322 422 q 321 425 322 426 l 321 426 q 329 461 321 428 q 340 501 338 494 q 342 508 342 507 q 343 508 343 508 l 346 510 q 351 519 351 519 q 351 521 350 519 q 353 524 351 522 q 357 529 354 526 q 436 528 396 568 q 452 500 449 515 q 458 478 456 485 q 472 426 460 472 q 485 372 483 379 q 490 353 488 365 q 498 326 493 342 q 503 303 503 310 q 511 276 501 279 q 517 274 511 276 q 524 276 522 271 q 527 282 526 282 q 529 285 528 282 q 531 291 531 288 q 530 295 531 294 q 531 311 529 296 q 535 332 533 326 q 540 365 536 338 q 544 399 543 393 q 547 424 544 404 q 552 457 550 443 q 556 479 554 471 q 559 502 557 488 q 563 521 561 517 q 567 534 565 525 q 569 545 568 543 q 570 553 569 547 q 572 559 571 558 q 574 567 572 560 q 580 590 575 575 q 585 606 585 606 q 587 610 585 607 q 589 645 589 614 q 585 678 589 676 q 550 679 568 682 q 497 693 515 672 q 504 778 454 740 q 535 788 517 788 q 554 788 553 789 q 590 786 556 786 z "},"X":{"ha":760,"x_min":53,"x_max":743,"o":"m 88 760 q 88 761 88 760 q 91 765 88 761 q 94 770 94 769 q 113 783 94 771 l 113 783 q 111 785 111 783 q 135 788 119 789 l 129 786 q 153 786 151 785 q 175 788 156 788 q 207 791 194 789 q 228 790 219 793 q 247 785 238 786 q 267 783 257 785 q 296 782 276 782 q 316 784 315 782 q 325 785 317 786 l 333 786 l 333 788 q 351 780 336 788 q 375 754 367 772 q 360 692 390 719 q 328 675 343 675 q 311 671 313 675 l 311 665 q 316 653 313 660 q 327 630 319 646 q 349 592 335 614 q 376 542 363 569 q 393 513 390 514 q 399 517 396 511 q 406 531 406 529 q 406 534 406 533 q 408 538 407 535 q 409 542 410 542 q 412 547 408 542 q 415 555 415 553 q 439 603 414 557 q 469 665 471 658 q 453 678 467 672 q 414 711 428 686 q 428 771 399 742 q 450 785 440 782 q 497 788 460 788 q 533 788 533 789 q 540 786 533 786 q 553 785 546 786 q 569 783 561 783 q 582 783 578 783 q 607 782 586 782 q 681 778 668 783 q 714 726 713 761 q 701 697 714 708 q 654 676 679 676 q 622 672 629 675 q 608 663 614 669 q 596 647 601 657 q 588 634 590 638 q 582 624 586 631 q 568 599 578 617 q 551 569 558 581 q 541 550 544 557 q 534 539 538 543 q 527 530 531 535 q 519 519 524 525 q 506 492 508 506 q 492 461 503 479 q 477 434 482 443 q 467 415 472 425 q 467 393 461 404 q 477 373 472 382 q 487 355 482 364 q 495 340 492 346 q 504 324 499 333 q 523 290 510 314 q 539 260 536 267 q 542 252 542 254 q 547 242 543 250 q 556 220 550 233 q 571 193 561 207 q 585 176 583 176 q 608 138 588 175 q 638 92 628 101 q 654 82 647 82 q 662 80 661 82 q 677 78 663 78 q 695 77 692 78 q 699 78 699 76 q 715 72 699 83 q 735 50 731 60 q 741 30 743 31 q 738 19 739 29 q 725 -4 736 8 q 706 -22 714 -17 q 680 -28 699 -28 q 658 -31 661 -29 q 570 -32 654 -32 q 476 -28 486 -32 q 452 -12 465 -25 q 438 11 439 0 q 438 39 431 38 q 442 46 439 39 q 462 65 449 58 q 477 74 475 72 q 493 77 479 75 q 508 84 507 79 q 499 110 508 89 q 483 144 490 131 q 461 183 474 168 q 444 203 449 197 q 438 211 440 208 q 421 237 432 215 q 404 267 410 258 q 392 272 399 275 q 372 245 385 269 q 355 217 360 221 q 344 203 350 213 q 337 190 339 193 q 332 183 335 188 q 322 169 329 178 q 306 139 311 156 q 298 119 300 122 q 296 113 296 115 q 293 99 296 110 q 306 81 289 85 q 338 63 322 76 q 347 -1 369 32 q 308 -31 331 -28 q 283 -31 286 -33 q 265 -32 281 -28 l 185 -32 q 90 -28 96 -32 q 79 -21 85 -25 q 53 28 54 -4 q 57 49 53 42 q 61 56 61 56 q 65 61 61 57 q 82 75 72 69 q 115 82 92 81 q 148 90 138 83 q 165 109 158 97 q 172 121 171 121 q 176 124 174 121 q 182 137 182 132 q 188 151 182 142 q 221 210 193 160 q 254 270 249 261 q 275 306 260 279 q 292 335 290 333 q 299 344 294 336 q 306 355 303 353 q 310 360 308 357 q 322 380 313 364 q 331 408 331 396 q 322 433 331 421 q 311 449 314 444 q 306 456 308 453 q 301 463 304 458 q 297 467 297 468 l 297 468 q 294 474 297 468 q 280 500 290 479 q 265 519 269 521 q 256 533 264 519 q 241 561 249 547 q 229 583 233 575 q 222 596 225 590 q 203 632 211 614 q 197 647 207 633 q 183 663 188 661 q 174 668 178 665 q 142 678 158 678 q 108 686 126 678 q 78 729 81 700 q 79 744 78 742 q 83 750 81 746 q 86 757 85 754 q 88 760 88 760 z "},"Y":{"ha":760,"x_min":53,"x_max":725,"o":"m 217 58 l 231 71 q 231 71 231 71 q 238 74 232 71 q 258 78 243 76 q 273 81 272 79 q 290 82 274 82 q 325 90 317 82 q 333 110 333 99 q 335 146 333 122 q 333 309 336 294 q 326 332 331 324 q 317 347 321 340 q 311 358 314 354 q 301 378 303 372 q 297 391 300 385 q 294 399 294 397 q 292 405 294 401 q 290 409 290 408 q 290 413 290 410 q 288 417 289 415 q 283 429 288 419 q 267 453 278 439 q 255 472 257 468 q 251 478 253 476 q 233 511 249 481 q 216 544 217 542 q 212 554 215 547 q 208 564 208 561 q 203 576 207 567 q 192 602 199 585 q 181 626 186 619 q 164 649 176 632 q 146 669 151 665 q 125 674 140 674 q 65 713 83 674 q 70 760 53 738 q 99 785 88 782 q 128 788 111 788 q 149 787 146 789 q 170 785 151 785 q 189 788 189 786 q 242 789 189 789 q 309 787 296 789 q 338 769 322 785 q 351 714 364 743 q 315 683 342 690 q 288 683 310 682 q 263 681 267 685 q 268 658 256 674 q 284 638 281 643 q 290 631 288 633 q 298 619 292 629 q 306 608 304 608 q 312 599 307 608 q 320 584 317 590 q 333 561 324 578 q 347 535 342 544 q 352 525 351 526 q 358 513 353 524 q 371 489 364 503 q 391 467 383 467 q 409 485 399 467 q 425 516 419 504 q 433 533 431 528 q 439 542 436 538 q 453 567 442 547 q 465 588 464 588 q 471 594 467 588 q 476 603 475 601 q 480 608 478 604 q 483 613 482 613 q 485 615 485 614 l 492 631 q 499 648 492 633 q 507 667 507 663 q 504 675 507 672 q 483 682 501 678 q 460 689 465 686 q 453 692 456 692 q 446 701 451 692 q 444 761 425 733 q 449 765 449 765 q 453 768 449 765 q 463 778 463 776 q 568 789 463 789 q 675 788 674 789 q 685 783 676 786 q 693 780 693 781 q 704 772 693 779 q 725 741 725 757 q 721 717 725 725 q 674 682 706 686 q 640 671 642 678 q 631 655 638 664 q 608 615 625 646 q 588 578 592 583 q 581 569 583 572 q 572 557 579 567 q 553 524 553 529 q 550 513 553 519 q 545 499 547 506 q 536 480 543 493 q 523 456 529 467 q 516 444 517 444 q 506 424 515 443 q 494 401 497 406 q 484 383 492 397 q 472 365 476 369 q 465 356 468 360 q 458 346 463 351 q 447 322 449 333 q 445 291 446 311 q 446 269 444 271 q 448 202 447 267 q 444 125 449 138 q 449 78 435 83 q 508 74 471 71 q 554 74 544 76 l 556 74 l 556 75 q 565 70 557 75 q 574 65 572 65 q 581 58 575 65 q 583 -6 610 25 q 547 -31 567 -26 q 519 -32 528 -35 q 488 -28 499 -25 q 417 -32 478 -32 q 351 -31 356 -32 q 341 -31 347 -31 q 308 -32 335 -32 q 274 -32 282 -32 q 253 -31 254 -32 q 240 -28 251 -31 q 217 -15 229 -26 q 204 8 206 -3 q 203 21 203 18 q 204 27 204 24 q 205 31 204 31 q 206 32 206 31 q 210 46 208 43 q 211 50 211 49 l 217 58 z "},"Z":{"ha":760,"x_min":119,"x_max":664,"o":"m 257 268 l 269 282 q 272 285 269 282 q 278 292 274 288 q 288 303 282 297 q 298 315 293 310 q 303 321 303 319 q 304 321 304 322 q 309 325 307 319 q 314 334 311 331 q 317 341 317 338 q 322 351 318 344 q 331 369 326 358 q 341 396 335 381 q 349 415 347 411 q 350 418 350 418 l 354 429 q 358 435 354 429 q 362 444 363 442 q 375 468 361 446 q 486 654 482 646 l 488 657 q 493 660 489 651 q 499 669 497 669 q 500 674 500 669 q 468 676 497 682 q 270 676 282 678 q 253 669 258 674 q 246 665 247 665 q 238 643 238 665 q 240 617 238 621 q 242 564 242 613 q 239 509 242 515 q 233 496 236 503 q 208 469 226 479 q 177 461 189 460 q 149 476 165 463 q 131 501 133 490 q 128 532 129 513 l 129 558 q 130 573 129 568 q 131 596 131 578 q 132 615 132 614 q 133 624 132 615 q 134 644 133 633 q 133 671 135 656 q 133 739 129 725 q 141 760 136 753 q 144 767 146 767 q 170 785 161 783 q 221 788 179 788 q 404 788 263 789 q 547 788 546 788 q 553 787 547 788 q 562 785 560 786 q 572 783 564 785 q 591 781 581 782 q 610 779 601 779 q 636 765 628 778 q 640 696 657 735 q 633 676 633 679 q 615 644 632 674 q 592 606 597 614 q 576 581 586 597 q 563 560 565 564 q 556 547 561 556 q 544 526 551 539 q 527 504 536 514 q 513 483 518 494 q 506 469 507 471 q 502 463 504 467 q 501 458 500 458 q 495 446 501 457 q 478 417 489 435 q 463 393 467 400 q 455 382 458 386 q 450 373 451 378 q 439 352 449 368 q 423 326 429 336 q 413 310 417 315 q 387 275 404 296 q 364 240 369 254 q 357 223 358 225 q 354 216 356 221 q 339 188 353 211 q 322 160 325 164 q 314 147 319 157 q 299 122 308 136 q 290 85 281 90 q 322 82 296 82 q 348 81 347 82 q 361 79 349 79 q 375 81 374 79 q 443 82 376 82 q 510 80 510 82 q 517 78 511 78 q 525 78 524 79 q 537 77 526 78 q 549 78 547 76 q 552 95 551 81 q 551 111 553 110 q 549 174 550 113 q 550 244 549 236 q 558 263 551 253 q 567 274 564 274 q 575 278 569 274 q 587 285 581 283 q 594 290 593 288 q 604 293 594 292 q 629 286 614 294 q 654 261 644 278 q 663 234 664 244 q 662 219 661 224 q 663 162 663 214 q 661 100 663 110 q 661 82 660 90 q 663 47 663 74 q 656 3 663 19 q 633 -23 650 -14 q 574 -32 615 -32 q 531 -31 532 -32 l 514 -31 l 472 -32 l 432 -31 l 429 -29 q 357 -31 378 -25 q 264 -32 354 -32 q 167 -31 174 -32 q 121 21 125 -17 q 124 44 119 35 q 129 57 129 54 q 139 79 129 63 q 224 221 203 185 q 248 256 246 257 q 253 262 250 256 q 257 268 257 268 z "}," ":{"ha":760,"x_min":0,"x_max":0,"o":""},".":{"ha":760,"x_min":289,"x_max":507,"o":"m 328 165 q 328 166 328 165 q 343 175 328 167 q 369 185 358 183 q 399 186 390 189 q 413 183 408 183 q 419 184 417 183 q 437 180 422 185 q 471 156 451 175 q 506 72 507 121 q 467 -8 504 25 q 448 -22 456 -19 q 435 -26 440 -24 q 419 -29 429 -28 q 402 -32 408 -31 q 390 -34 396 -33 q 378 -35 383 -35 q 335 -19 361 -37 q 310 6 310 -1 q 306 14 310 7 q 299 29 301 21 q 294 44 296 38 q 291 57 292 51 q 290 71 290 63 q 290 82 289 79 q 292 90 290 85 q 297 103 293 96 q 301 117 300 111 q 303 127 303 124 q 305 133 304 131 q 308 138 306 135 q 311 142 311 142 q 315 147 311 143 q 317 152 318 151 q 322 158 317 153 q 328 165 328 164 z "},",":{"ha":760,"x_min":240,"x_max":525,"o":"m 300 125 q 306 132 306 132 q 311 138 307 132 q 319 149 315 144 q 322 153 322 153 q 324 154 322 153 q 331 160 325 156 q 336 167 339 167 q 346 173 333 167 q 370 182 358 179 q 381 183 382 185 q 433 176 422 181 q 450 172 443 172 q 471 157 457 171 q 514 94 504 126 q 518 79 515 89 q 520 38 525 60 q 514 3 515 17 q 511 -15 513 -10 q 510 -26 510 -21 q 491 -71 508 -43 q 457 -116 474 -99 q 433 -137 440 -133 q 414 -150 426 -140 q 366 -172 386 -168 q 333 -178 346 -175 q 308 -182 321 -182 q 258 -151 275 -182 q 275 -89 240 -119 q 310 -74 286 -79 q 351 -56 333 -68 q 368 -35 368 -43 q 356 -21 368 -26 q 310 16 322 -7 q 297 40 299 39 q 300 125 275 90 z "},";":{"ha":760,"x_min":229,"x_max":519,"o":"m 361 175 l 375 182 q 378 183 375 183 q 388 185 381 183 q 419 181 396 186 q 465 161 443 176 q 517 85 503 135 q 519 71 519 76 q 519 44 518 65 q 511 1 519 22 q 496 -44 503 -21 q 483 -78 489 -67 q 474 -94 476 -89 q 458 -116 472 -99 q 427 -143 443 -133 q 406 -157 411 -153 q 313 -186 360 -186 q 275 -174 289 -186 q 275 -89 229 -128 q 306 -74 288 -79 q 356 -51 336 -67 l 360 -50 l 363 -50 q 372 -40 374 -44 q 368 -37 371 -35 l 368 -36 q 356 -22 371 -28 q 292 46 308 -1 q 288 69 285 65 q 290 81 290 74 q 291 92 290 89 q 294 101 292 94 q 297 108 296 107 q 299 113 297 108 q 301 117 300 117 q 304 124 301 118 q 309 131 307 129 q 314 138 311 132 q 331 157 318 144 l 329 157 q 345 167 329 160 q 361 175 361 175 m 371 540 q 404 543 371 547 q 458 523 438 539 q 480 502 479 507 q 488 485 481 497 q 497 471 496 471 q 499 470 499 471 q 500 465 499 469 q 500 396 515 436 q 492 382 496 386 q 481 364 489 378 q 403 319 453 324 q 371 322 385 318 q 355 328 357 325 q 343 336 353 331 q 316 362 333 342 q 294 391 299 382 q 289 400 289 400 q 283 421 283 400 q 286 459 283 442 q 304 497 289 476 q 321 516 319 517 q 328 519 322 515 q 335 524 335 524 q 347 528 336 524 q 358 535 358 533 l 371 540 z "},":":{"ha":760,"x_min":278,"x_max":528,"o":"m 313 143 q 419 181 353 193 q 426 180 425 179 q 435 177 426 181 q 444 175 443 174 q 460 165 446 176 q 486 138 475 154 q 486 13 528 74 q 347 -19 443 -50 q 327 -10 335 -17 q 319 -4 319 -4 q 314 0 318 -4 q 286 48 293 17 q 284 96 279 79 q 290 113 289 113 q 294 119 292 113 q 299 126 297 125 q 303 131 300 126 q 306 136 306 136 q 313 143 307 136 m 340 528 q 357 538 339 529 q 397 544 375 547 q 419 540 419 542 q 424 536 418 539 q 432 533 431 533 q 447 525 433 532 q 501 428 499 500 q 500 408 501 417 q 498 392 499 399 q 483 365 497 386 q 396 319 453 319 q 327 342 351 319 q 299 378 303 365 q 292 395 296 390 q 288 400 289 400 q 286 406 288 400 q 289 467 278 439 q 306 499 300 494 q 318 510 313 504 l 340 528 z "},"?":{"ha":760,"x_min":128,"x_max":614,"o":"m 324 173 q 326 174 324 173 q 329 175 328 175 q 331 176 331 175 q 335 178 331 176 q 347 183 339 181 q 354 185 354 185 q 357 188 354 186 q 426 171 392 193 q 440 160 436 165 q 451 148 443 156 q 464 128 458 140 q 472 113 469 117 q 480 65 482 101 q 451 1 478 28 q 390 -35 425 -26 q 326 -28 356 -43 q 260 54 271 0 q 290 154 249 110 q 301 164 299 164 q 310 167 304 164 q 317 171 315 171 q 324 173 319 171 m 403 808 l 404 808 q 410 808 406 808 q 424 806 414 807 q 439 804 433 804 l 436 804 l 438 806 q 446 801 442 804 l 443 803 q 458 797 449 800 q 478 788 468 793 q 489 785 489 783 q 492 785 489 786 q 556 736 524 771 q 614 594 614 675 q 612 579 614 586 q 608 566 610 572 q 605 553 607 560 q 601 538 603 546 q 597 520 600 531 q 594 508 594 510 q 586 489 594 506 q 476 381 561 439 q 433 335 439 356 q 431 311 432 332 q 426 278 431 290 q 406 255 421 267 q 376 243 392 243 q 318 322 318 243 q 333 400 318 367 q 404 471 349 433 q 414 476 411 476 q 422 479 417 475 q 430 483 428 483 q 435 486 432 483 q 440 490 439 489 q 450 497 442 490 q 459 506 458 504 q 465 514 460 508 q 469 520 469 519 q 468 521 469 521 q 474 529 467 521 q 467 661 531 596 q 458 671 460 668 q 433 692 453 683 q 410 702 414 701 q 391 703 407 703 q 366 700 375 703 q 346 694 357 697 q 289 668 313 689 q 282 663 286 665 q 285 650 278 660 q 301 635 293 640 q 314 614 308 631 q 306 544 328 574 q 215 506 268 494 q 161 538 179 514 q 134 630 128 581 q 167 711 140 679 q 198 743 194 743 q 207 748 201 743 q 217 755 213 753 q 226 762 222 757 q 245 774 231 767 q 267 788 260 782 q 285 795 275 793 q 311 801 296 797 q 389 807 332 807 l 403 808 z "},"!":{"ha":760,"x_min":271,"x_max":506,"o":"m 501 101 q 506 81 506 101 q 502 44 506 60 q 482 8 499 29 q 414 -35 456 -28 q 342 -24 378 -42 q 294 24 307 -6 q 299 132 271 86 q 303 138 303 139 q 309 143 304 138 q 314 149 314 149 q 316 150 315 149 q 322 157 317 151 q 326 164 326 163 q 343 175 325 165 q 389 190 374 190 q 429 183 426 188 q 438 176 432 179 q 444 172 443 172 q 448 169 444 171 q 457 160 451 167 q 466 154 463 154 q 476 145 469 154 q 485 132 483 136 q 490 123 486 128 q 497 110 493 118 q 501 101 501 101 m 378 799 q 461 772 426 808 q 463 771 464 771 q 471 760 463 771 q 482 749 479 749 q 494 718 489 746 q 497 664 500 690 q 488 624 494 638 q 483 597 482 611 q 478 553 483 582 q 467 472 472 522 q 460 418 461 422 q 459 408 460 414 q 458 394 458 403 q 456 370 457 385 q 453 335 454 356 q 450 287 451 314 q 445 247 449 260 q 428 222 442 233 q 354 225 389 190 q 337 257 338 243 q 337 272 336 271 q 338 290 338 274 q 337 324 338 307 q 335 356 336 342 q 332 397 335 369 q 326 510 324 486 q 326 568 332 557 q 321 579 321 579 q 319 583 321 579 q 316 592 318 586 q 312 603 314 599 q 308 615 310 607 q 305 624 306 624 q 303 628 304 625 q 301 635 303 632 l 296 650 q 293 667 296 650 q 319 764 285 722 q 324 768 322 768 q 331 772 325 768 q 336 776 336 776 q 340 779 336 776 q 344 782 344 782 q 356 792 344 782 l 378 799 z "},"(":{"ha":760,"x_min":263,"x_max":551,"o":"m 426 851 q 429 855 426 851 q 432 859 432 858 q 438 868 432 860 q 451 890 444 876 q 471 905 458 903 q 489 907 483 907 q 496 906 494 907 q 501 906 497 906 q 519 899 506 906 q 537 883 532 893 q 544 872 542 872 q 546 859 546 872 q 540 833 546 846 q 515 797 533 821 q 491 766 497 772 q 483 752 485 760 q 469 726 481 744 q 434 656 446 686 q 419 617 422 626 q 413 599 415 608 q 406 579 410 590 q 376 381 378 510 q 376 347 376 351 q 374 313 375 343 q 374 264 372 282 q 376 224 375 246 q 397 179 392 193 q 422 129 401 169 q 437 92 431 104 q 446 74 443 81 q 460 46 449 67 q 472 22 472 25 q 479 4 472 19 q 491 -16 486 -11 q 501 -28 496 -21 q 507 -35 506 -35 q 520 -52 511 -39 q 535 -70 529 -65 q 543 -83 540 -75 q 533 -133 551 -114 q 433 -117 479 -190 q 422 -103 431 -111 q 399 -75 413 -94 q 380 -44 386 -56 q 368 -24 374 -33 q 355 -1 363 -15 q 348 15 347 14 q 346 23 349 15 q 343 31 343 31 q 340 44 343 32 q 334 64 336 56 q 326 87 332 72 q 319 109 321 101 q 316 125 318 117 q 313 145 314 133 q 307 164 311 157 q 287 206 292 188 q 281 226 282 224 l 275 243 l 274 243 q 271 259 274 243 q 265 311 268 275 q 265 365 263 364 q 267 373 267 365 q 267 381 267 381 q 268 392 267 381 q 271 409 269 403 q 272 449 272 415 q 275 494 272 482 l 274 507 q 306 638 279 563 q 335 713 332 714 q 340 718 336 711 q 344 725 343 725 q 347 730 344 725 q 351 735 350 735 q 352 738 351 736 q 354 741 353 740 q 359 747 356 742 q 364 754 363 753 q 368 760 365 756 q 372 767 371 765 q 379 780 374 769 q 387 792 385 790 q 393 799 389 793 q 402 811 397 806 q 414 830 407 817 q 426 851 421 843 z "},")":{"ha":760,"x_min":238,"x_max":522,"o":"m 361 110 l 364 115 q 365 117 365 115 q 369 126 365 118 q 374 138 374 133 q 378 156 375 143 q 381 174 381 169 q 383 184 382 178 q 383 190 385 190 q 387 208 382 190 q 394 240 392 225 q 399 261 397 256 q 405 313 403 289 q 407 339 407 336 q 408 362 407 342 q 410 383 408 382 q 411 392 411 383 q 413 417 411 400 q 413 456 415 446 q 406 483 411 467 q 397 510 399 506 q 394 517 394 514 q 390 534 393 522 q 384 558 388 546 q 376 586 381 571 q 363 628 372 601 l 363 629 q 362 636 364 629 q 358 651 360 643 q 351 670 357 658 q 344 683 344 682 q 340 693 344 685 q 330 715 336 701 q 319 734 324 729 q 313 741 314 739 q 309 746 311 743 q 303 753 307 749 q 297 758 299 758 q 290 767 296 758 q 274 792 285 776 q 240 847 243 833 q 240 872 238 860 q 249 886 243 883 q 257 894 256 889 q 281 913 263 908 q 346 885 317 921 q 360 867 361 867 l 358 867 q 363 858 358 865 q 376 836 368 851 q 387 817 383 821 q 394 808 390 814 q 399 802 399 803 q 404 796 400 801 q 410 790 408 790 q 411 789 411 790 q 415 783 411 788 q 424 766 418 778 q 435 744 431 754 q 448 718 440 735 q 463 685 456 701 q 476 648 471 668 q 485 619 482 628 q 490 597 488 610 q 494 579 492 585 q 497 568 496 574 q 499 563 499 563 q 504 546 501 563 q 509 524 507 529 q 514 492 511 518 q 518 458 517 467 q 522 397 521 432 q 520 358 522 363 q 517 335 518 354 q 516 308 517 315 q 514 288 515 300 q 511 271 513 276 q 508 261 510 265 q 484 172 500 208 q 465 123 468 136 q 458 105 461 110 q 454 89 456 100 q 443 48 449 64 q 433 20 438 32 q 428 4 429 8 q 425 -6 426 0 q 379 -83 421 -21 q 313 -153 338 -146 q 260 -132 279 -161 q 245 -99 243 -108 q 247 -89 247 -89 l 249 -81 q 253 -72 247 -81 q 258 -62 258 -62 q 268 -47 257 -62 q 278 -30 279 -32 q 294 -5 278 -28 q 322 43 310 18 q 349 92 344 88 q 355 99 353 96 q 358 103 357 103 q 359 107 358 104 q 361 110 360 110 z "},"":{"ha":760,"x_min":0,"x_max":788,"o":"m 0 333 q 13 341 3 333 q 30 347 22 349 q 50 344 38 344 q 74 343 72 344 q 90 342 75 342 q 105 343 106 342 q 108 344 104 344 q 247 344 135 344 q 560 344 358 344 q 767 343 761 344 q 778 338 772 342 q 786 334 785 335 q 788 290 788 333 l 788 246 q 738 236 765 236 q 706 237 711 236 q 690 238 700 238 q 674 236 679 238 q 604 235 669 235 q 535 236 539 235 q 526 238 532 238 q 503 241 519 239 q 474 241 488 243 q 440 239 460 239 q 373 238 386 236 q 342 241 360 240 q 315 240 325 242 q 299 238 304 239 q 292 237 294 238 q 160 235 289 236 q 25 236 32 235 q 10 243 18 238 q 1 249 3 249 q 0 292 0 250 l 0 333 z "},"":{"ha":760,"x_min":0,"x_max":788,"o":"m 99 344 q 99 344 99 344 q 118 344 99 344 q 403 344 138 344 q 672 343 669 344 q 683 342 675 342 q 690 341 690 342 q 703 340 690 340 q 722 338 715 339 q 738 336 729 338 q 756 333 747 335 q 765 332 764 332 q 788 322 774 332 l 788 251 q 748 242 771 244 q 715 237 725 239 q 643 235 706 235 q 576 237 581 236 q 555 240 571 238 q 517 244 539 242 q 474 244 496 246 q 380 242 418 239 q 317 243 342 244 q 284 241 292 242 q 267 240 276 240 q 254 238 257 239 q 232 238 251 238 q 205 237 213 238 q 191 237 197 236 q 169 238 185 238 q 133 240 154 238 q 99 243 113 243 q 28 241 31 243 q 17 242 25 239 q 5 247 8 244 q 1 250 1 250 q 0 290 0 250 l 0 332 q 7 337 4 335 q 11 338 10 339 q 19 340 13 338 q 30 340 25 342 q 57 338 35 338 q 81 340 79 338 q 91 342 83 342 q 99 344 99 343 z "},"'":{"ha":760,"x_min":290,"x_max":488,"o":"m 336 382 l 338 381 l 336 382 m 343 781 q 358 792 343 781 q 401 797 372 803 q 443 782 431 790 q 482 689 488 747 q 477 660 481 669 q 471 642 474 650 q 464 627 468 633 q 463 611 460 621 q 465 552 468 588 q 460 502 461 517 q 458 479 460 488 q 457 460 457 471 q 458 448 457 449 q 453 413 458 447 q 441 363 449 378 q 418 340 433 349 q 376 339 394 329 q 351 357 357 349 q 337 398 340 374 q 332 422 333 422 q 328 438 331 422 q 324 471 326 454 q 320 494 321 488 q 318 510 319 500 q 316 524 317 519 q 315 533 315 528 q 315 540 314 539 q 316 548 317 540 q 315 576 315 556 q 315 600 315 597 q 311 612 314 603 q 308 624 308 621 q 304 632 307 628 l 297 657 l 296 657 q 293 676 296 658 q 295 710 290 694 q 301 726 300 725 q 314 754 314 749 q 343 781 314 760 z "},"":{"ha":760,"x_min":263,"x_max":533,"o":"m 354 757 q 362 761 360 761 q 382 772 364 761 q 417 789 400 783 q 437 797 435 794 q 457 801 439 800 q 501 797 490 804 q 532 750 533 779 q 496 703 532 721 q 470 693 481 694 q 455 690 460 692 q 440 684 450 688 q 419 669 431 681 q 407 647 400 651 q 425 642 414 643 q 488 601 461 640 q 496 504 518 556 q 422 440 475 454 q 319 458 363 422 q 263 575 263 506 q 265 585 263 585 q 267 592 267 585 q 267 600 267 600 q 268 605 267 600 q 270 611 269 610 q 272 616 271 613 q 273 623 272 619 q 274 631 274 626 q 276 640 275 636 q 276 645 276 643 q 280 655 276 647 q 282 665 283 663 q 300 699 281 668 q 354 757 319 731 z "},"":{"ha":760,"x_min":247,"x_max":526,"o":"m 399 803 q 413 800 411 801 q 423 797 414 799 q 431 797 432 796 q 432 797 431 797 q 454 788 447 793 l 453 788 q 454 785 450 788 q 487 758 479 767 q 497 749 494 749 q 513 721 500 749 q 526 659 526 693 q 520 615 525 625 q 511 589 515 604 q 428 490 493 522 q 407 476 417 485 q 311 439 363 440 q 285 442 293 438 q 256 494 247 460 q 275 524 260 514 q 305 539 290 533 q 321 544 319 544 q 322 544 322 544 q 356 554 325 540 q 393 575 388 568 q 399 588 399 582 q 399 596 400 593 q 391 599 397 599 q 378 601 385 600 q 356 603 372 601 q 328 612 340 604 q 315 619 317 619 q 301 635 314 619 q 285 711 276 665 l 292 733 q 399 803 321 803 z "},"\"":{"ha":760,"x_min":181,"x_max":607,"o":"m 432 532 q 430 546 431 543 q 428 560 429 549 q 424 584 426 572 q 421 608 422 596 q 415 641 419 621 q 410 683 411 661 q 419 735 408 706 q 456 780 431 764 q 493 796 482 796 q 508 795 508 796 q 517 793 508 794 q 549 781 526 792 q 607 663 606 751 q 603 635 607 650 q 596 594 600 619 q 590 556 592 568 q 586 530 588 543 q 584 511 585 517 q 582 494 583 506 q 578 476 581 482 q 574 467 575 471 q 570 451 574 463 q 567 413 567 439 q 548 352 567 374 q 507 333 529 331 q 469 353 485 336 q 453 378 453 371 q 453 397 454 386 q 450 460 451 407 q 442 488 443 482 q 440 498 442 494 q 438 509 439 501 q 435 519 436 517 l 433 521 l 432 532 m 214 768 q 240 783 239 783 q 243 785 242 783 l 258 793 q 311 790 290 801 q 318 788 315 789 l 319 785 q 334 775 324 782 q 344 768 344 768 q 357 757 347 769 q 379 695 379 726 q 374 634 379 664 q 366 592 368 604 q 361 561 364 579 q 355 517 358 543 q 347 481 351 492 q 339 429 339 456 q 335 382 339 403 q 314 347 331 361 q 243 350 275 319 q 219 415 215 376 q 219 425 221 419 q 218 445 218 431 q 217 463 218 460 q 215 474 217 467 q 211 490 213 482 q 208 501 210 497 q 203 519 206 504 q 200 543 201 535 q 198 560 199 551 q 196 576 197 569 q 193 594 194 582 q 190 619 192 606 q 186 636 188 632 q 183 650 185 640 q 183 656 181 667 l 185 651 q 185 701 182 696 q 188 713 188 706 q 190 724 189 721 q 192 732 192 728 q 197 744 192 736 q 204 757 201 751 l 203 756 l 213 768 l 215 771 l 214 768 z "},"":{"ha":760,"x_min":101,"x_max":671,"o":"m 301 797 q 311 799 301 797 q 296 794 307 794 l 301 797 m 518 779 q 658 768 628 835 q 644 717 671 743 q 604 694 631 704 q 544 653 544 674 q 556 643 543 646 q 592 623 578 635 q 606 609 606 611 q 617 590 606 607 q 633 547 633 564 q 592 460 633 493 q 563 443 572 444 q 550 441 554 442 q 542 440 546 440 q 532 439 538 440 q 520 437 526 438 q 509 433 514 436 q 475 443 504 431 q 433 472 446 456 q 416 493 419 488 q 408 504 413 499 q 394 551 399 521 q 396 550 394 550 q 396 567 397 550 l 396 571 q 397 588 397 575 q 400 628 397 626 q 408 644 403 629 q 419 676 413 660 q 444 713 426 692 q 467 737 461 733 q 472 742 472 740 q 476 746 472 743 q 480 750 479 749 q 485 756 481 751 q 492 763 490 760 q 518 779 494 767 m 249 769 l 256 774 l 268 782 l 297 793 q 314 797 304 796 q 327 799 324 799 q 333 799 331 799 q 335 801 335 800 q 335 802 336 801 q 344 803 335 803 q 382 788 367 803 q 376 719 417 754 q 355 706 364 710 q 340 699 346 701 q 331 694 335 696 q 326 690 326 692 q 310 681 325 689 q 285 662 294 674 q 286 646 276 650 q 307 639 289 644 q 357 596 336 629 q 363 583 363 589 q 369 570 364 576 q 371 540 374 564 q 347 477 369 504 q 298 441 324 450 q 265 435 272 432 q 247 438 257 438 q 206 451 229 439 q 176 470 182 464 q 163 479 169 476 q 147 506 157 482 q 168 701 101 604 q 183 724 182 724 l 183 721 q 185 721 183 719 q 194 731 186 722 q 203 739 203 739 q 212 744 204 739 q 220 750 219 750 q 224 752 221 750 q 228 754 226 754 q 235 758 231 754 q 242 765 240 763 q 247 767 244 767 q 249 769 249 768 z "},"":{"ha":760,"x_min":128,"x_max":668,"o":"m 290 799 q 326 788 314 796 q 338 779 338 779 l 342 776 q 353 767 343 776 q 384 722 378 743 q 392 696 390 701 q 397 667 394 690 q 395 630 400 643 q 389 610 390 617 q 385 597 388 603 q 380 585 382 590 q 376 576 378 581 q 369 562 374 571 q 363 549 365 553 q 360 540 361 544 q 344 515 358 535 q 303 477 329 496 q 272 458 276 458 q 253 453 267 457 q 206 446 219 444 q 177 448 193 447 q 151 458 161 449 q 140 507 128 483 q 142 510 142 508 q 153 524 146 519 q 161 529 160 528 l 176 538 l 178 539 q 236 571 217 550 q 235 592 251 586 q 188 615 201 603 q 163 656 160 646 q 161 664 163 657 q 235 790 146 750 q 246 793 239 792 q 253 795 253 794 q 263 797 253 796 q 272 798 272 797 q 279 797 272 799 l 290 799 m 524 800 q 561 797 540 801 q 581 791 582 793 q 588 785 581 789 q 611 771 604 772 q 631 749 618 769 q 658 633 668 692 q 628 546 649 575 q 595 505 607 517 q 580 491 583 493 q 569 484 576 489 q 548 473 561 479 q 526 461 535 467 q 507 450 518 456 q 492 442 496 444 q 469 436 488 439 q 390 471 407 425 q 394 506 383 488 q 399 510 396 504 l 406 518 q 410 519 406 517 q 432 528 417 524 q 458 539 447 533 q 477 549 476 547 q 491 557 478 550 q 504 567 504 564 l 503 567 l 504 568 q 517 584 519 581 q 512 588 514 588 q 509 587 510 588 q 508 588 508 586 q 492 594 507 589 q 462 606 478 599 q 432 636 446 614 q 426 738 400 686 l 428 740 q 430 740 428 738 q 435 748 432 743 q 439 753 439 753 q 443 756 439 753 q 449 761 447 760 q 458 768 457 768 q 462 770 460 768 q 468 774 464 772 q 474 778 472 776 q 482 783 476 779 q 488 787 488 786 q 492 789 489 788 q 495 791 494 790 q 501 793 496 792 q 506 795 507 794 q 512 797 506 796 q 522 799 518 797 l 524 800 z "},"+":{"ha":760,"x_min":71,"x_max":722,"o":"m 349 678 q 349 679 349 678 q 349 681 350 681 q 353 688 349 682 q 356 694 357 693 q 363 701 356 694 q 371 709 371 707 q 383 714 371 711 q 425 702 406 717 q 447 676 444 688 q 450 657 450 664 q 449 649 450 650 q 448 639 449 649 q 446 620 447 629 q 444 576 444 611 l 444 542 q 449 513 449 517 q 451 503 450 508 q 451 483 451 499 q 471 447 451 453 q 516 444 479 444 q 553 444 553 444 q 564 443 553 443 q 572 444 575 443 l 604 444 l 636 444 l 644 443 q 707 411 693 439 q 699 360 722 385 q 669 344 686 347 q 640 340 653 342 q 613 336 628 338 q 594 333 599 335 q 540 332 590 332 q 466 327 475 332 q 454 315 457 322 q 451 216 451 307 q 449 121 451 125 q 444 103 446 117 q 432 81 443 90 q 397 64 414 64 q 378 66 379 64 q 369 72 378 68 q 338 118 342 86 q 338 206 338 131 q 339 282 338 282 q 341 291 340 282 q 343 308 342 300 q 343 332 346 328 q 308 340 338 342 q 268 337 279 338 q 248 335 257 336 q 228 334 239 335 q 215 333 218 333 q 193 332 211 332 q 169 333 175 332 q 143 335 163 333 q 91 355 108 338 q 74 382 74 372 q 72 392 74 392 q 72 400 71 393 q 74 409 74 407 q 81 421 74 411 q 112 443 99 442 q 211 444 125 444 q 299 444 297 444 q 322 442 308 439 q 335 452 335 446 q 338 467 336 458 q 340 488 340 476 q 339 499 340 499 q 338 567 338 500 q 338 635 338 635 q 340 642 339 636 q 341 651 340 649 q 342 658 342 654 q 344 663 343 661 q 344 667 344 665 q 345 668 344 668 q 347 672 346 668 q 349 678 347 675 z "},"-":{"ha":760,"x_min":92,"x_max":685,"o":"m 226 344 q 235 344 226 344 q 247 346 244 344 q 294 348 250 347 q 342 347 339 349 q 354 344 346 344 q 365 344 363 344 q 376 342 367 343 q 390 340 385 342 q 436 339 396 339 q 505 336 493 339 q 539 336 517 333 q 640 336 622 346 q 674 271 685 313 q 660 251 672 263 q 637 237 647 239 q 591 233 626 235 q 555 234 556 232 q 537 238 554 236 q 510 242 519 240 q 447 242 483 246 q 370 238 411 239 q 325 235 329 236 q 239 233 321 233 q 145 236 157 233 q 122 250 133 239 q 106 308 92 278 q 108 313 107 313 q 115 320 110 314 q 121 327 119 326 q 128 332 122 328 q 135 336 133 336 q 141 338 138 336 q 149 340 144 339 q 160 341 154 340 q 181 342 165 342 q 202 344 196 343 q 226 344 208 344 z "},"*":{"ha":760,"x_min":124,"x_max":663,"o":"m 239 418 l 276 446 q 279 447 276 446 q 285 451 282 449 q 295 462 288 453 q 302 474 303 471 q 294 478 301 476 q 284 479 286 479 q 282 480 282 479 q 279 481 282 481 q 276 481 276 481 q 275 480 276 481 q 274 477 274 479 q 255 469 274 475 q 217 463 236 463 q 149 490 178 463 q 136 510 140 499 q 143 569 124 542 q 182 605 163 597 q 222 613 201 613 q 246 614 242 613 q 229 645 251 617 q 203 688 207 674 q 214 767 190 735 q 223 776 221 775 q 230 781 225 776 q 235 784 235 785 q 241 786 236 783 q 253 790 246 789 q 315 771 290 796 q 344 715 340 746 q 347 701 344 704 q 351 697 350 697 q 353 696 351 697 q 355 694 354 694 q 356 694 356 694 q 363 685 357 693 q 376 658 368 676 q 389 633 385 639 q 397 628 393 626 q 403 639 400 629 q 407 649 406 649 q 410 655 408 650 q 414 667 411 660 q 419 682 417 675 q 433 714 429 710 q 441 734 438 718 q 447 752 444 750 q 449 756 449 754 l 454 765 l 458 771 l 467 779 q 472 783 467 779 q 478 788 478 786 q 490 794 479 790 q 507 799 500 797 q 560 782 535 801 q 590 718 592 758 q 589 703 590 707 q 585 692 588 700 q 572 673 582 683 q 558 656 563 663 q 544 633 554 649 q 543 610 529 610 q 560 608 546 610 q 580 606 574 606 q 588 605 586 606 q 595 603 590 604 q 606 600 600 603 q 642 565 631 588 q 632 486 663 522 q 563 458 607 454 q 531 458 538 461 q 528 449 525 454 q 534 438 531 443 q 541 428 538 433 q 556 410 544 422 q 572 393 568 399 q 576 386 575 388 q 590 358 588 379 q 568 285 596 313 q 538 264 554 271 q 504 263 506 264 q 471 275 493 258 l 472 275 q 464 282 472 275 q 455 290 456 289 q 450 296 454 292 q 442 306 446 300 q 435 315 438 313 q 424 336 432 317 q 412 376 417 356 q 403 406 407 397 q 383 396 393 422 q 379 387 382 392 q 372 368 376 382 q 360 340 368 354 q 347 314 353 325 q 294 263 331 275 q 260 261 276 257 q 241 269 244 265 q 233 275 238 274 q 204 309 218 283 q 203 367 190 335 q 218 398 215 399 q 225 403 221 397 q 230 410 229 410 q 234 414 231 410 q 239 418 238 418 z "},"/":{"ha":760,"x_min":150,"x_max":644,"o":"m 154 -56 l 157 -51 q 158 -49 157 -51 q 159 -47 158 -47 q 162 -42 160 -46 q 167 -33 164 -37 q 172 -23 171 -28 q 176 -12 174 -18 q 179 0 178 -6 q 183 13 181 6 q 187 22 186 21 q 199 49 188 24 q 211 76 210 74 q 214 84 213 79 q 218 95 215 89 q 222 103 221 101 q 228 118 222 104 q 235 133 235 132 q 235 135 235 135 q 240 144 236 135 q 246 154 244 153 q 258 178 254 160 q 264 200 263 197 q 265 203 265 203 q 266 208 265 204 q 267 214 267 211 q 271 222 268 217 q 272 228 274 228 q 275 238 271 229 q 283 256 279 247 q 299 294 286 265 q 318 336 311 322 q 326 353 325 353 q 331 359 328 353 q 335 365 333 365 q 340 374 336 365 q 344 385 343 382 q 347 393 344 388 q 348 401 349 399 q 358 427 347 404 q 375 465 368 450 q 386 490 382 481 q 393 508 390 500 q 405 534 396 515 q 418 564 414 553 q 426 583 422 575 q 443 619 431 592 l 461 660 q 465 665 463 658 q 472 674 468 671 q 475 681 475 676 q 478 692 475 686 q 479 699 481 699 q 487 719 478 700 q 497 744 496 739 q 502 755 499 749 q 511 774 506 761 q 519 792 517 786 q 526 810 521 799 q 588 863 549 863 q 621 849 607 863 q 640 826 635 836 q 641 803 644 815 q 636 786 638 792 q 631 772 635 781 q 626 760 626 763 l 628 760 l 596 682 q 590 671 596 682 q 578 646 585 660 q 567 620 572 632 q 560 602 563 608 q 555 592 557 596 q 550 580 553 588 q 539 555 547 572 q 528 529 531 538 q 523 517 525 521 q 517 506 521 514 q 512 493 514 497 q 501 469 510 489 q 490 445 493 450 q 484 436 486 440 q 478 426 482 432 q 469 408 475 421 q 452 372 464 396 q 436 334 440 349 q 431 316 432 319 q 428 306 429 313 q 422 290 428 300 q 413 269 417 279 q 398 235 408 258 q 380 194 388 211 q 370 173 372 176 q 363 156 368 169 q 349 129 358 143 q 328 97 340 115 q 309 67 317 78 q 298 37 301 57 q 283 -8 294 17 q 269 -39 272 -32 q 265 -51 267 -46 q 257 -71 263 -56 q 235 -106 246 -99 q 172 -110 199 -129 q 169 -108 169 -107 q 160 -100 168 -108 q 153 -87 153 -92 q 151 -76 153 -83 q 151 -69 150 -69 q 153 -62 151 -68 q 154 -56 154 -56 z "},"#":{"ha":760,"x_min":140,"x_max":693,"o":"m 158 35 l 176 72 q 178 74 176 74 q 182 85 181 75 q 183 95 183 94 q 183 100 182 96 q 184 107 183 104 q 186 117 185 110 q 190 140 188 124 q 194 161 193 157 q 196 172 194 165 q 199 190 197 179 q 203 209 201 200 q 206 227 204 218 q 205 245 208 236 q 190 258 201 254 q 165 274 178 261 q 147 301 149 292 q 142 310 144 310 q 144 323 140 310 q 163 351 147 336 q 202 367 179 365 q 235 375 225 368 q 253 404 246 382 q 246 443 263 438 q 217 444 243 444 q 162 463 181 446 q 143 502 143 481 q 159 539 143 524 q 189 557 175 554 q 240 559 203 560 q 289 567 278 558 q 305 592 300 575 q 315 629 310 608 q 324 663 321 650 q 330 681 328 675 q 340 718 332 688 q 354 763 349 749 q 374 789 360 778 q 419 800 393 806 q 456 773 446 794 q 463 735 467 751 q 457 713 458 718 q 449 681 456 707 q 438 647 442 654 q 433 637 435 640 q 428 626 432 633 q 424 611 425 619 q 418 583 424 603 q 418 559 413 563 q 439 556 424 556 q 492 574 478 556 q 502 600 497 582 q 514 642 507 618 q 524 678 521 667 q 528 696 526 690 q 538 726 531 701 q 566 788 547 768 q 602 803 585 807 q 623 797 619 800 q 632 789 626 793 q 643 775 638 785 q 650 731 654 758 q 645 694 646 703 q 642 679 644 686 q 631 638 640 672 q 618 601 622 603 l 617 594 l 617 593 q 631 558 610 567 q 664 535 653 550 q 663 467 693 499 q 619 446 640 444 q 612 447 614 446 q 592 449 610 449 q 571 442 574 450 q 565 427 568 435 q 559 408 563 419 q 550 381 556 397 q 544 363 544 365 q 547 358 544 360 q 574 360 551 357 q 614 365 613 365 q 647 358 628 371 q 669 301 679 338 q 636 260 661 268 q 597 258 632 258 q 542 256 563 257 q 519 243 522 254 q 521 240 519 238 l 521 239 q 516 224 519 236 q 508 199 513 213 q 501 172 504 185 q 494 153 497 158 q 490 143 492 149 q 483 126 488 138 q 476 103 479 114 l 472 76 l 472 75 q 472 70 472 72 q 469 55 472 68 q 461 28 465 42 l 451 3 q 446 -8 451 4 q 426 -26 440 -21 q 371 -18 394 -43 q 363 33 353 1 q 365 48 364 38 q 368 63 367 58 q 370 76 369 67 q 373 101 371 85 q 376 117 375 117 q 376 119 376 117 q 377 125 376 122 q 378 128 378 128 q 378 130 378 128 q 380 138 379 132 q 383 153 381 144 q 385 163 386 161 l 386 163 q 389 177 385 164 q 394 192 393 190 q 397 203 394 194 q 401 215 400 213 q 403 222 403 218 q 405 225 404 225 q 406 228 406 225 q 412 245 407 231 q 410 261 417 260 q 389 260 404 263 q 368 258 374 258 q 359 256 363 257 q 344 250 356 256 q 327 237 332 244 q 316 206 322 229 q 307 174 310 183 q 301 151 304 165 q 295 134 297 136 q 290 125 293 132 q 264 67 272 81 q 256 31 256 53 q 242 -22 256 -6 q 165 -26 206 -62 q 154 -13 153 -15 q 153 -6 156 -11 q 151 7 151 0 q 152 15 151 14 q 153 19 153 15 q 153 22 153 22 q 155 24 154 22 q 156 28 156 26 q 157 32 157 31 q 158 33 157 33 q 158 35 158 33 m 451 431 q 419 448 451 444 q 381 449 386 451 q 371 435 375 446 q 362 413 367 425 q 356 393 357 401 q 355 381 356 385 q 354 371 354 376 q 358 360 354 363 q 379 356 363 358 q 400 353 396 354 q 411 351 404 351 q 417 351 418 350 q 423 351 417 351 q 438 355 429 351 q 448 371 446 358 q 451 396 450 383 q 453 429 456 429 q 451 431 451 429 z "},"$":{"ha":760,"x_min":133,"x_max":672,"o":"m 168 590 q 169 589 168 590 q 168 590 168 590 m 224 665 l 239 679 q 252 689 239 682 q 268 700 265 696 q 305 717 279 710 q 338 727 331 724 q 350 740 346 731 q 356 781 354 749 q 406 861 357 854 q 447 848 431 865 q 465 820 463 831 q 468 795 468 810 q 466 774 468 781 q 465 747 464 767 q 470 719 467 722 q 485 711 474 717 q 496 706 496 706 q 504 701 496 706 q 525 692 513 696 q 592 653 571 676 q 603 640 597 646 q 628 590 624 618 q 613 515 633 543 q 540 481 583 476 q 475 521 497 485 q 467 531 469 529 q 464 526 465 532 q 463 490 460 506 q 466 453 465 474 q 467 425 467 432 q 469 410 468 418 q 474 398 471 403 q 493 389 478 393 q 571 344 540 371 q 581 338 574 342 q 592 331 588 335 q 597 328 597 328 l 625 307 q 629 301 625 307 q 636 297 633 296 q 651 274 639 297 q 672 206 672 232 q 671 175 672 179 q 668 154 668 164 q 667 143 668 144 q 667 135 667 142 q 621 54 664 100 q 608 36 615 47 q 590 15 600 25 q 576 1 581 6 q 523 -31 557 -19 q 482 -49 489 -43 q 470 -78 471 -58 q 466 -108 469 -97 q 465 -131 463 -118 q 464 -153 467 -144 q 457 -168 461 -162 q 394 -197 432 -210 q 358 -161 367 -187 q 356 -114 356 -151 q 353 -68 356 -76 q 317 -42 349 -51 q 206 19 246 -19 q 195 30 194 29 q 192 37 196 31 q 186 42 189 43 q 175 54 185 40 q 161 171 133 117 q 218 218 181 208 q 301 189 267 231 q 318 147 318 168 q 311 110 318 126 q 331 75 300 83 q 353 86 349 71 q 356 128 356 93 q 357 163 356 163 q 358 190 358 163 q 358 238 358 217 q 357 262 358 260 q 354 283 356 264 q 336 324 353 314 q 304 338 331 328 q 221 389 254 357 q 188 432 188 421 q 177 455 188 433 q 164 497 167 476 q 162 523 161 518 q 163 543 163 528 q 174 597 164 572 l 186 622 q 203 642 199 636 q 212 651 208 647 q 219 660 215 656 q 224 665 224 665 m 355 595 q 354 595 355 595 q 351 598 353 596 q 341 603 349 600 q 317 597 333 607 q 298 585 301 586 q 290 579 294 585 q 284 569 285 574 q 279 556 283 565 q 297 478 258 517 q 350 454 333 439 l 358 522 l 358 536 q 361 564 364 547 q 358 588 358 581 q 355 595 357 594 m 469 589 q 471 595 471 593 q 469 597 471 597 q 469 589 467 597 m 508 266 q 505 267 508 266 q 499 269 503 268 q 488 271 496 269 q 469 258 472 274 q 469 228 469 256 q 467 196 469 201 q 464 172 465 190 q 464 143 463 154 q 466 123 465 132 q 467 110 467 114 q 469 96 468 106 q 492 83 472 75 q 497 83 494 85 q 504 86 499 82 q 511 90 510 90 q 516 92 513 90 q 522 96 519 94 q 528 100 524 97 q 533 103 532 103 q 546 115 535 104 q 557 127 557 126 q 563 133 557 128 q 569 176 572 143 q 515 263 563 244 q 508 266 513 264 z "},"":{"ha":760,"x_min":117,"x_max":671,"o":"m 271 546 l 276 554 q 278 556 276 554 q 279 558 279 557 q 281 560 279 558 q 283 561 283 561 q 283 563 282 561 l 285 564 l 289 567 l 293 571 q 342 594 321 589 q 366 603 363 600 q 369 630 369 606 q 367 654 368 654 q 367 673 365 654 q 368 706 368 692 q 369 732 368 721 q 371 766 369 743 q 374 789 372 789 q 380 795 376 789 q 384 801 383 801 q 388 806 385 801 q 397 815 392 811 q 401 821 401 818 q 424 827 401 826 q 457 821 446 828 q 485 760 486 803 q 481 710 483 718 q 478 695 479 703 q 472 668 476 688 q 468 643 468 649 q 469 631 468 638 q 472 615 471 625 q 514 594 474 601 q 529 590 524 592 q 535 590 535 589 q 539 590 536 590 q 545 587 542 589 q 554 582 549 585 q 614 538 604 560 q 624 526 619 526 q 644 493 628 526 q 647 419 661 460 q 635 399 642 407 q 629 390 629 392 q 616 381 629 389 q 580 366 603 372 q 546 360 557 360 q 529 363 535 361 q 522 365 524 365 q 510 372 521 364 q 489 393 499 381 q 472 406 476 410 q 466 376 467 401 q 465 340 465 350 q 463 306 464 329 q 460 277 461 282 q 458 264 458 272 q 456 251 457 256 q 454 230 454 246 q 453 203 454 214 q 451 186 451 192 q 450 171 451 181 q 447 151 449 161 q 444 133 446 142 q 444 105 443 125 q 447 81 444 85 q 486 90 451 68 q 492 94 492 94 q 501 100 493 94 q 519 121 519 115 q 523 126 519 122 q 526 131 526 129 q 531 140 526 133 q 533 146 535 146 q 535 152 532 146 q 547 173 539 158 q 567 201 554 188 q 601 215 581 215 q 647 190 629 217 q 622 90 671 156 q 597 55 601 63 q 584 37 593 47 q 570 22 575 26 q 563 13 565 17 q 543 -1 560 10 q 517 -17 526 -12 q 478 -33 494 -26 q 453 -48 461 -39 q 444 -87 446 -57 q 437 -126 442 -117 q 419 -149 432 -136 q 388 -161 406 -161 q 338 -132 357 -162 q 329 -87 328 -118 q 328 -51 331 -57 q 286 -18 324 -36 q 276 -14 279 -15 l 271 -10 q 269 -7 272 -10 q 257 1 260 -1 q 247 9 254 4 q 235 19 240 14 q 224 26 229 24 q 210 38 219 29 q 200 49 201 47 q 135 160 165 71 q 124 200 129 176 q 120 224 118 224 q 122 239 122 225 q 119 256 121 253 q 118 259 118 258 q 117 260 118 260 q 117 263 117 260 q 117 270 117 265 q 117 281 117 275 q 119 322 117 310 q 124 353 121 335 q 142 416 126 372 q 163 462 158 460 q 172 470 168 464 q 178 476 176 476 l 201 501 q 201 503 201 501 q 236 528 201 511 q 238 529 238 528 q 240 530 239 531 q 246 533 242 529 q 251 535 250 536 q 253 536 251 535 q 256 537 256 538 q 260 536 257 536 q 264 537 264 536 q 266 538 264 538 q 269 540 268 538 q 271 542 268 540 q 271 546 274 544 m 358 449 q 359 453 358 449 q 360 460 360 457 q 361 476 361 464 q 324 481 361 500 q 288 453 296 467 q 277 435 281 440 q 270 423 274 431 q 264 410 267 415 q 261 401 261 404 q 254 386 261 399 q 232 311 240 360 q 238 211 224 263 q 285 125 253 160 q 339 115 336 69 q 340 126 340 125 l 344 146 q 347 160 346 146 q 347 176 347 174 q 346 182 346 178 q 346 228 350 214 l 346 225 q 344 228 344 224 q 346 250 346 238 q 347 268 347 267 l 349 267 q 349 285 351 279 q 349 318 347 292 q 353 390 351 344 q 356 438 354 436 q 358 449 357 440 m 472 445 q 474 444 472 445 q 476 447 476 443 q 472 449 476 450 q 472 445 467 447 m 431 831 q 429 831 429 831 l 431 831 z "},"%":{"ha":760,"x_min":117,"x_max":675,"o":"m 540 369 q 572 360 569 360 q 588 351 575 360 q 603 342 601 343 q 607 341 606 342 q 615 335 608 340 q 642 309 633 325 q 651 290 650 293 q 655 283 653 288 q 660 276 657 278 q 668 243 665 271 q 660 140 675 171 q 657 130 657 136 q 647 95 657 124 q 619 40 636 67 q 595 10 601 14 q 581 -2 589 6 q 556 -19 572 -10 q 526 -39 539 -29 q 425 -47 482 -76 q 360 38 375 -21 q 359 43 358 43 q 359 50 360 43 q 358 58 358 57 q 358 64 358 60 q 356 68 357 68 q 356 74 356 68 q 353 81 356 79 q 350 94 351 83 q 344 107 349 106 q 331 97 338 110 q 317 76 324 83 q 308 63 310 69 q 305 49 307 56 q 303 38 303 43 q 299 27 303 33 q 290 10 296 21 q 269 -40 276 -24 q 251 -78 261 -56 q 215 -125 236 -114 q 156 -118 183 -144 q 136 -61 126 -93 q 144 -40 140 -44 q 150 -26 156 -26 q 157 -9 149 -26 q 168 15 165 8 q 175 30 171 21 q 184 50 179 39 q 192 69 189 61 q 199 84 196 76 q 205 98 201 92 q 228 150 208 104 q 251 196 249 196 q 256 203 253 196 q 259 210 258 210 q 264 219 260 210 q 268 230 268 228 q 272 240 268 232 q 274 248 275 249 q 276 256 272 247 q 284 274 279 264 q 312 337 289 285 q 333 392 335 389 q 304 383 331 397 q 183 383 238 349 q 125 471 139 411 q 119 508 117 507 q 121 517 121 510 q 119 525 121 524 q 119 547 118 526 q 121 575 119 567 q 124 595 122 583 q 135 635 126 607 q 207 750 160 711 q 235 769 229 769 q 250 774 240 769 q 263 778 260 778 q 271 781 267 779 l 272 783 q 274 785 271 785 q 340 788 318 796 q 349 784 344 785 q 355 783 354 783 q 361 780 356 782 q 374 775 367 778 q 388 771 382 772 q 410 765 394 769 q 482 782 457 754 q 488 789 485 785 q 492 793 492 793 q 497 799 492 793 q 501 806 503 804 q 511 818 500 807 q 535 842 522 829 q 625 860 585 896 q 646 825 646 840 q 642 799 646 810 q 626 760 639 789 q 613 727 614 731 q 605 711 611 724 q 593 685 599 699 q 582 659 588 671 q 572 637 576 647 q 558 606 568 626 q 547 581 549 586 q 540 567 544 576 q 528 539 536 557 q 516 516 519 521 q 508 501 513 511 q 497 483 503 492 q 483 449 488 467 q 468 406 479 431 q 447 358 457 381 q 442 335 438 335 q 469 347 447 335 q 514 365 492 360 l 540 369 m 326 628 q 304 679 332 689 q 260 642 281 672 q 253 633 256 636 q 229 554 229 606 q 231 532 229 536 q 233 518 232 528 q 268 500 238 472 q 274 505 272 506 q 281 509 276 504 q 286 513 285 514 q 292 521 288 513 q 298 529 297 529 q 301 533 299 529 q 304 539 303 536 q 306 542 306 542 q 307 542 306 542 q 317 560 308 543 q 325 584 325 576 q 326 599 325 592 q 326 613 326 607 q 326 628 326 619 m 560 231 q 559 238 560 231 q 550 251 558 246 q 537 254 542 257 q 528 248 532 251 q 518 240 524 244 q 503 224 513 236 q 487 199 493 213 q 476 178 481 186 q 469 163 471 169 q 460 136 467 156 q 454 93 453 117 q 476 49 457 53 q 503 65 489 47 q 523 92 518 83 q 533 109 528 100 q 541 124 539 118 q 550 145 543 131 q 560 188 557 160 q 560 231 563 215 z "},"&":{"ha":760,"x_min":117,"x_max":686,"o":"m 222 722 l 235 742 q 265 771 235 747 q 383 801 315 808 q 453 777 422 797 q 492 745 483 757 q 508 722 500 733 q 519 699 515 711 q 523 681 522 688 q 526 654 524 675 q 519 604 529 624 q 508 571 510 585 q 443 454 501 513 q 422 432 428 436 q 408 421 415 428 q 397 402 396 408 q 404 385 397 396 q 415 367 411 374 q 425 348 418 360 q 439 321 432 336 q 469 268 461 274 q 482 274 476 263 q 489 296 488 286 q 492 311 490 306 q 494 319 493 317 q 495 323 494 322 q 496 326 496 324 q 497 331 496 328 q 499 336 499 335 q 501 344 499 338 q 504 352 504 350 q 513 364 504 354 q 585 399 544 399 q 636 381 613 399 q 665 343 660 364 q 661 281 678 301 q 654 271 658 276 q 588 239 632 242 q 570 231 574 239 q 563 206 567 224 q 556 174 560 188 q 550 156 551 160 l 551 157 q 550 149 551 157 q 556 129 549 140 q 569 115 564 118 q 592 115 574 113 q 651 100 625 119 q 683 35 686 74 q 653 -24 681 -1 q 609 -43 629 -43 q 585 -41 589 -43 q 567 -35 582 -39 q 540 -22 553 -31 q 526 -14 528 -14 q 506 2 521 -12 q 486 17 492 17 q 472 8 481 17 q 293 -43 392 -64 q 236 -24 250 -35 q 210 -5 222 -12 q 176 31 199 3 q 129 210 117 103 q 131 219 131 219 q 133 239 131 219 q 147 283 136 258 q 158 306 157 307 q 160 308 158 306 q 164 315 163 311 q 167 320 165 318 q 171 325 169 322 q 174 328 172 328 l 178 336 q 181 342 178 336 q 183 349 183 347 q 188 356 183 350 q 192 366 193 363 q 218 399 190 369 q 245 436 246 429 q 240 451 244 443 q 237 458 236 458 q 238 461 238 458 q 231 469 233 469 q 214 501 229 469 q 190 574 192 551 q 190 600 189 597 q 191 609 190 603 q 192 616 192 615 q 192 622 192 617 q 194 631 193 626 q 196 638 196 635 q 197 641 196 640 q 197 643 197 642 q 198 647 197 644 q 201 656 199 649 q 208 682 204 664 q 217 710 211 700 q 222 722 222 721 m 408 663 q 396 674 408 661 q 364 687 383 686 q 328 671 344 688 q 301 610 303 646 q 300 594 301 599 q 303 572 299 590 q 317 542 308 554 q 327 528 325 529 q 330 525 329 528 q 338 519 331 522 q 381 551 350 517 q 388 557 385 556 q 398 567 388 557 q 410 578 408 578 q 416 590 413 578 q 419 602 419 601 q 419 603 419 603 q 419 604 419 603 q 422 617 419 606 q 419 643 425 628 q 410 664 414 660 l 408 663 m 356 247 q 354 250 356 247 q 350 257 353 253 q 333 288 347 261 q 313 317 318 314 q 290 306 303 322 q 276 289 278 289 q 265 272 274 289 q 253 251 256 256 q 246 233 251 246 q 236 178 233 204 q 241 153 239 153 q 243 149 243 153 q 251 128 243 144 q 313 69 274 83 q 318 65 315 68 q 342 63 321 63 q 370 67 364 63 q 378 74 376 72 q 381 77 381 76 q 381 78 381 78 q 385 81 382 78 q 389 84 389 83 q 394 91 389 85 q 399 99 400 97 q 404 108 399 101 q 413 121 410 114 q 417 133 417 128 q 413 147 417 138 q 406 160 408 156 q 394 180 403 164 q 385 198 386 196 q 376 213 383 200 q 363 233 368 225 q 356 247 358 242 z "},"@":{"ha":760,"x_min":142,"x_max":699,"o":"m 321 778 l 339 794 q 349 803 339 796 q 528 839 436 861 q 574 822 567 829 q 587 809 581 814 q 595 801 593 804 q 606 792 597 799 q 620 781 614 786 q 628 775 626 775 q 642 756 629 775 q 669 699 661 726 q 676 656 676 672 q 683 622 676 640 q 687 555 689 604 q 683 501 685 506 q 680 492 681 497 q 676 475 679 488 q 672 453 672 463 q 670 438 671 443 q 669 428 669 432 q 668 412 669 424 q 667 398 667 400 q 665 385 668 396 q 661 367 663 374 q 658 357 660 361 q 655 346 657 353 q 651 336 653 339 q 647 328 649 333 q 642 315 646 324 q 635 297 638 307 q 631 282 632 288 q 630 274 629 276 q 623 256 631 271 q 606 227 615 240 q 593 214 596 214 q 583 210 590 214 q 499 186 556 189 q 478 190 482 190 q 454 179 475 190 q 338 182 396 149 q 278 247 304 203 q 261 257 267 267 q 261 220 257 246 q 266 187 265 194 q 268 173 267 179 q 269 163 269 167 q 271 142 268 158 q 278 119 274 126 q 286 106 283 111 q 291 100 289 100 q 293 99 293 100 q 295 97 293 99 q 304 83 297 94 q 418 35 346 28 q 424 35 424 36 q 435 35 426 33 q 445 35 443 36 q 466 40 447 35 q 499 55 485 46 q 515 64 514 64 q 523 69 517 64 q 529 74 529 74 l 539 78 q 550 88 542 78 q 563 103 558 99 q 572 115 567 107 q 592 136 576 122 q 658 150 629 172 q 682 79 699 119 q 663 51 679 75 q 619 6 646 28 q 585 -19 593 -15 q 563 -28 576 -22 q 533 -38 550 -33 q 504 -50 517 -43 q 440 -74 464 -72 q 403 -79 415 -76 q 363 -76 390 -82 q 221 3 272 -61 q 212 16 214 10 q 204 31 210 22 q 193 54 199 39 q 186 69 188 69 q 176 83 185 69 l 163 126 q 156 153 158 142 q 153 167 154 165 q 151 183 153 169 q 146 230 150 197 q 144 265 142 263 q 147 299 146 268 q 148 349 147 329 q 147 368 149 368 q 147 388 146 368 q 148 410 147 408 q 151 429 149 411 q 194 594 160 508 q 200 606 199 606 q 205 613 201 606 q 209 619 208 619 q 217 632 210 619 q 225 649 224 644 q 239 675 226 654 q 253 697 251 696 q 261 707 256 699 q 270 719 267 715 q 278 726 274 722 q 288 737 282 731 q 297 748 293 743 q 305 759 300 753 q 315 771 310 765 q 321 778 321 776 m 506 729 q 451 726 469 738 q 436 719 446 724 q 375 674 407 708 q 289 522 321 615 q 285 494 279 494 q 296 500 290 493 q 374 575 339 558 q 490 596 436 606 q 550 558 533 589 q 563 540 560 542 q 572 578 572 536 q 567 637 572 619 q 559 665 563 654 q 544 694 556 676 q 514 722 532 711 l 513 724 l 506 729 m 571 494 q 571 498 571 494 q 569 504 571 503 q 560 508 567 506 q 553 506 554 510 q 547 478 547 494 q 550 461 546 461 q 569 479 567 461 q 570 485 569 485 q 571 494 571 485 m 435 465 q 424 471 435 475 q 390 438 401 463 q 378 401 378 413 q 376 381 378 390 q 374 353 375 372 q 372 327 372 333 q 375 304 371 321 q 390 282 379 288 q 418 297 411 272 q 422 332 421 306 q 422 360 422 358 q 422 365 421 361 q 424 383 422 369 q 428 420 425 396 q 431 451 431 444 q 433 460 432 458 q 435 465 435 461 z "},"":{"ha":760,"x_min":135,"x_max":661,"o":"m 357 811 l 385 814 q 422 813 407 815 q 449 810 436 811 q 471 806 461 810 q 496 800 481 803 q 586 744 549 786 q 597 731 596 733 q 600 722 597 728 q 610 686 610 701 q 611 661 610 671 q 607 630 613 651 q 574 593 601 608 q 536 576 547 578 q 522 575 525 575 q 481 588 506 569 q 444 651 443 615 q 443 691 446 686 q 421 699 440 696 q 339 678 369 707 l 336 676 q 329 671 336 683 q 322 652 322 658 q 324 639 322 646 q 328 632 326 632 q 338 616 329 632 q 356 588 346 600 q 377 560 367 575 q 392 540 388 544 q 401 528 397 535 q 408 517 404 522 q 425 495 413 513 q 440 474 438 478 q 449 463 443 469 q 458 451 454 456 q 463 444 461 447 q 472 433 465 440 q 482 418 478 425 q 490 406 486 411 q 510 379 494 400 q 534 347 525 358 q 546 331 543 335 q 558 315 549 326 q 567 301 568 303 q 569 294 565 300 q 576 285 574 289 q 585 272 578 281 q 594 258 592 263 q 601 248 597 253 q 607 238 604 243 q 616 225 610 233 q 625 212 622 217 q 629 205 628 207 q 635 197 631 203 q 639 192 639 192 q 651 163 642 192 q 658 106 661 135 q 638 26 654 57 q 631 15 638 26 q 592 -29 615 -11 q 567 -53 569 -47 q 571 -83 565 -54 q 578 -113 576 -111 q 581 -135 581 -115 q 557 -217 579 -185 q 464 -286 510 -281 q 456 -287 460 -286 q 435 -289 453 -287 q 412 -292 418 -290 q 395 -294 406 -293 q 383 -296 385 -294 q 364 -296 381 -299 q 328 -292 347 -293 q 250 -262 293 -286 q 189 -204 207 -239 q 187 -199 186 -200 q 186 -194 188 -199 q 179 -183 181 -182 q 173 -165 178 -183 q 175 -125 168 -146 q 220 -67 192 -82 q 251 -56 249 -53 q 275 -56 256 -64 q 299 -64 288 -58 q 310 -71 311 -69 q 318 -80 310 -72 q 333 -105 326 -87 q 340 -136 340 -122 q 334 -165 340 -150 q 342 -183 328 -179 q 368 -186 347 -186 l 393 -185 l 400 -183 q 447 -164 432 -182 q 463 -122 469 -142 q 449 -92 457 -101 q 440 -79 442 -82 q 439 -75 439 -76 l 438 -75 q 436 -68 440 -75 q 432 -60 432 -61 q 429 -54 432 -58 q 426 -50 426 -50 q 411 -28 426 -44 q 391 -6 396 -12 q 385 0 386 0 q 374 12 383 -1 q 351 42 364 25 q 340 60 339 58 q 335 69 340 61 q 329 78 329 78 q 324 84 329 78 q 307 107 319 90 q 289 128 294 124 q 274 147 283 132 q 258 168 264 161 q 247 183 253 175 q 236 197 240 192 q 228 209 232 203 q 212 231 224 215 q 197 251 200 247 q 182 271 194 256 q 141 349 147 315 q 135 400 135 382 q 215 554 135 492 q 227 572 228 564 q 222 593 226 579 q 221 706 201 656 q 296 790 244 767 l 299 792 q 305 792 299 789 q 313 794 311 794 q 326 799 315 794 q 339 803 338 803 q 349 806 340 804 q 357 810 357 808 q 357 811 357 811 m 318 444 q 289 463 301 468 q 263 439 276 457 q 263 358 236 406 q 269 346 268 350 q 280 328 271 342 q 292 315 289 315 q 308 294 294 314 q 333 260 322 275 q 358 228 344 246 q 374 206 371 210 q 384 192 376 203 q 399 172 392 182 q 409 157 406 163 q 422 140 413 151 q 441 115 432 128 q 457 94 450 103 q 464 82 464 85 q 470 67 467 71 q 479 57 474 64 q 488 48 485 50 q 494 46 492 46 q 497 47 496 46 q 497 49 497 47 q 497 50 496 50 q 522 65 506 50 q 540 135 553 94 q 493 210 533 154 l 490 215 l 492 214 q 483 228 489 219 q 475 239 476 236 q 469 248 474 242 q 465 256 465 254 q 456 267 464 258 q 438 290 449 275 q 426 308 428 306 q 417 322 424 311 q 400 344 410 333 q 387 358 390 354 q 379 365 383 363 q 372 374 375 368 q 358 392 368 379 q 341 415 347 406 q 330 430 335 424 q 318 444 325 436 z "},"":{"ha":760,"x_min":0,"x_max":783,"o":"m 238 793 q 472 815 347 836 q 649 732 568 800 q 732 639 701 688 q 744 619 738 631 q 767 570 764 592 q 774 542 771 549 q 783 519 778 535 l 783 417 q 781 310 783 313 q 768 275 779 307 q 750 233 757 243 q 738 213 743 222 q 685 145 715 175 q 646 109 654 115 q 626 94 638 103 q 577 64 592 68 q 561 60 563 60 q 519 47 544 50 q 470 40 493 44 q 435 38 447 36 q 410 35 422 39 q 384 30 397 32 q 368 28 371 28 q 231 56 303 18 q 213 67 214 67 q 205 70 213 67 q 194 74 197 74 q 173 85 190 74 q 150 102 156 97 q 143 108 144 107 q 142 110 142 110 q 131 119 142 111 q 91 157 121 126 q 60 196 61 188 q 56 209 58 204 q 47 224 53 214 q 38 233 42 233 q 22 265 35 233 q 6 310 10 297 q 0 332 3 324 l 0 421 q 1 512 0 511 q 7 531 1 513 q 97 694 32 622 q 108 702 107 703 q 122 715 108 701 q 160 745 136 728 q 184 762 183 763 q 194 766 185 761 q 204 771 204 771 q 208 773 204 771 q 213 777 211 775 q 222 782 215 779 q 227 786 228 785 q 238 793 226 788 m 174 483 l 176 504 q 188 541 176 513 q 222 599 199 569 q 392 685 289 685 q 456 674 429 685 q 488 663 482 663 q 500 667 493 663 q 449 704 540 685 q 417 708 436 707 q 400 710 399 708 q 383 711 393 714 q 349 706 374 708 q 294 691 325 703 q 253 672 263 679 q 232 658 243 665 q 161 590 199 636 q 148 578 157 585 q 124 545 139 571 q 106 506 110 519 q 100 461 101 493 q 101 417 99 429 q 103 404 103 406 q 105 397 103 403 q 110 375 107 392 q 127 312 115 336 q 140 282 139 288 q 158 253 144 267 q 182 229 172 240 q 204 208 192 218 q 229 188 217 197 q 242 176 242 178 q 249 170 242 175 q 257 165 257 165 q 261 162 257 164 q 282 149 265 160 q 326 128 307 132 q 378 128 346 125 q 410 131 410 131 q 419 133 410 132 q 429 135 429 133 q 428 137 429 136 q 448 140 428 138 q 511 160 468 142 q 599 223 554 178 q 663 318 643 268 q 667 326 667 326 q 672 332 669 325 q 676 340 674 339 q 678 345 678 342 q 678 349 678 349 q 680 352 679 350 q 683 359 681 354 q 685 390 685 364 q 683 419 685 417 q 682 433 682 421 q 640 568 676 511 q 633 585 633 581 q 620 603 632 589 q 605 619 608 617 q 601 620 601 621 q 592 626 600 619 q 580 632 583 632 q 578 619 576 632 q 572 490 583 507 q 537 460 557 463 q 497 471 517 458 q 472 496 476 483 q 467 510 467 508 q 465 517 467 511 q 460 524 463 524 q 458 524 458 524 q 448 540 458 525 q 414 565 438 556 q 321 536 371 585 q 308 526 311 528 q 301 515 306 524 q 293 502 296 506 q 288 492 290 499 q 285 481 286 486 q 281 458 285 476 q 286 364 269 415 q 328 297 300 319 q 372 272 357 275 q 404 269 388 269 q 477 297 436 269 q 536 326 518 325 q 569 313 554 326 q 542 201 625 260 q 453 160 493 167 q 410 155 414 153 q 393 158 406 157 q 364 165 381 160 q 333 174 347 171 q 290 191 308 179 q 263 208 271 203 q 232 235 246 218 q 218 254 218 253 q 213 265 218 256 q 208 275 208 274 q 199 290 207 276 q 185 317 190 304 q 176 339 181 329 q 169 374 172 349 q 167 406 167 400 q 168 426 168 413 q 169 444 168 440 q 172 458 171 449 q 173 474 172 468 q 174 483 174 481 z "}}}
